SplineFontDB: 3.0
FontName: SelectricRoman
FullName: Selectric
FamilyName: Selectric
Weight: Roman

StartChar: .notdef
Encoding: 65536 -1 0
Width: 525
Flags: MW
HStem: 0 52<104 421 104 473> 481 52<104 421 104 104>
VStem: 52 52<52 52 52 481> 421 52<52 481 481 481>
LayerCount: 2
Fore
SplineSet
52 0 m 1
 52 533 l 1
 473 533 l 1
 473 0 l 1
 52 0 l 1
104 52 m 1
 421 52 l 1
 421 481 l 1
 104 481 l 1
 104 52 l 1
EndSplineSet
EndChar

StartChar: exclam
Encoding: 33 33 2
Width: 308
Flags: MW
HStem: -7 142<148 186>
VStem: 95 147<39 76 38.5 78> 118 107<691 736.5 690 737> 141 57<231 354 231 354.5>
LayerCount: 2
Fore
SplineSet
198 231 m 1x90
 198 477 225 665 225 715 c 0
 225 758 206 780 172 780 c 0
 140 780 118 758 118 716 c 0xa0
 118 666 141 478 141 231 c 1
 198 231 l 1x90
170 135 m 0
 228 135 242 91 242 61 c 0
 242 16 207 -7 165 -7 c 0
 131 -7 95 17 95 61 c 0xc0
 95 95 116 135 170 135 c 0
EndSplineSet
EndChar

StartChar: quotedbl
Encoding: 34 34 3
Width: 580
Flags: MW
HStem: 607 178<123.5 163 382.5 422>
VStem: 163 94<571.5 607> 422 94<571.5 607>
LayerCount: 2
Fore
SplineSet
408 785 m 0
 482 785 516 727 516 658 c 0
 516 485 325 412 325 412 c 1
 303 456 l 1
 303 456 422 491 422 607 c 1
 343 607 306 653 313 709 c 0
 318 750 349 785 408 785 c 0
149 785 m 0
 223 785 257 727 257 658 c 0
 257 485 66 412 66 412 c 1
 44 456 l 1
 44 456 163 491 163 607 c 1
 84 607 47 653 54 709 c 0
 59 750 90 785 149 785 c 0
EndSplineSet
EndChar

StartChar: numbersign
Encoding: 35 35 4
Width: 724
Flags: W
LayerCount: 2
Fore
SplineSet
414 86 m 1
 465.000976562 86.0009765625 l 1
 465.309570312 239.255859375 l 1
 573.000976562 239.000976562 l 1
 573.000976562 291.000976562 l 1
 465.415039062 291.255859375 l 1
 465.606445312 386.255859375 l 1
 573.000976562 386.000976562 l 1
 573.000976562 438.000976562 l 1
 465.7109375 438.254882812 l 1
 466.000976562 582.000976562 l 1
 415.000976562 582.000976562 l 1
 414.7109375 438.375976562 l 1
 318.7109375 438.603515625 l 1
 319 582.000976562 l 1
 268 582.000976562 l 1
 267.7109375 438.724609375 l 1
 151 439.000976562 l 1
 151 387.000976562 l 1
 267.606445312 386.724609375 l 1
 267.415039062 291.724609375 l 1
 151 292 l 1
 151 240 l 1
 267.309570312 239.724609375 l 1
 267 86 l 1
 318 86 l 1
 318.309570312 239.603515625 l 1
 414.309570312 239.375976562 l 1
 414 86 l 1
414.415039062 291.376953125 m 1
 318.415039062 291.604492188 l 1
 318.606445312 386.604492188 l 1
 414.606445312 386.376953125 l 1
 414.415039062 291.376953125 l 1
EndSplineSet
EndChar

StartChar: dollar
Encoding: 36 36 5
Width: 621
Flags: MW
HStem: -13 51<280.671 281.958> 714 49
VStem: 46 44<209 209> 48 90<552.002 598.397> 48 221.321 465 33<597 626.631> 476 93<165.183 230.445>
LayerCount: 2
Fore
SplineSet
218 -112 m 1xd0
 269 -112 l 1
 269.211914062 -12.986328125 l 1
 273.748046875 -12.9970703125 278.342773438 -13 283 -13 c 0
 296.499023438 -13 309.899414062 -12.359375 323.108398438 -11.083984375 c 1
 323 -112 l 1
 374 -112 l 1
 374.1171875 -2.73828125 l 1
 483.494140625 22.931640625 569 96.4970703125 569 215 c 0xd2
 569 342.592773438 474.852539062 383.684570312 374.5625 413.4140625 c 1
 374.877929688 707.749023438 l 1
 442.5234375 693.670898438 465 656.26171875 465 597 c 1
 498 597 l 1
 498 721 l 1
 498 721 457.545898438 749.797851562 374.93359375 759.702148438 c 1
 375 822 l 1
 324 822 l 1
 323.936523438 762.965820312 l 2
 321.974609375 762.98828125 319.99609375 763 318 763 c 0
 301.581054688 763 285.8671875 762.26953125 270.869140625 760.833984375 c 1
 271 822 l 1
 219 822 l 1
 218.92578125 752.413085938 l 1
 107.450195312 726.047851562 48 651.794921875 48 545 c 0xcc
 48 436.610351562 127.813476562 392.369140625 218.5078125 362.108398438 c 1
 218.166992188 43.5859375 l 1
 145.325195312 59.4248046875 90 110.153320312 90 211 c 1
 46 209 l 1xe0
 48 38 l 1
 103.6953125 0.3681640625 155.9921875 -9.5068359375 218.107421875 -12.08984375 c 1
 218 -112 l 1xd0
218.6171875 464.428710938 m 1
 170.944335938 487.999023438 138 522.004882812 138 582 c 0
 138 638.604492188 167.712890625 679.244140625 218.869140625 699.489257812 c 1
 218.6171875 464.428710938 l 1
269.981445312 346.297851562 m 1
 288.060546875 341.053710938 306.063476562 335.986328125 323.473632812 330.71875 c 1
 323.1640625 41.17578125 l 1
 307.637695312 39.076171875 290.916992188 38 273 38 c 0
 271.771484375 38 270.544921875 38.0078125 269.321289062 38.0224609375 c 2xc8
 269.981445312 346.297851562 l 1
270.190429688 443.870117188 m 1
 270.764648438 712.118164062 l 1
 283.439453125 713.626953125 296.873046875 714.266601562 311 714 c 0
 315.408203125 713.924804688 319.702148438 713.797851562 323.883789062 713.6171875 c 1
 323.578125 427.88671875 l 1
 305.309570312 433.015625 287.333984375 438.190429688 270.190429688 443.870117188 c 1
374.456054688 313.5390625 m 1
 433.095703125 290.811523438 476 259.889648438 476 201 c 0xc2
 476 129.366210938 442.296875 77.3505859375 374.176757812 53.158203125 c 1
 374.456054688 313.5390625 l 1
EndSplineSet
EndChar

StartChar: percent
Encoding: 37 37 6
Width: 678
Flags: MW
HStem: 2 266 499 266
LayerCount: 2
Fore
SplineSet
166.794921875 0 m 1
 217.794921875 -13 l 1
 514.794921875 763 l 1
 462.794921875 776 l 1
 166.794921875 0 l 1
164.794921875 765 m 0
 235.794921875 764 289.794921875 700 285.794921875 629 c 0
 281.794921875 556 235.794921875 499 148.794921875 499 c 0
 87.794921875 499 36.794921875 567 40.794921875 634 c 0
 44.794921875 704 94.794921875 766 164.794921875 765 c 0
143.794921875 732 m 0
 105.794921875 725 72.794921875 680 87.794921875 613 c 0
 98.794921875 561 145.794921875 520 192.794921875 535 c 0
 240.794921875 551 245.794921875 609 239.794921875 645 c 0
 230.794921875 699 199.794921875 742 143.794921875 732 c 0
513.794921875 268 m 0
 584.794921875 267 639.794921875 203 635.794921875 132 c 0
 631.794921875 59 585.794921875 2 498.794921875 2 c 0
 437.794921875 2 385.794921875 70 389.794921875 137 c 0
 393.794921875 207 443.794921875 269 513.794921875 268 c 0
492.794921875 235 m 0
 454.794921875 228 422.794921875 183 437.794921875 116 c 0
 448.794921875 64 495.794921875 23 542.794921875 38 c 0
 590.794921875 54 594.794921875 112 588.794921875 148 c 0
 579.794921875 202 548.794921875 245 492.794921875 235 c 0
EndSplineSet
EndChar

StartChar: ampersand
Encoding: 38 38 7
Width: 578
Flags: MW
HStem: -13 51<193 275 193 283.5> 258 42<281 330> 415 46<245.5 276 276 277 245.5 398> 729 51<221.5 277 206 286>
VStem: 42 75<170 272 170 295.5> 92 71<564 638 564 667.5> 354 49<624 648.5> 382 73<-148 86 86 86>
LayerCount: 2
Fore
SplineSet
403 780 m 1xf6
 403 624 l 1
 354 624 l 1
 354 673 316 729 256 729 c 0
 187 729 163 678 163 598 c 0xf6
 163 530 214 461 277 461 c 2
 277 461 351 462 398 462 c 1
 398 415 l 1
 276 415 l 2
 164 415 117 334 117 210 c 0
 117 130 145 38 241 38 c 0
 309 38 379 112 379 187 c 0
 379 256 379 258 281 258 c 1
 281 300 l 1
 560 300 l 1
 560 260 l 1
 455 260 455 256 455 187 c 2
 455 -148 l 1
 382 -148 l 1
 382 86 l 1
 382 86 342 -13 225 -13 c 0
 137 -13 42 44 42 209 c 0xf9
 42 382 122 418 199 452 c 1
 157 469 92 509 92 603 c 0
 92 732 155 780 257 780 c 0
 297 780 328 751 328 751 c 1
 328 751 353 736 353 780 c 1
 403 780 l 1xf6
EndSplineSet
EndChar

StartChar: quotesingle
Encoding: 39 39 8
Width: 402
Flags: MW
HStem: 607 178<172.5 212>
VStem: 212 94<571.5 607>
LayerCount: 2
Fore
SplineSet
198 785 m 0
 272 785 306 727 306 658 c 0
 306 485 115 412 115 412 c 1
 93 456 l 1
 93 456 212 491 212 607 c 1
 133 607 96 653 103 709 c 0
 108 750 139 785 198 785 c 0
EndSplineSet
EndChar

StartChar: parenleft
Encoding: 40 40 9
Width: 427
Flags: MW
HStem: 754 38<366 388>
VStem: 74 79<176.5 468>
LayerCount: 2
Fore
SplineSet
388 754 m 1
 366 792 l 1
 123 718 74 571 74 365 c 0
 74 -12 146 -76 348 -186 c 1
 370 -148 l 1
 190 -52 153 -12 153 365 c 0
 153 571 168 695 388 754 c 1
EndSplineSet
EndChar

StartChar: parenright
Encoding: 41 41 10
Width: 432
Flags: MW
HStem: 754 38<43 65>
VStem: 278 79<176.5 468>
LayerCount: 2
Fore
SplineSet
43 754 m 1
 65 792 l 1
 308 718 357 571 357 365 c 0
 357 -12 285 -76 83 -186 c 1
 61 -148 l 1
 241 -52 278 -12 278 365 c 0
 278 571 263 695 43 754 c 1
EndSplineSet
EndChar

StartChar: asterisk
Encoding: 42 42 11
Width: 509
Flags: MW
VStem: 218.005 86 241.005 35
LayerCount: 2
Fore
SplineSet
241.004882812 621 m 1x40
 157.004882812 648 157.004882812 677 109.004882812 693 c 0
 68.0048828125 706 41.0048828125 697 33.0048828125 672 c 0
 26.0048828125 649 41.0048828125 624 81.0048828125 611 c 0
 128.004882812 596 144.004882812 614 227.004882812 588 c 1
 176.004882812 518 149.004882812 526 120.004882812 486 c 0
 95.0048828125 451 95.0048828125 423 116.004882812 408 c 0
 136.004882812 394 164.004882812 400 189.004882812 434 c 0
 219.004882812 475 205.004882812 496 257.004882812 568 c 1
 303.004882812 493 285.004882812 472 312.004882812 429 c 0
 335.004882812 392 361.004882812 382 383.004882812 396 c 0
 403.004882812 409 408.004882812 437 386.004882812 473 c 0
 359.004882812 516 334.004882812 512 287.004882812 588 c 1
 371.004882812 615 388.004882812 592 436.004882812 608 c 0
 477.004882812 621 493.004882812 644 485.004882812 669 c 0
 478.004882812 692 451.004882812 703 411.004882812 690 c 0
 363.004882812 674 360.004882812 650 276.004882812 622 c 1x40
 276.004882812 710 304.004882812 720 304.004882812 770 c 0
 304.004882812 813 287.004882812 835 261.004882812 835 c 0
 237.004882812 835 218.004882812 813 218.004882812 771 c 0x80
 218.004882812 721 241.004882812 711 241.004882812 622 c 2
 241.004882812 621 l 1x40
EndSplineSet
EndChar

StartChar: plus
Encoding: 43 43 12
Width: 648
Flags: W
LayerCount: 2
Fore
SplineSet
297 104 m 1
 348 104 l 1
 348.450195312 341.453125 l 1
 587 341 l 1
 587 393 l 1
 348.548828125 393.452148438 l 1
 349 631 l 1
 298 631 l 1
 297.549804688 393.548828125 l 1
 60 394 l 1
 60 342 l 1
 297.451171875 341.549804688 l 1
 297 104 l 1
EndSplineSet
EndChar

StartChar: comma
Encoding: 44 44 13
Width: 287
Flags: MW
HStem: -14 179<114.5 154>
VStem: 154 94<-48.5 -14>
LayerCount: 2
Fore
SplineSet
140 165 m 0
 214 165 248 107 248 38 c 0
 248 -135 57 -209 57 -209 c 1
 35 -165 l 1
 35 -165 154 -130 154 -14 c 1
 75 -14 38 32 45 88 c 0
 50 129 81 165 140 165 c 0
EndSplineSet
EndChar

StartChar: hyphen
Encoding: 45 45 14
Width: 474
Flags: W
LayerCount: 2
Fore
SplineSet
437 341 m 1
 437 393 l 1
 36 394 l 1
 36 342 l 1
 437 341 l 1
EndSplineSet
EndChar

StartChar: period
Encoding: 46 46 15
Width: 320
Flags: MW
HStem: -13 188<146.5 194>
VStem: 68 194<52 106.5 51.5 114>
LayerCount: 2
Fore
SplineSet
167 175 m 0
 226 175 262 127 262 86 c 0
 262 17 214 -13 174 -13 c 0
 119 -13 68 18 68 86 c 0
 68 142 112 175 167 175 c 0
EndSplineSet
EndChar

StartChar: slash
Encoding: 47 47 16
Width: 469
Flags: W
LayerCount: 2
Fore
SplineSet
45 -99 m 1
 97 -111 l 1
 429 763 l 1
 378 776 l 1
 45 -99 l 1
EndSplineSet
EndChar

StartChar: zero
Encoding: 48 48 17
Width: 589
Flags: MW
HStem: -13 40<237.5 353.5 237.5 376.5> 740 40<249.5 353>
VStem: 67 96<291.5 440 291.5 457.5> 435 96<316 460>
LayerCount: 2
Fore
SplineSet
306 780 m 0
 490 780 531 607 531 361 c 0
 531 192 464 -13 289 -13 c 0
 120 -13 67 202 67 365 c 0
 67 550 118 780 306 780 c 0
301 740 m 0
 198 740 163 514 163 366 c 0
 163 217 186 27 289 27 c 0
 418 27 435 242 435 390 c 0
 435 530 405 740 301 740 c 0
EndSplineSet
EndChar

StartChar: one
Encoding: 49 49 18
Width: 446
Flags: MW
HStem: 0 21G<263 359 263 263> 760 20G<294 359 359 359>
VStem: 263 96<0 676 676 676>
LayerCount: 2
Fore
SplineSet
132 613 m 1
 105 645 l 1
 105 645 159 674 294 780 c 1
 359 780 l 1
 359 0 l 1
 263 0 l 1
 263 676 l 1
 132 613 l 1
EndSplineSet
EndChar

StartChar: two
Encoding: 50 50 19
Width: 497
Flags: MW
HStem: 0 86<52 52 150 355 355 388.5 51 52> 716 64<214.5 285.5>
VStem: 61 33<612 624> 359 94 422 32<130 160>
LayerCount: 2
Fore
SplineSet
61 624 m 1xf0
 91 731 160 780 267 780 c 0
 365 780 456 732 453 603 c 0xf0
 450 472 354 412 150 86 c 1
 355 86 l 2
 422 86 422 100 422 160 c 1
 454 160 l 1
 454 38 l 2xe8
 454 0 453 0 428 0 c 2
 51 0 l 1
 52 86 l 1
 325 484 359 498 359 607 c 0
 359 652 321 716 250 716 c 0
 179 716 115 687 94 612 c 1
 61 624 l 1xf0
EndSplineSet
EndChar

StartChar: three
Encoding: 51 51 20
Width: 557
Flags: MW
HStem: -13 51<205 315.5 205 327.5> 700 80<177 190 190 400>
VStem: 87 48<658 677.5> 424 82<172.5 301 157 304.5>
LayerCount: 2
Fore
SplineSet
107 780 m 1
 492 780 l 1
 492 734 l 1
 285 479 l 1
 402 479 506 363 506 239 c 0
 506 75 428 -13 227 -13 c 0
 80 -13 44 48 44 86 c 0
 44 117 67 147 109 147 c 0
 197 147 143 38 267 38 c 0
 364 38 424 108 424 237 c 0
 424 372 309 414 197 414 c 1
 195 450 l 1
 400 700 l 1
 190 700 l 2
 164 700 135 697 135 658 c 1
 87 658 l 1
 107 780 l 1
EndSplineSet
EndChar

StartChar: four
Encoding: 52 52 21
Width: 510
Flags: W
LayerCount: 2
Fore
SplineSet
307 0 m 1
 403 0 l 1
 403 207 l 1
 482 207 l 1
 482 256 l 1
 403 256 l 1
 403 780 l 1
 301 780 l 1
 31 254 l 1
 30 207 l 1
 307 207 l 1
 307 0 l 1
307 256 m 1
 74 256 l 1
 307 709 l 1
 307 256 l 1
EndSplineSet
EndChar

StartChar: five
Encoding: 53 53 22
Width: 558
Flags: MW
HStem: -13 51<222 307 222 341> 386 62 697 83<173 450 121 453 173 173>
VStem: 121 52<452 697 452 780> 408 89<174 268.5>
LayerCount: 2
Fore
SplineSet
270 38 m 0
 344 38 408 88 408 204 c 0
 408 333 373 386 121 386 c 1
 121 780 l 1
 450 780 l 1
 453 697 l 1
 173 697 l 1
 173 452 l 1
 173 452 179 451 297 448 c 0
 406 445 497 341 497 220 c 0
 497 128 413 -13 269 -13 c 0
 125 -13 64 46 64 86 c 0
 64 115 78 139 125 139 c 0
 215 139 174 38 270 38 c 0
EndSplineSet
EndChar

StartChar: six
Encoding: 54 54 23
Width: 566
Flags: MW
HStem: -13 40<263 371 263 385> 442 59<288.916 361.5> 742 28<447 454>
VStem: 74 93<266 339.721 266 429> 456 89<212 309>
LayerCount: 2
Fore
SplineSet
454 770 m 1
 178 780 74 545 74 313 c 0
 74 155 158 -13 316 -13 c 0
 454 -13 545 102 545 236 c 0
 545 384 484 501 314 501 c 0
 263.83203125 501 213.967773438 475.774414062 179.3203125 453.135742188 c 1
 208.791992188 597.444335938 292.650390625 725.629882812 447 742 c 1
 454 770 l 1
170.286132812 393.733398438 m 1
 198.90234375 413.5546875 249.616210938 442 305 442 c 0
 418 442 456 354 456 264 c 0
 456 160 421 27 321 27 c 0
 205 27 167 203 167 329 c 0
 167 350.442382812 168.078125 372.122070312 170.286132812 393.733398438 c 1
EndSplineSet
EndChar

StartChar: seven
Encoding: 55 55 24
Width: 516
Flags: MW
HStem: 699 81<144.98 409.98 409.98 409.98>
VStem: 69.9805 34<608 630.5 608 780 608 630.5>
LayerCount: 2
Fore
SplineSet
142.98046875 0 m 1
 194.98046875 -13 l 1
 496.98046875 780 l 1
 69.98046875 780 l 1
 69.98046875 608 l 1
 103.98046875 608 l 1
 103.98046875 653 103.98046875 699 144.98046875 699 c 2
 409.98046875 699 l 1
 142.98046875 0 l 1
EndSplineSet
EndChar

StartChar: eight
Encoding: 56 56 25
Width: 549
Flags: MW
HStem: -13 54 731 49
VStem: 50 81<160 250.93 160 256.729> 72 83<552.981 627.5 552.981 647.5> 397 74<547.698 626.5> 416 76<128 230.809>
LayerCount: 2
Fore
SplineSet
275 780 m 0xc8
 164 782 72 703 72 592 c 0xd8
 72 502.19140625 120.168945312 448.790039062 180.45703125 407.064453125 c 1
 110.203125 373.3125 50 320.458007812 50 193 c 0
 50 76 151 -11 268 -13 c 0
 385 -15 492 68 492 184 c 0xe4
 492 323.165039062 409.928710938 377.092773438 326.790039062 419.334960938 c 1
 402.376953125 450.323242188 471 488.395507812 471 607 c 0
 471 715 385 778 275 780 c 0xc8
272 731 m 0
 353 731 397 664 397 589 c 0
 397 503.342773438 341.405273438 471.837890625 274.721679688 445.234375 c 1
 209.53125 478.318359375 155 513.961914062 155 592 c 0
 155 663 201 731 272 731 c 0
228.918945312 376.67578125 m 1
 319.639648438 323.8515625 416 281.618164062 416 180 c 0
 416 76 349 41 272 41 c 0
 198 41 131 118 131 202 c 0xe4
 131 299.859375 173.743164062 346.049804688 228.918945312 376.67578125 c 1
EndSplineSet
EndChar

StartChar: nine
Encoding: 57 57 26
Width: 554
Flags: MW
HStem: -13 340<244.5 282> 741 50<218.5 325>
VStem: 39 90<480.5 592 480.5 610> 422 89<460.711 527.5>
LayerCount: 2
Fore
SplineSet
264 791 m 0
 414 791 511 660 511 445 c 0
 511 204 418 -13 146 -13 c 0
 96 -13 56 18 56 54 c 0
 56 109 107 121 133 104 c 0
 177 74 153 38 242 47 c 0
 352.395507812 58.28125 401.754882812 213.712890625 416.76171875 362.081054688 c 1
 391.552734375 323.37890625 347.381835938 282.616210938 266 276 c 0
 145 266 39 371 39 545 c 0
 39 675 134 791 264 791 c 0
421.482421875 433.548828125 m 1
 421.831054688 444.581054688 422 455.421875 422 466 c 0
 422 589 385 741 265 741 c 0
 172 741 129 639 129 545 c 0
 129 416 190 327 299 327 c 0
 366.208007812 327 398.009765625 378.797851562 421.482421875 433.548828125 c 1
EndSplineSet
EndChar

StartChar: colon
Encoding: 58 58 27
Width: 296
Flags: MW
HStem: -13 159<131 177 131 177.5> 376 158<131 177 131 177.5>
VStem: 70 155<53 92.5 53 96 442 481.5>
LayerCount: 2
Fore
SplineSet
153 146 m 0
 201 146 225 113 225 72 c 0
 225 34 208 -13 147 -13 c 0
 103 -13 70 21 70 68 c 0
 70 124 109 146 153 146 c 0
153 534 m 0
 201 534 225 502 225 461 c 0
 225 423 208 376 147 376 c 0
 103 376 70 410 70 457 c 0
 70 513 109 534 153 534 c 0
EndSplineSet
EndChar

StartChar: semicolon
Encoding: 59 59 28
Width: 337
Flags: MW
HStem: -14 179<138.5 178> 406 159<134 180 134 181.5>
VStem: 73 156<472 511.5 472 515> 178 94<-48.5 -14>
LayerCount: 2
Fore
SplineSet
164 165 m 0xd0
 238 165 272 107 272 38 c 0
 272 -135 81 -209 81 -209 c 1
 59 -165 l 1
 59 -165 178 -130 178 -14 c 1
 99 -14 62 32 69 88 c 0
 74 129 105 165 164 165 c 0xd0
156 565 m 0
 204 565 229 532 229 491 c 0
 229 453 212 406 151 406 c 0
 107 406 73 440 73 487 c 0xe0
 73 543 112 565 156 565 c 0
EndSplineSet
EndChar

StartChar: less
Encoding: 60 60 29
Width: 571
Flags: W
LayerCount: 2
Fore
SplineSet
486 131 m 1
 486 183 l 1
 135.376953125 357.874023438 l 1
 486 531 l 1
 486 583 l 1
 85 384 l 1
 85 383 l 1
 85 333 l 1
 85 332 l 1
 486 131 l 1
EndSplineSet
EndChar

StartChar: equal
Encoding: 61 61 30
Width: 522
Flags: W
LayerCount: 2
Fore
SplineSet
461 236 m 1
 461 288 l 1
 60 289 l 1
 60 237 l 1
 461 236 l 1
461 426 m 1
 461 478 l 1
 60 479 l 1
 60 427 l 1
 461 426 l 1
EndSplineSet
EndChar

StartChar: greater
Encoding: 62 62 31
Width: 581
Flags: W
LayerCount: 2
Fore
SplineSet
83 583 m 1
 83 531 l 1
 433.623046875 356.125976562 l 1
 83 183 l 1
 83 131 l 1
 484 330 l 1
 484 331 l 1
 484 381 l 1
 484 382 l 1
 83 583 l 1
EndSplineSet
EndChar

StartChar: question
Encoding: 63 63 32
Width: 580
Flags: MW
HStem: -7 142<272.993 310.993> 545 21G<137.993 164.493> 716 64<284.993 338.993>
VStem: 96.9932 111 219.993 147 266.993 57 423.993 112
LayerCount: 2
Fore
SplineSet
96.9931640625 624 m 0xf6
 96.9931640625 716 194.993164062 780 325.993164062 780 c 0
 427.993164062 780 536.993164062 726 535.993164062 624 c 0
 534.993164062 449 323.993164062 469 323.993164062 369 c 2
 323.993164062 243 l 1
 266.993164062 243 l 1
 266.993164062 350 l 2
 266.993164062 525 423.993164062 432 423.993164062 624 c 0
 423.993164062 678 366.993164062 716 310.993164062 716 c 0
 258.993164062 716 185.993164062 713 207.993164062 639 c 0
 229.993164062 565 175.993164062 545 152.993164062 545 c 0
 122.993164062 545 96.9931640625 585 96.9931640625 624 c 0xf6
294.993164062 135 m 0
 352.993164062 135 366.993164062 91 366.993164062 61 c 0
 366.993164062 16 331.993164062 -7 289.993164062 -7 c 0
 255.993164062 -7 219.993164062 17 219.993164062 61 c 0xfa
 219.993164062 95 240.993164062 135 294.993164062 135 c 0
EndSplineSet
EndChar

StartChar: at
Encoding: 64 64 33
Width: 719
Flags: MW
HStem: -36 39<204 385> 85 45<267.5 302.116> 507 35<379.5 434.356 355 442.581>
LayerCount: 2
Fore
SplineSet
663 400 m 0
 619 112 483 82 427 100 c 1
 407.327148438 112.2109375 397.778320312 130.864257812 397.10546875 150.65234375 c 1
 364.75 112.592773438 325.232421875 85 279 85 c 0
 201 85 150 172 189 297 c 0
 237 451 297 542 413 542 c 0
 455.712890625 542 481.422851562 527.770507812 496.788085938 509.194335938 c 1
 545 520 l 1
 545 520 506 359 463 225 c 0
 446 171 449 133 474 133 c 0
 541 133 587 232 614 400 c 0
 641 572 520 619 414 612 c 0
 231 600 147 491 113 337 c 0
 85 209 100 3 308 3 c 0
 471 3 595 96 595 96 c 1
 615 74 l 1
 615 74 466 -36 304 -36 c 0
 81 -36 28 138 56 324 c 0
 84 511 198 656 437 662 c 0
 561 665 690 575 663 400 c 0
409 507 m 0
 350 507 304 463 245 292 c 0
 206 178 249 130 286 130 c 0
 323.729492188 130 396.754882812 150.749023438 452 352 c 0
 480 454 476.162109375 507 409 507 c 0
EndSplineSet
EndChar

StartChar: A
Encoding: 65 65 34
Width: 751
Flags: MW
HStem: 0 38<65 84.5 212.5 232 65 84.5> 17 33<682 689> 229 40<233.332 460.54 233.332 473.126 221.617 460.54> 743 20G<325 394 394 394>
LayerCount: 2
Fore
SplineSet
179 86 m 2x70
 164 38 193 38 232 38 c 1
 232 0 l 1
 65 0 l 1
 65 38 l 1xb0
 104 38 108 42 125 86 c 2
 325 763 l 1
 394 763 l 1
 614 71 l 2
 622 50 626 35 682 50 c 1
 689 17 l 1
 628 -3 608 -6 580 -6 c 0
 552 -6 542 13 531 42 c 2
 473.125976562 229 l 1
 221.6171875 229 l 1
 179 86 l 2x70
233.33203125 269 m 1
 460.540039062 269 l 1
 344.79296875 643 l 1
 233.33203125 269 l 1
EndSplineSet
EndChar

StartChar: B
Encoding: 66 66 35
Width: 619
Flags: MW
HStem: 0 38<52.7266 72.2266 52.7266 173.727> 371.956 50.0439<194.727 194.727> 727 36<227.727 265.727 51.7266 309.727>
VStem: 110.727 84<64 371.956 86 371.956 422 677> 428.727 91<518.5 612> 466.727 95<148 256 125 260.5>
LayerCount: 2
Fore
SplineSet
265.7265625 763 m 2xf8
 51.7265625 763 l 1
 51.7265625 726 l 1
 100.7265625 726 110.7265625 725 110.7265625 677 c 2
 110.7265625 86 l 2
 110.7265625 42 91.7265625 38 52.7265625 38 c 1
 52.7265625 0 l 1
 173.7265625 0 l 1
 402.7265625 -13 561.7265625 37 561.7265625 213 c 0xf4
 561.7265625 299 487.7265625 365 362.7265625 400 c 1
 427.7265625 414 519.7265625 472 519.7265625 565 c 0
 519.7265625 716 396.7265625 763 265.7265625 763 c 2xf8
194.7265625 422 m 1
 194.7265625 677 l 2
 194.7265625 716 195.7265625 727 259.7265625 727 c 0
 359.7265625 727 428.7265625 662 428.7265625 562 c 0xf8
 428.7265625 441 342.7265625 422 273.7265625 422 c 2
 194.7265625 422 l 1
194.7265625 371.956054688 m 1
 218.944335938 371.76171875 237.288085938 371 261.7265625 371 c 0
 403.7265625 365 466.7265625 311 466.7265625 210 c 0xf4
 466.7265625 86 392.7265625 34 281.7265625 38 c 0
 226.7265625 40 194.7265625 52 194.7265625 86 c 2
 194.7265625 371.956054688 l 1
EndSplineSet
EndChar

StartChar: C
Encoding: 67 67 36
Width: 605
Flags: MW
HStem: -14 52<267.207 397.707> 714 49<246.207 410.707>
VStem: 28.707 105<249 395 249 436.5> 504.707 34<597 634.5>
LayerCount: 2
Fore
SplineSet
357.70703125 763 m 0
 478.70703125 763 538.70703125 721 538.70703125 721 c 1
 538.70703125 597 l 1
 504.70703125 597 l 1
 504.70703125 672 469.70703125 714 351.70703125 714 c 0
 140.70703125 714 133.70703125 479 133.70703125 311 c 0
 133.70703125 187 204.70703125 38 329.70703125 38 c 0
 539.70703125 38 515.70703125 186 515.70703125 186 c 1
 561.70703125 186 l 1
 561.70703125 59 l 1
 561.70703125 59 481.70703125 -14 313.70703125 -14 c 0
 120.70703125 -14 28.70703125 159 28.70703125 328 c 0
 28.70703125 545 79.70703125 763 357.70703125 763 c 0
EndSplineSet
EndChar

StartChar: D
Encoding: 68 68 37
Width: 679
Flags: MW
HStem: 0 35<283.792 294.792 283.792 360.792> 716 47<256.792 274.792 274.792 338.792> 726 37<61.792 86.292>
VStem: 120.792 84<86 677> 516.792 95<309 481.5 241.5 518>
LayerCount: 2
Fore
SplineSet
204.791992188 677 m 2xd8
 204.791992188 86 l 2
 204.791992188 38 272.791992188 35 294.791992188 35 c 0
 513.791992188 38 516.791992188 208 516.791992188 410 c 0
 516.791992188 626 404.791992188 716 272.791992188 716 c 0
 240.791992188 716 204.791992188 721 204.791992188 677 c 2xd8
360.791992188 0 m 2
 62.7919921875 0 l 1
 62.7919921875 38 l 1
 101.791992188 38 120.791992188 42 120.791992188 86 c 2
 120.791992188 677 l 2
 120.791992188 725 110.791992188 726 61.7919921875 726 c 1
 61.7919921875 763 l 1xb8
 274.791992188 763 l 2
 530.791992188 763 611.791992188 618 611.791992188 345 c 0
 611.791992188 138 541.791992188 0 360.791992188 0 c 2
EndSplineSet
EndChar

StartChar: E
Encoding: 69 69 38
Width: 647
Flags: MW
HStem: 0 38<53.1885 77.6885 230.688 242.188 242.188 463.188> 380 50<230.188 232.188 232.188 398.188> 726 37<54.1885 73.6885 250.188 423.188 423.188 476.688>
VStem: 123.188 84<62 357 86 357 357 367.5 479 677> 472.188 36<304 321> 539.188 35<134.5 183>
LayerCount: 2
Fore
SplineSet
472.188476562 304 m 1
 508.188476562 304 l 1
 508.188476562 499 l 1
 476.188476562 499 l 1
 476.188476562 476 469.188476562 430 398.188476562 430 c 2
 232.188476562 430 l 2
 210.188476562 430 207.188476562 462 207.188476562 479 c 2
 207.188476562 677 l 2
 207.188476562 716 250.188476562 726 250.188476562 726 c 1
 423.188476562 726 l 2
 530.188476562 726 534.188476562 657 534.188476562 620 c 1
 570.188476562 620 l 1
 569.188476562 763 l 1
 54.1884765625 763 l 1
 54.1884765625 726 l 1
 93.1884765625 726 123.188476562 721 123.188476562 677 c 2
 123.188476562 86 l 2
 123.188476562 38 102.188476562 38 53.1884765625 38 c 1
 53.1884765625 0 l 1
 574.188476562 0 l 1
 574.188476562 183 l 1
 539.188476562 183 l 1
 539.188476562 86 528.188476562 38 463.188476562 38 c 2
 242.188476562 38 l 2
 219.188476562 38 207.188476562 48 207.188476562 86 c 2
 207.188476562 357 l 2
 207.188476562 378 218.188476562 380 230.188476562 380 c 2
 400.188476562 380 l 2
 462.188476562 380 472.188476562 338 472.188476562 304 c 1
EndSplineSet
EndChar

StartChar: F
Encoding: 70 70 39
Width: 609
Flags: MW
HStem: 0 38<39 63.5 39 263 39 63.5> 380 50<210 384 218 384 384 386> 726 37<40 59.5 221.5 236 236 409>
VStem: 109 84<86 357 465 479 479 677> 458 36<284 301> 520 36<620 638.5>
LayerCount: 2
Fore
SplineSet
458 284 m 1
 458 318 448 380 386 380 c 2
 216 380 l 2
 204 380 193 378 193 357 c 2
 193 86 l 2
 193 42 208 37 263 38 c 1
 263 0 l 1
 39 0 l 1
 39 38 l 1
 88 38 109 38 109 86 c 2
 109 677 l 2
 109 721 79 726 40 726 c 1
 40 763 l 1
 555 763 l 1
 556 620 l 1
 520 620 l 1
 520 657 516 726 409 726 c 2
 236 726 l 2
 207 726 193 716 193 677 c 2
 193 479 l 2
 193 451 194 430 218 430 c 2
 384 430 l 2
 455 430 462 479 462 502 c 1
 494 502 l 1
 494 284 l 1
 458 284 l 1
EndSplineSet
EndChar

StartChar: G
Encoding: 71 71 40
Width: 665
Flags: MW
HStem: -14 52<299.774 408.774 299.774 431.274> 301 35<388.274 448.774> 714 49<278.774 443.274>
VStem: 61.2744 105<249 400 249 436.5> 508.274 63<153 269.5> 538.274 33<597 634.5>
LayerCount: 2
Fore
SplineSet
571.274414062 343 m 1xf4
 388.274414062 336 l 1
 388.274414062 301 l 1
 509.274414062 301 508.274414062 301 508.274414062 238 c 0xf8
 508.274414062 68 455.274414062 38 362.274414062 38 c 0
 237.274414062 38 166.274414062 187 166.274414062 311 c 0
 166.274414062 489 173.274414062 714 384.274414062 714 c 0
 502.274414062 714 538.274414062 672 538.274414062 597 c 1
 571.274414062 597 l 1
 571.274414062 721 l 1
 571.274414062 721 512.274414062 763 391.274414062 763 c 0
 113.274414062 763 61.2744140625 545 61.2744140625 328 c 0
 61.2744140625 159 154.274414062 -14 347.274414062 -14 c 0
 515.274414062 -14 472.274414062 59 571.274414062 59 c 1
 571.274414062 343 l 1xf4
EndSplineSet
EndChar

StartChar: H
Encoding: 72 72 41
Width: 777
Flags: MW
HStem: 0 38<78.1885 97.6885 261.688 281.188 78.1885 97.6885 470.188 489.688 653.688 673.188> 379 57<219.188 528.188 219.188 528.188> 726 37<77.1885 101.688 77.1885 289.188 469.188 493.688>
VStem: 135.188 84<86 379 436 677> 528.188 83<86 379 379 379 436 677>
LayerCount: 2
Fore
SplineSet
135.188476562 677 m 2
 135.188476562 725 126.188476562 726 77.1884765625 726 c 1
 77.1884765625 763 l 1
 289.188476562 763 l 1
 289.188476562 726 l 1
 234.188476562 727 219.188476562 721 219.188476562 677 c 2
 219.188476562 436 l 1
 528.188476562 436 l 1
 528.188476562 677 l 2
 528.188476562 725 518.188476562 726 469.188476562 726 c 1
 469.188476562 763 l 1
 682.188476562 763 l 1
 682.188476562 726 l 1
 627.188476562 727 611.188476562 721 611.188476562 677 c 2
 611.188476562 86 l 2
 611.188476562 38 634.188476562 38 673.188476562 38 c 1
 673.188476562 0 l 1
 470.188476562 0 l 1
 470.188476562 38 l 1
 509.188476562 38 528.188476562 42 528.188476562 86 c 2
 528.188476562 379 l 1
 219.188476562 379 l 1
 219.188476562 86 l 2
 219.188476562 38 242.188476562 38 281.188476562 38 c 1
 281.188476562 0 l 1
 78.1884765625 0 l 1
 78.1884765625 38 l 1
 117.188476562 38 135.188476562 42 135.188476562 86 c 2
 135.188476562 677 l 2
EndSplineSet
EndChar

StartChar: I
Encoding: 73 73 42
Width: 445
Flags: MW
HStem: 0 38<348 378 43 43> 726 37<47 77 47 376>
VStem: 169 84<86 677>
LayerCount: 2
Fore
SplineSet
169 677 m 2
 169 725 107 726 47 726 c 1
 47 763 l 1
 376 763 l 1
 376 726 l 1
 289 727 253 721 253 677 c 2
 253 86 l 2
 253 38 318 38 378 38 c 1
 378 0 l 1
 43 0 l 1
 43 38 l 1
 130 37 169 42 169 86 c 2
 169 677 l 2
EndSplineSet
EndChar

StartChar: J
Encoding: 74 74 43
Width: 654
Flags: MW
HStem: -13 51<173.5 278 161.5 285.5> 726 37<255 285 255 584>
VStem: 24 122 377 84<176 239 239 656>
LayerCount: 2
Fore
SplineSet
377 677 m 2
 377 725 315 726 255 726 c 1
 255 763 l 1
 584 763 l 1
 584 726 l 1
 497 727 461 719 461 656 c 2
 461 239 l 2
 461 58 344 -13 227 -13 c 0
 120 -13 24 39 24 173 c 0
 24 197 40 227 77 227 c 0
 113 227 150 198 146 167 c 0
 140 121 94 38 229 38 c 0
 327 38 377 102 377 176 c 2
 377 677 l 2
EndSplineSet
EndChar

StartChar: K
Encoding: 75 75 44
Width: 719
Flags: MW
HStem: 0 38<71.9805 91.4805 269.48 288.98 71.9805 91.4805> 726 37<84.9805 109.48 84.9805 296.98>
VStem: 142.98 84<86 381.632 427.215 677>
LayerCount: 2
Fore
SplineSet
142.98046875 677 m 2
 142.98046875 725 133.98046875 726 84.98046875 726 c 1
 84.98046875 763 l 1
 296.98046875 763 l 1
 296.98046875 726 l 1
 241.98046875 727 226.98046875 721 226.98046875 677 c 2
 226.98046875 427.21484375 l 1
 424.98046875 665 l 2
 454.98046875 706 440.98046875 727 413.98046875 727 c 1
 413.98046875 763 l 1
 638.98046875 763 l 1
 638.98046875 729 l 1
 549.98046875 729 529.98046875 716 488.98046875 669 c 2
 305.98046875 443 l 1
 550.98046875 71 l 1
 550.98046875 71 567.98046875 35 619.98046875 50 c 1
 625.98046875 17 l 1
 578.98046875 -3 567.98046875 -6 539.98046875 -6 c 0
 511.98046875 -6 470.98046875 5 449.98046875 42 c 2
 226.98046875 381.631835938 l 1
 226.98046875 86 l 2
 226.98046875 38 249.98046875 38 288.98046875 38 c 1
 288.98046875 0 l 1
 71.98046875 0 l 1
 71.98046875 38 l 1
 110.98046875 38 142.98046875 42 142.98046875 86 c 2
 142.98046875 677 l 2
EndSplineSet
EndChar

StartChar: L
Encoding: 76 76 45
Width: 634
Flags: MW
HStem: 0 38<60.1885 79.6885 256.188 380.688> 726 37<59.1885 83.6885 59.1885 283.188>
VStem: 129.188 84<64 677 86 677> 520.188 36<136 234>
LayerCount: 2
Fore
SplineSet
213.188476562 86 m 2
 213.188476562 677 l 2
 213.188476562 721 228.188476562 727 283.188476562 726 c 1
 283.188476562 763 l 1
 59.1884765625 763 l 1
 59.1884765625 726 l 1
 108.188476562 726 129.188476562 725 129.188476562 677 c 2
 129.188476562 86 l 2
 129.188476562 42 99.1884765625 38 60.1884765625 38 c 1
 60.1884765625 0 l 1
 552.188476562 0 l 1
 556.188476562 234 l 1
 520.188476562 234 l 1
 520.188476562 38 505.188476562 38 256.188476562 38 c 1
 256.188476562 38 213.188476562 38 213.188476562 86 c 2
EndSplineSet
EndChar

StartChar: M
Encoding: 77 77 46
Width: 880
Flags: MW
HStem: 0 38<50.1885 69.6885 197.688 217.188 603.188 622.688 786.688 806.188> 726 37<50.1885 65.7363>
VStem: 107.188 48<64 598.721 86 598.721 86 703.38> 660.188 84<64 677 86 636>
LayerCount: 2
Fore
SplineSet
189.188476562 763 m 1
 50.1884765625 763 l 1
 50.1884765625 726 l 1
 81.2841796875 726 95.2158203125 719.642578125 107.188476562 703.379882812 c 1
 107.188476562 86 l 2
 107.188476562 42 89.1884765625 38 50.1884765625 38 c 1
 50.1884765625 0 l 1
 217.188476562 0 l 1
 217.188476562 38 l 1
 178.188476562 38 155.188476562 38 155.188476562 86 c 2
 155.188476562 598.720703125 l 1
 237.822265625 407.004882812 394.188476562 135 394.188476562 135 c 1
 431.188476562 135 l 1
 660.188476562 636 l 1
 660.188476562 86 l 2
 660.188476562 42 642.188476562 38 603.188476562 38 c 1
 603.188476562 0 l 1
 806.188476562 0 l 1
 806.188476562 38 l 1
 767.188476562 38 744.188476562 38 744.188476562 86 c 2
 744.188476562 677 l 2
 744.188476562 721 760.188476562 727 815.188476562 726 c 1
 815.188476562 763 l 1
 659.188476562 763 l 2
 654.188476562 763 646.188476562 753 638.188476562 731 c 2
 427.188476562 262 l 1
 189.188476562 763 l 1
EndSplineSet
EndChar

StartChar: N
Encoding: 78 78 47
Width: 777
Flags: MW
HStem: 0 38<58.1885 77.6885 203.688 223.188> 726 37<43.1885 62.6885 575.188 599.688>
VStem: 116.188 45<64 628 86 628 86 677> 634.188 45<158.44 677 158.44 158.44>
LayerCount: 2
Fore
SplineSet
679.188476562 86 m 2
 679.188476562 677 l 2
 679.188476562 721 695.188476562 727 750.188476562 726 c 1
 750.188476562 763 l 1
 575.188476562 763 l 1
 575.188476562 726 l 1
 624.188476562 726 634.188476562 725 634.188476562 677 c 2
 634.188476562 158.440429688 l 1
 174.188476562 763 l 1
 43.1884765625 763 l 1
 43.1884765625 726 l 1
 82.1884765625 726 116.188476562 725 116.188476562 677 c 2
 116.188476562 86 l 2
 116.188476562 42 97.1884765625 38 58.1884765625 38 c 1
 58.1884765625 0 l 1
 223.188476562 0 l 1
 223.188476562 38 l 1
 184.188476562 38 161.188476562 38 161.188476562 86 c 2
 161.188476562 628 l 1
 635.188476562 0 l 1
 678.188476562 0 l 1
 679.188476562 76 l 1
 678.610351562 77.05859375 l 2
 678.987304688 79.80859375 679.188476562 82.7880859375 679.188476562 86 c 2
EndSplineSet
EndChar

StartChar: O
Encoding: 79 79 48
Width: 764
Flags: MW
HStem: -14 53<327.5 446.5 327.5 448.5> 724 48<264 397>
VStem: 563 90<252.5 442 252.5 443>
LayerCount: 2
Fore
SplineSet
376 772 m 0
 97 772 24.9892578125 542.735351562 56 314 c 0
 78.3525390625 149.123046875 190 -14 353 -14 c 0
 544 -14 653 153 653 352 c 0
 653 532 595 772 376 772 c 0
319 724 m 0
 475 724 563 541 563 345 c 0
 563 160 499 39 394 39 c 0
 261 39 171.3359375 203.009765625 154 318 c 0
 110.998046875 603.236328125 209 724 319 724 c 0
EndSplineSet
EndChar

StartChar: P
Encoding: 80 80 49
Width: 640
Flags: MW
HStem: 0 38<35 54.5 219.5 239> 271 50<261.508 329 261.508 341> 716 47<34 315> 726 37<34 58.5>
VStem: 93 84<64 299.123 86 299.123 364.682 677> 463 95<479 596>
LayerCount: 2
Fore
SplineSet
248 763 m 2xec
 34 763 l 1
 34 726 l 1xdc
 83 726 93 725 93 677 c 2
 93 86 l 2
 93 42 74 38 35 38 c 1
 35 0 l 1
 239 0 l 1
 239 38 l 1
 200 38 177 38 177 86 c 2
 177 299.123046875 l 1
 211.151367188 272.41796875 239.114257812 271 277 271 c 0
 405 271 558 359 558 545 c 0
 558 716 413 763 248 763 c 2xec
177 364.681640625 m 1
 177 677 l 2
 177 721 230 716 268 716 c 0xec
 362 716 463 647 463 545 c 0
 463 413 376 321 282 321 c 0
 241.016601562 321 219.110351562 317.682617188 177 364.681640625 c 1
EndSplineSet
EndChar

StartChar: Q
Encoding: 81 81 50
Width: 675
Flags: MW
HStem: -12.8965 48.8965 732 49<255.5 399>
VStem: 28 92 531 86<279.26 438.5>
LayerCount: 2
Fore
SplineSet
340 781 m 4
 75 781 18 534 28 315 c 4
 35.8828125 151.43359375 131.146484375 -8.2490234375 309.005859375 -12.896484375 c 5
 458 -195 l 6
 503 -245 503 -245 559 -244 c 4
 619 -244 592 -220 592 -220 c 5
 592 -220 570.9609375 -197.20703125 397.557617188 -3.8818359375 c 5
 564.454101562 36.716796875 617 205.520507812 617 353 c 4
 617 533 570 781 340 781 c 4
323 732 m 4
 475 732 531 531 531 346 c 4
 531 161 456 36 325 36 c 4
 158 36 120 269 120 336 c 4
 120 575 188 732 323 732 c 4
EndSplineSet
EndChar

StartChar: R
Encoding: 82 82 51
Width: 705
Flags: MW
HStem: 0 38<37 56.5 221.5 241 37 56.5> 330.163 46.3867 726 37<36 60.5>
VStem: 95 84<86 330.163 376.55 677> 429 84<484.264 583.5>
LayerCount: 2
Fore
SplineSet
179 330.163085938 m 1
 179 86 l 2
 179 38 202 38 241 38 c 1
 241 0 l 1
 37 0 l 1
 37 38 l 1
 76 38 95 42 95 86 c 2
 95 677 l 2
 95 725 85 726 36 726 c 1
 36 763 l 1
 302 763 l 2
 477 763 513 624 513 545 c 0
 513 423.528320312 443.092773438 370.685546875 353.416015625 347.69921875 c 1
 529 71 l 1
 529 71 558 35 610 50 c 1
 616 17 l 1
 569 -3 566 -6 538 -6 c 0
 510 -6 469 5 448 42 c 2
 266.204101562 333.806640625 l 1
 237.071289062 331.331054688 207.551757812 330.46484375 179 330.163085938 c 1
179 376.549804688 m 1
 341.276367188 380.87109375 429 412.748046875 429 545 c 0
 429 622 375 729 249 729 c 0
 215 729 179 721 179 677 c 2
 179 376.549804688 l 1
EndSplineSet
EndChar

StartChar: S
Encoding: 83 83 52
Width: 620
Flags: MW
HStem: -13 51<253.792 358.292> 714 49
VStem: 63.292 44<209 209> 65.292 93<473.5 612.5> 482.292 33<597 634.5> 493.292 93<150.5 294>
LayerCount: 2
Fore
SplineSet
328.291992188 714 m 0xd4
 446.291992188 712 482.291992188 672 482.291992188 597 c 1
 515.291992188 597 l 1
 515.291992188 721 l 1
 515.291992188 721 456.291992188 763 335.291992188 763 c 0
 160.291992188 763 65.2919921875 680 65.2919921875 545 c 0xd8
 65.2919921875 294 493.291992188 387 493.291992188 201 c 0
 493.291992188 100 426.291992188 38 290.291992188 38 c 0
 192.291992188 38 107.291992188 86 107.291992188 211 c 1
 63.2919921875 209 l 1xe4
 65.2919921875 38 l 1
 139.291992188 -12 207.291992188 -13 300.291992188 -13 c 0
 449.291992188 -13 586.291992188 65 586.291992188 215 c 0
 586.291992188 488 158.291992188 365 158.291992188 582 c 0
 158.291992188 667 222.291992188 716 328.291992188 714 c 0xd4
EndSplineSet
EndChar

StartChar: T
Encoding: 84 84 53
Width: 575
Flags: MW
HStem: 0 38<209.396 228.896 392.896 412.396> 716 47<137.396 214.896 418.896 486.396>
VStem: 40.3965 65<581 625.5 581 763 581 625.5> 267.396 83<64 677 86 677> 536.396 53<579 619>
LayerCount: 2
Fore
SplineSet
589.396484375 763 m 1
 40.396484375 763 l 1
 40.396484375 581 l 1
 105.396484375 581 l 1
 105.396484375 670 112.396484375 716 162.396484375 716 c 0
 267.396484375 716 267.396484375 716 267.396484375 677 c 2
 267.396484375 86 l 2
 267.396484375 42 248.396484375 38 209.396484375 38 c 1
 209.396484375 0 l 1
 412.396484375 0 l 1
 412.396484375 38 l 1
 373.396484375 38 350.396484375 38 350.396484375 86 c 2
 350.396484375 677 l 2
 350.396484375 716 351.396484375 716 486.396484375 716 c 0
 525.396484375 714 536.396484375 659 536.396484375 579 c 1
 589.396484375 579 l 1
 589.396484375 763 l 1
EndSplineSet
EndChar

StartChar: U
Encoding: 85 85 54
Width: 719
Flags: MW
HStem: -13 65<274.5 409.5 274.5 446> 726 37<38.5 63 38.5 251.5 421.5 446>
VStem: 97.5 84<216 677 275 677> 480.5 84<232 677 275 677>
LayerCount: 2
Fore
SplineSet
181.5 275 m 2
 181.5 677 l 2
 181.5 721 196.5 727 251.5 726 c 1
 251.5 763 l 1
 38.5 763 l 1
 38.5 726 l 1
 87.5 726 97.5 725 97.5 677 c 2
 97.5 275 l 2
 97.5 157 117.5 -13 343.5 -13 c 0
 548.5 -13 564.5 153 564.5 275 c 2
 564.5 677 l 2
 564.5 721 579.5 727 634.5 726 c 1
 634.5 763 l 1
 421.5 763 l 1
 421.5 726 l 1
 470.5 726 480.5 725 480.5 677 c 2
 480.5 275 l 2
 480.5 189 475.5 52 343.5 52 c 0
 205.5 52 181.5 174 181.5 275 c 2
EndSplineSet
EndChar

StartChar: V
Encoding: 86 86 55
Width: 794
Flags: MW
HStem: 726 37<15 35 15 242 531 550>
LayerCount: 2
Fore
SplineSet
650 679 m 2
 665 715 711 725 755 726 c 1
 755 763 l 1
 531 763 l 1
 531 726 l 1
 569 726 598 716 589 679 c 2
 393 86 l 1
 172 677 l 1
 151.892578125 717.46484375 176 727 242 726 c 1
 242 763 l 1
 15 763 l 1
 15 726 l 1
 55 726 54 716.099609375 74 677 c 1
 319 14 l 2
 322 3 324 0 334 0 c 2
 403 0 l 2
 417 0 412 0 427 38 c 2
 650 679 l 2
EndSplineSet
EndChar

StartChar: W
Encoding: 87 87 56
Width: 972
Flags: MW
HStem: 726 37<22 43.5 22 217 773 792>
LayerCount: 2
Fore
SplineSet
675 14 m 2
 678 3 679 0 689 0 c 2
 721 0 l 2
 735 0 732 0 736 38 c 2
 863 679 l 2
 873 715 893 725 937 726 c 1
 937 763 l 1
 773 763 l 1
 773 726 l 1
 811 726 817 716 813 679 c 2
 711 153 l 1
 518 681 l 1
 487 681 l 1
 278 169 l 1
 160 677 l 1
 157 720 163 727 217 726 c 1
 217 763 l 1
 22 763 l 1
 22 726 l 1
 65 726 68 725 73 677 c 1
 211 14 l 2
 214 3 215 0 225 0 c 2
 263 0 l 2
 277 0 275 0 287 38 c 2
 478 504 l 1
 675 14 l 2
EndSplineSet
EndChar

StartChar: X
Encoding: 88 88 57
Width: 755
Flags: MW
HStem: 0 38<77.7725 97.2725 275.272 294.772 77.7725 97.2725> 17 33<665.772 671.772> 726 37<86.7725 106.272 439.772 458.772>
LayerCount: 2
Fore
SplineSet
597.772460938 71 m 2xa0
 612.772460938 47 614.772460938 37 665.772460938 50 c 1
 671.772460938 17 l 1x60
 610.772460938 -3 582.772460938 -6 543.772460938 -6 c 0
 525.772460938 -6 509.772460938 13 495.772460938 42 c 2
 495.772460938 42 433.28515625 171.122070312 361.666992188 319.745117188 c 1
 232.772460938 86 l 1
 200.772460938 38 255.772460938 38 294.772460938 38 c 1
 294.772460938 0 l 1
 77.7724609375 0 l 1
 77.7724609375 38 l 1
 116.772460938 38 134.772460938 42 166.772460938 86 c 1
 332.057617188 381.223632812 l 1
 276.075195312 497.532226562 218.995117188 616.528320312 184.772460938 689 c 1
 161.772460938 722 125.772460938 726 86.7724609375 726 c 1
 86.7724609375 763 l 1
 268.772460938 763 l 1
 395.990234375 495.416992188 l 1
 498.772460938 679 l 1
 514.772460938 716 477.772460938 726 439.772460938 726 c 1
 439.772460938 763 l 1
 664.772460938 763 l 1
 664.772460938 726 l 1
 620.772460938 725 581.772460938 715 559.772460938 679 c 2
 424.950195312 434.504882812 l 1
 597.772460938 71 l 2xa0
EndSplineSet
EndChar

StartChar: Y
Encoding: 89 89 58
Width: 734
Flags: MW
HStem: 0 38<227.188 246.688 452.688 472.188> 729 34<620.688 665.188>
VStem: 305.188 84<64 331.583 86 331.583 86 333>
LayerCount: 2
Fore
SplineSet
305.188476562 86 m 2
 305.188476562 42 266.188476562 38 227.188476562 38 c 1
 227.188476562 0 l 1
 472.188476562 0 l 1
 472.188476562 38 l 1
 433.188476562 38 389.188476562 38 389.188476562 86 c 2
 389.188476562 331.583007812 l 1
 543.188476562 652 l 1
 575.188476562 699 576.188476562 729 665.188476562 729 c 1
 665.188476562 763 l 1
 440.188476562 763 l 1
 440.188476562 727 l 1
 532.188476562 727 500.188476562 689 479.188476562 648 c 2
 362.440429688 411.171875 l 1
 188.188476562 763 l 1
 56.1884765625 763 l 1
 56.1884765625 726 l 1
 96.1884765625 726 104.188476562 716 120.188476562 687 c 2
 305.188476562 333 l 1
 305.188476562 86 l 2
EndSplineSet
EndChar

StartChar: Z
Encoding: 90 90 59
Width: 613
Flags: MW
HStem: 0 76<172.98 427.98 427.98 459.48 172.98 559.98> 692 71<184.48 196.98 196.98 322.98 322.98 456.98>
VStem: 126.98 38<603 627 603 672.5> 522.98 47<151 216>
LayerCount: 2
Fore
SplineSet
322.98046875 763 m 1
 536.98046875 763 l 1
 536.98046875 715 l 1
 172.98046875 76 l 1
 427.98046875 76 l 2
 490.98046875 76 522.98046875 86 522.98046875 216 c 1
 569.98046875 216 l 1
 559.98046875 0 l 1
 84.98046875 0 l 1
 83.98046875 38 l 1
 456.98046875 692 l 1
 196.98046875 692 l 2
 171.98046875 692 164.98046875 651 164.98046875 603 c 1
 126.98046875 603 l 1
 126.98046875 742 130.98046875 763 165.98046875 763 c 2
 322.98046875 763 l 1
EndSplineSet
EndChar

StartChar: bracketleft
Encoding: 91 91 60
Width: 724
Flags: MW
HStem: -185 38<436 466> 753 38<259 464>
VStem: 259 82<-99 705 705 727 -99 791>
LayerCount: 2
Fore
SplineSet
466 -185 m 1
 466 -147 l 1
 406 -147 341 -147 341 -99 c 2
 341 705 l 2
 341 749 377 754 464 753 c 1
 464 791 l 1
 259 791 l 1
 259 -186 l 1
 466 -185 l 1
EndSplineSet
EndChar

StartChar: backslash
Encoding: 92 92 61
Width: 455
Flags: W
LayerCount: 2
Fore
SplineSet
421 -99 m 1
 370 -111 l 1
 37 763 l 1
 89 776 l 1
 421 -99 l 1
EndSplineSet
EndChar

StartChar: bracketright
Encoding: 93 93 62
Width: 724
Flags: MW
HStem: -185 38<259 289> 753 38<261 466>
VStem: 384 82<-99 705 705 727>
LayerCount: 2
Fore
SplineSet
259 -185 m 1
 259 -147 l 1
 319 -147 384 -147 384 -99 c 2
 384 705 l 2
 384 749 348 754 261 753 c 1
 261 791 l 1
 466 791 l 1
 466 -186 l 1
 259 -185 l 1
EndSplineSet
EndChar

StartChar: asciicircum
Encoding: 94 94 63
Width: 532
Flags: MW
HStem: 691 107<250 262 262 273>
LayerCount: 2
Fore
SplineSet
46 624 m 1
 234 819 225 798 246 798 c 2
 280 798 l 2
 297 798 287 809 487 625 c 1
 429 590 l 1
 290 680 291 691 273 691 c 2
 262 691 l 2
 238 691 227 681 95 582 c 1
 46 624 l 1
EndSplineSet
EndChar

StartChar: underscore
Encoding: 95 95 64
Width: 569
Flags: W
LayerCount: 2
Fore
SplineSet
569 -1 m 1
 569 50 l 1
 0 51 l 1
 0 0 l 1
 569 -1 l 1
EndSplineSet
EndChar

StartChar: grave
Encoding: 96 96 65
Width: 643
Flags: MW
HStem: 684 81
LayerCount: 2
Fore
SplineSet
472 586 m 1
 453 556 l 1
 453 556 222 646 122 684 c 0
 101 692 95 711 96 724 c 0
 99 755 117 765 150 765 c 0
 206 765 472 586 472 586 c 1
EndSplineSet
EndChar

StartChar: a
Encoding: 97 97 66
Width: 632
Flags: MW
HStem: -12 53<232.585 270.526> 247.994 42.0039<405.585 405.585> 506 40<323.585 356.085 273.585 367.585>
VStem: 80.585 101<106.5 171.583 106.5 176.264> 114.585 96 405.585 98<156.928 247.994 247.994 247.994 289.998 395 395 406>
LayerCount: 2
Fore
SplineSet
114.584960938 417 m 0xec
 135.584960938 485 224.584960938 546 322.584960938 546 c 0
 389.584960938 546 503.584960938 535 503.584960938 406 c 2
 503.584960938 121 l 2
 503.584960938 88 504.584960938 74 533.584960938 76 c 0
 554.584960938 78 600.584960938 97 600.584960938 97 c 1
 605.546875 66.2333984375 l 2
 603.603515625 71.408203125 553.584960938 -13 471.584960938 -13 c 0
 425.9765625 -13 411.326171875 34.4375 407.033203125 64.98046875 c 1
 373.396484375 13.955078125 311.467773438 -12 229.584960938 -12 c 0
 126.584960938 -11 80.5849609375 43 80.5849609375 110 c 0xf4
 80.5849609375 242.528320312 218.599609375 289.665039062 405.584960938 289.998046875 c 1
 405.584960938 395 l 2
 405.584960938 454 411.584960938 506 323.584960938 506 c 0
 230.584960938 505 221.584960938 443 210.584960938 404 c 0
 199.584960938 358 183.584960938 345 151.584960938 354 c 0
 130.584960938 362 106.584960938 378 114.584960938 417 c 0xec
605.546875 66.2333984375 m 2
 605.546875 66.2333984375 605.584960938 66 605.584960938 66 c 2
 605.584960938 66.0888671875 605.572265625 66.1669921875 605.546875 66.2333984375 c 2
405.584960938 156.927734375 m 1
 405.584960938 247.994140625 l 1
 286.807617188 247.561523438 181.584960938 221.166015625 181.584960938 122 c 0
 181.584960938 91 203.584960938 41 261.584960938 41 c 0
 345.36328125 41 392.130859375 93.705078125 405.584960938 156.927734375 c 1
EndSplineSet
EndChar

StartChar: b
Encoding: 98 98 67
Width: 590
Flags: MW
HStem: -10 35<262.5 282 262.5 379> 468 63<321 343.5>
VStem: 106 98<76 418.024 477 690 38 418.024> 464 94<196 341.5>
LayerCount: 2
Fore
SplineSet
204 477 m 1
 204 712 l 2
 204 752 197 780 159 780 c 0
 129 780 30 742 30 742 c 1
 43 716 l 1
 78 716 106 715 106 690 c 2
 106 38 l 1
 166 1 218 -10 287 -10 c 0
 471 -10 558 113 558 279 c 0
 558 426 483 531 344 531 c 0
 298 531 248 511 204 477 c 1
204 418.024414062 m 1
 225.698242188 450.125 253.352539062 468 297 468 c 0
 390 468 464 407 464 276 c 0
 464 109 386 26 282 25 c 0
 243 25 204 53 204 76 c 2
 204 418.024414062 l 1
EndSplineSet
EndChar

StartChar: c
Encoding: 99 99 68
Width: 552
Flags: MW
HStem: -13 76<279 337> 497 48<222 299.5>
LayerCount: 2
Fore
SplineSet
283 545 m 0
 384 545 499 519 499 464 c 0
 499 424 465 405 436 405 c 0
 398 405 388 448 352 472 c 0
 332 485 320 497 279 497 c 0
 110 497 96 351 116 251 c 0
 138 130 215 63 343 63 c 0
 413 63 452 85 504 120 c 1
 528 100 l 1
 473 29 383 -13 291 -13 c 0
 131 -13 32 130 32 256 c 0
 32 449 161 545 283 545 c 0
EndSplineSet
EndChar

StartChar: d
Encoding: 100 100 69
Width: 711
Flags: MW
HStem: -14 66<281.585 321.401> -1 21G<481.138 498.585> 525 20G<239.085 353.896> 716 27<344.585 354.585> 722 58<409.585 515.085>
VStem: 73.585 84<191.5 332.5> 453.585 98<166.301 426.337 426.337 426.337 508.473 676 676 686>
LayerCount: 2
Fore
SplineSet
453.584960938 676 m 2xa6
 453.584960938 696 442.584960938 722 409.584960938 722 c 2xae
 409.584960938 722 384.584960938 721 354.584960938 716 c 1
 344.584960938 743 l 1x36
 419.584960938 766 468.584960938 780 497.584960938 780 c 0x2e
 532.584960938 780 551.584960938 766 551.584960938 716 c 2
 551.584960938 118 l 2
 551.584960938 85 552.584960938 71 581.584960938 73 c 0
 602.584960938 75 641.584960938 94 641.584960938 94 c 1
 653.584960938 63 l 1
 653.584960938 63 575.584960938 0 498.584960938 -1 c 0x76
 463.690429688 -1 459.921875 29.8173828125 455.303710938 60.029296875 c 1
 416.278320312 16.05859375 363.217773438 -14 279.584960938 -14 c 0
 188.584960938 -14 73.5849609375 86 73.5849609375 256 c 0
 73.5849609375 409 153.584960938 545 324.584960938 545 c 0
 383.20703125 545 424.577148438 529.104492188 453.584960938 508.47265625 c 1
 453.584960938 676 l 2xa6
376.584960938 495 m 0
 254.584960938 539 157.584960938 457 157.584960938 251 c 0
 157.584960938 132 241.584960938 52 321.584960938 52 c 0
 402.27734375 52 439.116210938 94.833984375 453.584960938 166.30078125 c 1
 453.584960938 426.336914062 l 1
 445.177734375 454.438476562 425 477.708984375 376.584960938 495 c 0
EndSplineSet
EndChar

StartChar: e
Encoding: 101 101 70
Width: 634
Flags: MW
HStem: -13 62<305.688 400.188> 280 44 504 41<326.188 369.688>
VStem: 64.1885 89.8906<280.975 280.975 280.975 343.5> 477.188 92<324 362>
LayerCount: 2
Fore
SplineSet
537.188476562 156 m 1
 562.188476562 143 l 1
 536.188476562 79 476.188476562 -13 324.188476562 -13 c 0
 206.188476562 -13 64.1884765625 71 64.1884765625 281 c 0
 64.1884765625 406 141.188476562 545 336.188476562 545 c 0
 477.188476562 545 569.188476562 450 569.188476562 322 c 0
 568.188476562 277 574.188476562 280 529.188476562 280 c 2
 154.079101562 280.974609375 l 1
 155.366210938 258.26953125 159.272460938 234.215820312 166.188476562 209 c 0
 198.188476562 121 245.188476562 49 366.188476562 49 c 0
 452.188476562 49 520.188476562 129 537.188476562 156 c 1
155.014648438 325.87890625 m 1
 477.188476562 324 l 1
 477.188476562 400 413.188476562 504 326.188476562 504 c 0
 242.190429688 503.243164062 166.209960938 434.9140625 155.014648438 325.87890625 c 1
EndSplineSet
EndChar

StartChar: f
Encoding: 102 102 71
Width: 487
Flags: MW
HStem: 0 38<38.9365 82.4365 378.437 418.937 38.9365 82.4365> 465 53<346.937 444.937>
VStem: 162.937 98
LayerCount: 2
Fore
SplineSet
262.936523438 86 m 2
 262.936523438 38 337.936523438 38 418.936523438 38 c 1
 418.936523438 0 l 1
 38.9365234375 0 l 1
 38.9365234375 38 l 1
 125.936523438 38 164.936523438 42 164.936523438 86 c 2
 163.936523438 467 l 1
 34.9365234375 468 l 1
 34.9365234375 518 l 1
 155.936523438 518 162.936523438 518 162.936523438 536 c 2
 162.936523438 601 l 2
 162.936523438 704 210.936523438 800 386.936523438 785 c 0
 438.936523438 781 485.936523438 766 510.936523438 720 c 0
 526.936523438 688 492.936523438 664 456.936523438 664 c 0
 394.936523438 664 378.936523438 729 317.936523438 737 c 0
 278.936523438 742 260.936523438 701 259.936523438 653 c 2
 260.936523438 538 l 2
 260.936523438 518 248.936523438 518 444.936523438 518 c 1
 444.936523438 465 l 1
 260.936523438 465 l 1
 262.936523438 86 l 2
EndSplineSet
EndChar

StartChar: g
Encoding: 103 103 72
Width: 532
Flags: MW
VStem: 22 86<-91.5 -53.6006> 419 95<-64 -15.8633>
LayerCount: 2
Fore
SplineSet
275 545 m 0
 171 545 74 467 79 363 c 0
 81.998046875 302.43359375 112.685546875 245.823242188 159.41796875 210.204101562 c 1
 124.294921875 178.809570312 95.4658203125 144.9609375 103 112 c 0
 108.028320312 91.232421875 125.958984375 76.486328125 150.912109375 65.138671875 c 1
 88.58203125 25.0419921875 22 -35.201171875 22 -72 c 0
 22 -153 132 -191 229 -191 c 0
 341 -191 514 -126 514 -41 c 0
 514 115 164 51 173 153 c 0
 174.853515625 170.60546875 182.716796875 184.776367188 211.706054688 181.98828125 c 1
 230.287109375 175.534179688 250.192382812 172 271 172 c 0
 376 172 465 247 459 352 c 0
 456.045898438 405.588867188 442.587890625 448.31640625 419.676757812 479.806640625 c 1
 434.567382812 481.221679688 470.836914062 484 526 484 c 1
 527 529 l 1
 473.213867188 525.291015625 402.228515625 516.421875 361.095703125 527.912109375 c 1
 336.548828125 539.26171875 307.73046875 545 275 545 c 0
224 497 m 0
 305 518 359 429 364 355 c 0
 369 293 355 245 315 227 c 0
 214 182 173 308 166 356 c 0
 157 421 164 481 224 497 c 0
206.02734375 46.8115234375 m 1
 298.53515625 23.1533203125 419 14.2734375 419 -46 c 0
 419 -82 380 -99 350 -113 c 0
 268 -150 108 -132 108 -51 c 0
 108 -23.8955078125 137.047851562 14.4521484375 206.02734375 46.8115234375 c 1
EndSplineSet
EndChar

StartChar: h
Encoding: 104 104 73
Width: 621
Flags: MW
HStem: 0 38<46 76 232 251 46 76 379 402 564 583> 491 54<349.537 356>
VStem: 109 98<74 86> 431 98<86 356 356 359>
LayerCount: 2
Fore
SplineSet
431 356 m 2
 431 465 375 491 337 491 c 0
 278 491 208 402 208 333 c 1
 207.79296875 333.537109375 l 1
 207 86 l 2
 207 42 213 38 251 38 c 1
 251 0 l 1
 46 0 l 1
 46 38 l 1
 106 38 109 62 109 86 c 2
 110 670 l 2
 110 704 86 729 44 714 c 1
 22 742 l 1
 68 763 106 774 160 774 c 1
 160 774 209.182617188 766.999023438 209 710 c 2
 208.196289062 459.373046875 l 1
 254.694335938 520.012695312 315.073242188 545 384 545 c 0
 432 545 529 533 529 359 c 2
 529 86 l 2
 529 42 545 38 583 38 c 1
 583 0 l 1
 379 0 l 1
 379 38 l 1
 425 38 431 62 431 86 c 2
 431 356 l 2
EndSplineSet
EndChar

StartChar: i
Encoding: 105 105 74
Width: 401
Flags: MW
HStem: 0 38<323.188 353.188 71.1885 71.1885> 519 20G<224.188 259.188> 645 132<206.688 243.688>
VStem: 159.188 132<692.5 729.5> 182.188 98<416 509>
LayerCount: 2
Fore
SplineSet
278.188476562 86 m 2xe8
 278.188476562 22 293.188476562 38 353.188476562 38 c 1
 353.188476562 0 l 1
 71.1884765625 0 l 1
 71.1884765625 38 l 1
 167.188476562 37 180.188476562 23 180.188476562 86 c 2
 182.188476562 416 l 2
 182.188476562 481 172.188476562 481 111.188476562 481 c 1
 111.188476562 518 l 1
 111.188476562 518 206.188476562 539 242.188476562 539 c 0
 276.188476562 539 280.188476562 528 280.188476562 490 c 2
 278.188476562 86 l 2xe8
159.188476562 711 m 0xf0
 159.188476562 748 188.188476562 777 225.188476562 777 c 0
 262.188476562 777 291.188476562 748 291.188476562 711 c 0
 291.188476562 674 262.188476562 645 225.188476562 645 c 0
 188.188476562 645 159.188476562 674 159.188476562 711 c 0xf0
EndSplineSet
EndChar

StartChar: j
Encoding: 106 106 75
Width: 295
Flags: MW
HStem: -196 68<51.5 69> 645 132<171.5 208.5>
VStem: 124 133<692.5 729.5> 143 98<86 416 76 490>
LayerCount: 2
Fore
SplineSet
241 86 m 2xd0
 241 490 l 2
 241 528 237 540 203 540 c 0
 167 540 82 523 82 523 c 1
 82 481 l 1
 123 481 143 481 143 416 c 2
 143 76 l 2
 142 -106 122 -128 75 -128 c 0
 28 -128 35 -96 -21 -96 c 0
 -62 -97 -90 -119 -90 -148 c 0
 -90 -175 -51 -196 -8 -196 c 0
 146 -196 241 -65 241 86 c 2xd0
124 711 m 0xe0
 124 748 153 777 190 777 c 0
 227 777 257 748 257 711 c 0
 257 674 227 645 190 645 c 0
 153 645 124 674 124 711 c 0xe0
EndSplineSet
EndChar

StartChar: k
Encoding: 107 107 76
Width: 595
Flags: MW
HStem: 0 38<252.5 266.5> 495 37<533.5 550.5>
VStem: 125.5 89<64 237 86 237 325.395 684>
LayerCount: 2
Fore
SplineSet
1.5 740 m 1
 7.5 709 l 1
 7.5 709 125.5 728 125.5 684 c 2
 125.5 86 l 2
 125.5 42 95.5 37 50.5 38 c 1
 50.5 0 l 1
 266.5 0 l 1
 266.5 38 l 1
 238.5 38 214.5 38 214.5 86 c 2
 214.5 237 l 1
 241.693359375 264.193359375 l 1
 416.5 32 l 2
 442.5 3 458.5 -7 486.5 -7 c 0
 545.5 -7 582.5 15 582.5 15 c 1
 576.5 48 l 1
 535.5 40 512.5 39 496.5 56 c 2
 303.817382812 326.317382812 l 1
 439.5 462 l 2
 466.5 491 511.5 495 550.5 495 c 1
 551.5 532 l 1
 515.5 532 508.5 531 468.5 529 c 0
 415.5 526 371.5 481 337.5 446 c 0
 301.038085938 409.104492188 254.967773438 364.295898438 214.5 325.39453125 c 1
 214.5 716 l 2
 214.5 775 202.5 780 178.5 780 c 0
 145.5 780 40.5 742 1.5 740 c 1
EndSplineSet
EndChar

StartChar: l
Encoding: 108 108 77
Width: 387
Flags: MW
HStem: 0 38<314.5 339.5 49.5 49.5> 760 20G<199 227.5>
VStem: 144.5 102<86 684 684 706>
LayerCount: 2
Fore
SplineSet
50.5 740 m 1
 89.5 742 182.5 780 215.5 780 c 0
 239.5 780 246.5 775 246.5 716 c 2
 246.5 86 l 2
 246.5 38 289.5 38 339.5 38 c 1
 339.5 0 l 1
 49.5 0 l 1
 49.5 38 l 1
 116.5 37 144.5 42 144.5 86 c 2
 144.5 684 l 2
 144.5 728 55.5 709 55.5 709 c 1
 50.5 740 l 1
EndSplineSet
EndChar

StartChar: m
Encoding: 109 109 78
Width: 941
Flags: MW
HStem: 0 38<48 78 245 264 48 78 386 409 581 600 704 727 899 918> 479 33<22 35> 489 56<366.4 374 685.504 692>
VStem: 112 98 449 98<86 393 393 401> 767 98<86 393 393 401>
LayerCount: 2
Fore
SplineSet
449 393 m 2xbc
 449 479 393 489 355 489 c 0xbc
 268.953125 489 215.8125 400.333007812 211.310546875 340.982421875 c 1
 210 86 l 2
 210 42 226 38 264 38 c 1
 264 0 l 1
 48 0 l 1
 48 38 l 1
 108 38 111 62 111 86 c 2
 112 435 l 2
 112 479 88 494 35 479 c 1
 22 512 l 1xdc
 68 533 107 545 161 545 c 1
 161 545 212 545 212 475 c 2
 211.916015625 458.650390625 l 1
 261.9375 519.814453125 331.799804688 545 401 545 c 0
 438.240234375 545 505.176757812 525.13671875 533.764648438 464.396484375 c 1
 583.395507812 521.396484375 652.0078125 545 719 545 c 0
 767 545 865 512 865 401 c 2
 865 86 l 2
 865 42 880 38 918 38 c 1
 918 0 l 1
 704 0 l 1
 704 38 l 1
 750 38 767 62 767 86 c 2
 767 393 l 2
 767 479 711 489 673 489 c 0
 614.4296875 489 570.10546875 447.918945312 546.989257812 402.96484375 c 0
 546.99609375 402.3125 547 401.657226562 547 401 c 2
 547 86 l 2
 547 42 562 38 600 38 c 1
 600 0 l 1
 386 0 l 1
 386 38 l 1
 432 38 449 62 449 86 c 2
 449 393 l 2xbc
EndSplineSet
EndChar

StartChar: n
Encoding: 110 110 79
Width: 625
Flags: MW
HStem: 0 38<53 83 249 268 53 83 390 413 585 604> 479 33<27 40> 489 56<370.4 378>
VStem: 117 97 453 98<86 393 393 401>
LayerCount: 2
Fore
SplineSet
453 393 m 2xb8
 453 479 397 489 359 489 c 0xb8
 272.953125 489 219.8125 400.333007812 215.310546875 340.982421875 c 1
 214 86 l 2
 214 42 230 38 268 38 c 1
 268 0 l 1
 53 0 l 1
 53 38 l 1
 113 38 116 62 116 86 c 2
 117 435 l 2
 117 479 93 494 40 479 c 1
 27 512 l 1xd8
 73 533 111 545 165 545 c 1
 165 545 216 545 216 475 c 2
 215.916015625 458.650390625 l 1
 265.9375 519.814453125 335.799804688 545 405 545 c 0
 453 545 551 512 551 401 c 2
 551 86 l 2
 551 42 566 38 604 38 c 1
 604 0 l 1
 390 0 l 1
 390 38 l 1
 436 38 453 62 453 86 c 2
 453 393 l 2xb8
EndSplineSet
EndChar

StartChar: o
Encoding: 111 111 80
Width: 628
Flags: MW
HStem: -13 57
VStem: 63.1826 514
LayerCount: 2
Fore
SplineSet
327.182617188 544 m 0
 486.182617188 541 576.608398438 404.002929688 577.182617188 284 c 0
 578.182617188 75 445.182617188 -13 304.182617188 -13 c 0
 188.182617188 -13 63.1826171875 86.099609375 63.1826171875 252 c 0
 63.1826171875 408.818359375 171.182617188 547 327.182617188 544 c 0
315.182617188 487 m 0
 223.4765625 493.28125 151.182617188 398 163.182617188 246 c 0
 175.0390625 95.8232421875 232.705078125 43.90234375 334.182617188 44 c 0
 440.146484375 44.1025390625 487.153320312 155.258789062 479.182617188 278 c 0
 469.182617188 432 388.182617188 482 315.182617188 487 c 0
EndSplineSet
EndChar

StartChar: p
Encoding: 112 112 81
Width: 660
Flags: MW
HStem: -233 38<287.012 317.012 52.0117 52.0117> 0 46<317.747 393.012 317.747 426.012> 489 56<348.69 400.512>
VStem: 115.012 98
LayerCount: 2
Fore
SplineSet
13.01171875 517 m 1
 52.01171875 519 143.01171875 547 176.01171875 547 c 0
 200.01171875 547 213.01171875 542 213.01171875 483 c 2
 213.01171875 457.459960938 l 1
 272.965820312 525.9921875 313.369140625 545 384.01171875 545 c 0
 562.01171875 545 628.01171875 401 618.01171875 261 c 1
 597.01171875 76 499.01171875 0 353.01171875 0 c 0
 280.9375 0 241.84375 15.0439453125 213.01171875 32.6826171875 c 1
 213.01171875 -147 l 2
 213.01171875 -195 257.01171875 -195 317.01171875 -195 c 1
 317.01171875 -233 l 1
 52.01171875 -233 l 1
 52.01171875 -195 l 1
 107.01171875 -196 115.01171875 -180 115.01171875 -147 c 2
 115.01171875 450 l 2
 115.01171875 494 18.01171875 485 18.01171875 485 c 1
 13.01171875 517 l 1
213.01171875 357.665039062 m 1
 213.01171875 85.8076171875 l 1
 245.096679688 65.1484375 286.482421875 46 349.01171875 46 c 0
 437.01171875 46 509.01171875 119 522.01171875 255 c 1
 529.01171875 433 445.01171875 489 356.01171875 489 c 0
 323.7734375 489 224.106445312 455.735351562 213.01171875 357.665039062 c 1
EndSplineSet
EndChar

StartChar: q
Encoding: 113 113 82
Width: 590
Flags: MW
HStem: -13 61<234.5 292.852> 491 54<237.5 328.5>
VStem: 32 95<206.5 318 206.5 337> 421 98<-148.5 -132 -132 99.3076 99.3076 99.3076 183.482 384 384 426>
LayerCount: 2
Fore
SplineSet
519 546 m 1
 519 466 l 1
 519 -132 l 2
 519 -165 520 -180 549 -178 c 0
 570 -176 597 -163 597 -163 c 1
 609 -194 l 1
 609 -194 554 -249 477 -250 c 0
 433 -250 421 -202 421 -167 c 2
 421 99.3076171875 l 1
 392.368164062 33.8056640625 321.703125 -13 264 -13 c 0
 151 -13 32 87 32 264 c 0
 32 410 130 545 296 545 c 0
 380 545 397 513 422 513 c 0
 452 513 519 546 519 546 c 1
421 183.482421875 m 1
 421 384 l 2
 421 468 353 491 304 491 c 0
 171 491 127 365 127 271 c 0
 127 142 199 48 270 48 c 0
 326.8125 48 394.83203125 102.16796875 421 183.482421875 c 1
EndSplineSet
EndChar

StartChar: r
Encoding: 114 114 83
Width: 559
Flags: MW
HStem: 0 38<77 112.5 342 377 77 112.5> 479 66<406.614 427>
VStem: 172 98<74 86>
LayerCount: 2
Fore
SplineSet
271.645507812 327.87109375 m 1
 270 86 l 2
 270 42 307 38 377 38 c 1
 377 0 l 1
 77 0 l 1
 77 38 l 1
 148 38 172 62 172 86 c 2
 173 435 l 2
 173 479 96 494 43 479 c 1
 31 506 l 1
 77 527 94 539 148 539 c 0
 205.177734375 539 255.875976562 525.0859375 268.142578125 440.872070312 c 1
 326.59765625 519.28515625 380.227539062 545 433 545 c 0
 544 545 546 456 546 456 c 1
 546 427 518 404 485 404 c 0
 424 404 465 479 389 479 c 0
 327 479 272 378 272 326 c 1
 271.645507812 327.87109375 l 1
EndSplineSet
EndChar

StartChar: s
Encoding: 115 115 84
Width: 565
Flags: MW
HStem: -13 46<246.688 354.688 246.688 374.188> 426 120
VStem: 73.1885 94<352.5 441.5 352.5 462> 433.188 91<109 215>
LayerCount: 2
Fore
SplineSet
379.188476562 546 m 0
 246.188476562 562 73.1884765625 525 73.1884765625 399 c 0
 73.1884765625 202 433.188476562 288 433.188476562 142 c 0
 433.188476562 76 410.188476562 33 299.188476562 33 c 0
 194.188476562 33 199.188476562 75 157.188476562 100 c 0
 123.188476562 120 53.1884765625 103 53.1884765625 71 c 0
 53.1884765625 33 100.188476562 -13 325.188476562 -13 c 0
 423.188476562 -13 524.188476562 39 524.188476562 148 c 0
 524.188476562 366 167.188476562 285 167.188476562 420 c 0
 167.188476562 463 198.188476562 496 274.188476562 496 c 0
 410.188476562 496 372.188476562 426 444.188476562 426 c 0
 479.188476562 426 493.188476562 452 493.188476562 483 c 0
 493.188476562 510 449.188476562 538 379.188476562 546 c 0
EndSplineSet
EndChar

StartChar: t
Encoding: 116 116 85
Width: 540
Flags: MW
HStem: -13 62<271.5 379.5> 485 60<249 462>
VStem: 151 98<125 128 128 485> 183 71<650 693>
LayerCount: 2
Fore
SplineSet
255 545 m 1xd0
 462 545 l 2
 474 545 474 545 474 517 c 0
 474 487 474 486 462 486 c 2
 249 485 l 1
 249 128 l 2
 249 54 303 50 350 49 c 0
 409 49 455 70 495 100 c 1
 511 77 l 1
 479 41 430 -3 339 -13 c 1
 204 -13 151 42 151 125 c 2
 151 485 l 1xe0
 54 485 l 2
 33 485 33 485 33 514 c 0
 33 544 33 544 54 544 c 0
 195 545 183 608 183 692 c 1
 254 693 l 1
 255 545 l 1xd0
EndSplineSet
EndChar

StartChar: u
Encoding: 117 117 86
Width: 686
Flags: MW
HStem: -13 55<271.5 322.248> -1 21G<492.947 504> 503 26<391 391> 525 20G<170 181.5 506 514.5>
VStem: 103 98<149 192 192 435 435 456.5> 449 98<267.167 435 435 457>
LayerCount: 2
Fore
SplineSet
391 529 m 1xac
 475 545 506 545 506 545 c 2
 523 545 547 530 547 475 c 2
 547 118 l 2
 547 85 548 81 577 83 c 0
 598 85 637 94 637 94 c 1
 649 63 l 1
 649 63 581 0 504 -1 c 0x5c
 481.89453125 -1 450.712890625 44.2626953125 449.098632812 78.8564453125 c 1
 416.756835938 33.076171875 365.495117188 -13 279 -13 c 0
 208 -13 103 15 103 149 c 2
 103 435 l 2
 103 478 104 497 78 497 c 0
 61 497 47 498 32 490 c 1
 24 523 l 1
 78 545 170 545 170 545 c 2x9c
 193 545 201 524 201 475 c 2
 201 192 l 2
 201 63 248 42 295 42 c 0
 367.810546875 42 439.75 106.481445312 449 267.166992188 c 1
 449 435 l 2
 449 479 434 509 391 503 c 1
 391 529 l 1xac
EndSplineSet
EndChar

StartChar: v
Encoding: 118 118 87
Width: 647
Flags: MW
HStem: 0 21G<251.5 257 257 339> 498 31<402 415.5 402 606> 502 39<86.5 93.5>
LayerCount: 2
Fore
SplineSet
316 85 m 1xa0
 450 466 l 2
 458 494 429 498 402 498 c 1
 402 529 l 1
 606 529 l 1
 606 498 l 1xc0
 606 498 520 496 506 466 c 2
 363 38 l 2
 348 0 353 0 339 0 c 2
 257 0 l 2
 246 0 246 3 243 14 c 2
 124 437 l 2
 109 492 106 502 81 502 c 0
 55 502 40 492 40 492 c 1
 28 524 l 1
 28 524 59 541 114 541 c 0
 169 541 184 533 197 514 c 1
 316 85 l 1xa0
EndSplineSet
EndChar

StartChar: w
Encoding: 119 119 88
Width: 776
Flags: MW
HStem: 0 21G<193.5 235.5 559.5 593> 499 30<30 42 241 241 576 611 730 751>
LayerCount: 2
Fore
SplineSet
27 529 m 1
 242 529 l 1
 241 499 l 1
 241 499 187 500 194 445 c 2
 244 86 l 1
 396 419 l 1
 426 419 l 1
 580 85 l 1
 639 442 l 2
 646 486 646 499 576 499 c 1
 576 529 l 1
 751 529 l 1
 751 499 l 1
 709 499 695 498 689 441 c 1
 609 4 l 1
 609 4 609 0 577 0 c 0
 542 0 529 4 529 4 c 1
 390 294 l 1
 261 5 l 1
 261 5 261 0 210 0 c 0
 177 0 173 4 173 4 c 1
 102 449 l 2
 93 496 54 499 30 499 c 1
 27 529 l 1
EndSplineSet
EndChar

StartChar: x
Encoding: 120 120 89
Width: 569
Flags: MW
HStem: 0 38<-3 35 193 212 -3 35> 17 33<565 571> 487 51<58 153> 498 31<336 349.5 336 540>
LayerCount: 2
Fore
SplineSet
571 17 m 1x50
 510 -3 471 -6 443 -6 c 0
 415 -6 393 13 374 42 c 2
 262.10546875 226.41015625 l 1
 245 202 l 1
 164 86 l 2
 131 38 174 38 212 38 c 1
 212 0 l 1
 -3 0 l 1
 -3 38 l 1
 73 38 72 38 107 86 c 2
 208 229 l 1
 236.1484375 269.188476562 l 1
 141 426 l 2
 111 475 105 487 71 487 c 0
 45 487 20 477 20 477 c 1
 7 516 l 1
 7 516 75 538 130 538 c 0xa0
 176 538 181 521 196.416992188 498.432617188 c 2
 289.840820312 346.532226562 l 1
 374 466 l 2
 392.322265625 492.009765625 363 498 336 498 c 1
 336 529 l 1
 540 529 l 1
 540 498 l 1
 540 498 452.659179688 498.200195312 430 466 c 2
 316 304 l 1
 466.416992188 59.4326171875 l 1
 485.416992188 38.4326171875 501 35 565 50 c 1
 571 17 l 1x50
EndSplineSet
EndChar

StartChar: y
Encoding: 121 121 90
Width: 596
Flags: MW
HStem: 491 46<58.5 76.5> 498 31<379 392.5 379 582>
LayerCount: 2
Fore
SplineSet
198 -148 m 1x80
 504 466 l 2
 518 496 582 498 582 498 c 1
 582 529 l 1
 379 529 l 1
 379 498 l 1x40
 406 498 445 494 437 466 c 1
 300 178 l 1
 190 506 l 1
 177 525 141 537 86 537 c 0
 31 537 10 510 10 510 c 1
 23 482 l 1
 23 482 38 491 64 491 c 0
 89 491 102 492 117 437 c 2
 245 61 l 1
 184 -57 l 2
 145 -125 81 -99 55 -148 c 0
 40 -177 78 -210 111 -210 c 0
 170 -210 198 -148 198 -148 c 1x80
EndSplineSet
EndChar

StartChar: z
Encoding: 122 122 91
Width: 470
Flags: MW
HStem: 0 62<126 335 335 350 126 358> 459 70<102.5 115 115 332>
VStem: 45 38<401 425 401 465> 412 42<98.5 145>
LayerCount: 2
Fore
SplineSet
426 529 m 1
 426 479 l 1
 126 62 l 1
 335 62 l 2
 365 62 412 52 412 145 c 1
 454 145 l 1
 445 44 l 2
 438 0 444 0 358 0 c 2
 28 0 l 1
 28 38 l 1
 332 459 l 1
 115 459 l 2
 90 459 83 449 83 401 c 1
 45 401 l 1
 45 529 45 529 80 529 c 2
 426 529 l 1
EndSplineSet
EndChar

StartChar: braceleft
Encoding: 123 123 92
Width: 363
Flags: MW
HStem: -186 38<223 300> 321 51<26 57> 754 38<193.5 329>
VStem: 98 52<246 249 76 263>
LayerCount: 2
Fore
SplineSet
101 440 m 0
 101 417 97 372 26 372 c 1
 26 321 l 1
 88 321 98 280 98 246 c 0
 105 -84 103 -186 300 -186 c 1
 301 -148 l 1
 145 -148 150 -26 150 178 c 0
 150 320 150 325 73 346 c 1
 149 367 149 371 149 571 c 0
 149 657 150 764 329 754 c 1
 317 792 l 1
 70 792 101 646 101 440 c 0
EndSplineSet
EndChar

StartChar: bar
Encoding: 124 124 93
Width: 250
Flags: W
LayerCount: 2
Fore
SplineSet
99 -186 m 1
 150 -186 l 1
 151 780 l 1
 100 780 l 1
 99 -186 l 1
EndSplineSet
EndChar

StartChar: braceright
Encoding: 125 125 94
Width: 366
Flags: MW
HStem: -186 38<54 131 53 152.5> 321 51<297 328> 754 38<25 159.5>
VStem: 204 52<246 249>
LayerCount: 2
Fore
SplineSet
252 440 m 0
 252 417 257 372 328 372 c 1
 328 321 l 1
 266 321 256 280 256 246 c 0
 249 -84 251 -186 54 -186 c 1
 53 -148 l 1
 209 -148 204 -26 204 178 c 0
 204 320 203 325 280 346 c 1
 204 367 204 371 204 571 c 0
 204 657 204 764 25 754 c 1
 36 792 l 1
 283 792 252 646 252 440 c 0
EndSplineSet
EndChar

StartChar: asciitilde
Encoding: 126 126 95
Width: 590
Flags: MW
HStem: 584 69<365.5 418.5 356 451> 624 70<176 233 165.5 240>
LayerCount: 2
Fore
SplineSet
83 582 m 1x40
 62 624 l 1
 62 624 137 694 194 694 c 0x40
 272 694 316 653 396 653 c 0
 441 653 507 687 507 687 c 1
 529 643 l 1
 529 643 496 584 406 584 c 0x80
 325 584 280 624 200 624 c 0
 152 624 83 582 83 582 c 1x40
EndSplineSet
EndChar

StartChar: oe
Encoding: 339 339 97
Width: 982
Flags: MW
HStem: -13 62 280.967 44.9124 504 41
VStem: 858 92<323.999 361.999>
LayerCount: 2
Fore
SplineSet
918 156 m 1
 943 142.999023438 l 1
 917 78.9990234375 857 -13.0009765625 705 -13.0009765625 c 0
 629.177734375 -13.0009765625 543.4453125 21.681640625 491.844726562 102.190429688 c 1
 441.047851562 22.5693359375 354.637695312 -13.0009765625 264.994140625 -13.0009765625 c 0
 148.994140625 -13.0009765625 23.994140625 86.0986328125 23.994140625 251.999023438 c 0
 23.994140625 408.817382812 131.994140625 546.999023438 287.994140625 543.999023438 c 0
 378.907226562 542.283203125 447.401367188 496.759765625 489.499023438 435.653320312 c 1
 531.329101562 498.767578125 604.541015625 544.998046875 717 544.998046875 c 0
 858 544.998046875 950 449.998046875 950 321.998046875 c 0
 949 276.998046875 955 279.998046875 910 279.998046875 c 2
 537.999023438 280.96484375 l 1
 537.987304688 272.459960938 537.751953125 264.157226562 537.301757812 256.0546875 c 0
 539.364257812 240.880859375 542.5625 225.1796875 547 209 c 0
 579 121 626 49 747 49 c 0
 833 49 901 129 918 156 c 1
535.826171875 325.877929688 m 1
 858 323.999023438 l 1
 858 399.999023438 794 503.999023438 707 503.999023438 c 0
 623.001953125 503.2421875 547.021484375 434.913085938 535.826171875 325.877929688 c 1
275.994140625 486.999023438 m 0
 184.288085938 493.280273438 111.994140625 397.999023438 123.994140625 245.999023438 c 0
 135.850585938 95.822265625 193.516601562 43.9013671875 294.994140625 43.9990234375 c 0
 400.958007812 44.1015625 447.96484375 155.2578125 439.994140625 277.999023438 c 0
 429.994140625 431.999023438 348.994140625 481.999023438 275.994140625 486.999023438 c 0
EndSplineSet
EndChar

StartChar: emdash
Encoding: 8212 8212 98
Width: 724
Flags: W
LayerCount: 2
Fore
SplineSet
644 341 m 1
 644 393 l 1
 81 394 l 1
 81 342 l 1
 644 341 l 1
EndSplineSet
EndChar

StartChar: endash
Encoding: 8211 8211 99
Width: 724
Flags: W
LayerCount: 2
Fore
SplineSet
575 341 m 1
 575 393 l 1
 149 394 l 1
 149 342 l 1
 575 341 l 1
EndSplineSet
EndChar

StartChar: quotedblleft
Encoding: 8220 8220 100
Width: 585
Flags: MW
HStem: 412 178<137 176.5 137 181.5 421 460.5>
VStem: 44 93<590 625.5> 327 94<590 625.5>
LayerCount: 2
Fore
SplineSet
436 412 m 0
 495 412 525 447 530 488 c 0
 537 544 500 590 421 590 c 1
 421 706 541 741 541 741 c 1
 519 785 l 1
 519 785 327 712 327 539 c 0
 327 470 362 412 436 412 c 0
152 412 m 0
 211 412 242 447 247 488 c 0
 254 544 216 590 137 590 c 1
 137 706 257 741 257 741 c 1
 235 785 l 1
 235 785 44 712 44 539 c 0
 44 470 78 412 152 412 c 0
EndSplineSet
EndChar

StartChar: quotedblright
Encoding: 8221 8221 101
Width: 584
Flags: MW
HStem: 607 178<123.5 163 406.5 446>
VStem: 163 93<571.5 607> 446 94<571.5 607>
LayerCount: 2
Fore
SplineSet
148 785 m 0
 89 785 58 750 53 709 c 0
 46 653 84 607 163 607 c 1
 163 491 43 456 43 456 c 1
 65 412 l 1
 65 412 256 485 256 658 c 0
 256 727 222 785 148 785 c 0
431 785 m 0
 372 785 342 750 337 709 c 0
 330 653 367 607 446 607 c 1
 446 491 326 456 326 456 c 1
 348 412 l 1
 348 412 540 485 540 658 c 0
 540 727 505 785 431 785 c 0
EndSplineSet
EndChar

StartChar: Euro
Encoding: 8364 8364 102
Width: 629
Flags: MW
HStem: -14 52<307.397 415> 299.643 52.0332 425.637 52.0225 714 49<317.225 449>
VStem: 67.8506 104.346 543 34<597 634.5>
LayerCount: 2
Fore
SplineSet
396 763 m 0
 517 763 577 721 577 721 c 1
 577 597 l 1
 543 597 l 1
 543 672 508 714 390 714 c 0
 244.44921875 714 195.970703125 602.176757812 179.899414062 477.659179688 c 1
 489 477 l 1
 473 425 l 1
 174.927734375 425.63671875 l 1
 173.274414062 400.688476562 172.541015625 375.779296875 172.224609375 351.67578125 c 1
 489 351 l 1
 473 299 l 1
 172.196289062 299.642578125 l 1
 176.360351562 178.090820312 246.794921875 38 368 38 c 0
 578 38 554 186 554 186 c 1
 600 186 l 1
 600 59 l 1
 600 59 478 -14 352 -14 c 0
 169.70703125 -14 77.5185546875 140.336914062 67.8505859375 299.865234375 c 1
 5 300 l 1
 20 352 l 1
 67.21484375 351.899414062 l 1
 67.671875 376.754882812 68.8837890625 401.518554688 71.1171875 425.858398438 c 1
 5 426 l 1
 20 478 l 1
 77.6630859375 477.876953125 l 1
 103.360351562 635.1875 183.135742188 763 396 763 c 0
EndSplineSet
EndChar

StartChar: bullet
Encoding: 8226 8226 103
Width: 634
Flags: MW
HStem: 113 557
LayerCount: 2
Fore
SplineSet
323.995117188 670 m 0
 482.995117188 667 572.995117188 530 573.995117188 410 c 0
 574.995117188 184 431.995117188 113 290.995117188 113 c 0
 174.995117188 113 75.9951171875 224 59.9951171875 378 c 0
 43.9951171875 534 167.995117188 673 323.995117188 670 c 0
EndSplineSet
EndChar

StartChar: OE
Encoding: 338 338 104
Width: 986
Flags: MW
HStem: -14 53 0 38 380 50 724 48<232 365> 726 37
VStem: 531 92<252.5 357.001 357.001 367.501 86.001 443> 859 36<304.001 321.001> 926 35<134.501 183.001>
LayerCount: 2
Fore
SplineSet
287 724 m 0xb7
 443 724 531 541 531 345 c 0
 531 160 467 39 362 39 c 0
 229 39 139.3359375 203.009765625 122 318 c 0
 78.998046875 603.236328125 177 724 287 724 c 0xb7
344 772 m 0
 65 772 -7.0107421875 542.736328125 24 314.000976562 c 0
 46.3525390625 149.124023438 158 -13.9990234375 321 -13.9990234375 c 0xb7
 376.921875 -13.9990234375 425.814453125 0.31640625 467 25.5595703125 c 1
 467 0.0009765625 l 1
 961 0.0009765625 l 1
 961 183.000976562 l 1
 926 183.000976562 l 1
 926 86.0009765625 915 38.0009765625 850 38.0009765625 c 2
 658 38.0009765625 l 2
 635 38.0009765625 623 48.0009765625 623 86.0009765625 c 2
 623 357.000976562 l 2
 623 378.000976562 634 380.000976562 646 380.000976562 c 2
 787 380.000976562 l 2
 849 380.000976562 859 338.000976562 859 304.000976562 c 1
 895 304.000976562 l 1
 895 499.000976562 l 1
 863 499.000976562 l 1
 863 476.000976562 856 430.000976562 785 430.000976562 c 2
 648 430.000976562 l 2
 626 430.000976562 623 462.000976562 623 479.000976562 c 2
 623 677.000976562 l 2
 623 716.000976562 666 726.000976562 666 726.000976562 c 1
 810 726.000976562 l 2
 917 726.000976562 921 657.000976562 921 620.000976562 c 1
 957 620.000976562 l 1
 956 763.000976562 l 1
 468 763.000976562 l 1x6f
 468 739.30078125 l 1
 433.9609375 759.979492188 393.012695312 772 344 772 c 0
EndSplineSet
EndChar

StartChar: quoteleft
Encoding: 8216 8216 105
Width: 302
Flags: MW
HStem: 412 178<138 177.5 138 181.5>
VStem: 44 94<590 625.5>
LayerCount: 2
Fore
SplineSet
152 412 m 0
 78 412 44 470 44 539 c 0
 44 712 235 785 235 785 c 1
 257 741 l 1
 257 741 138 706 138 590 c 1
 217 590 254 544 247 488 c 0
 242 447 211 412 152 412 c 0
EndSplineSet
EndChar

StartChar: quoteright
Encoding: 8217 8217 106
Width: 302
Flags: MW
HStem: 607 178<123.5 163>
VStem: 163 94<571.5 607>
LayerCount: 2
Fore
SplineSet
149 785 m 0
 223 785 257 727 257 658 c 0
 257 485 66 412 66 412 c 1
 44 456 l 1
 44 456 163 491 163 607 c 1
 84 607 47 653 54 709 c 0
 59 750 90 785 149 785 c 0
EndSplineSet
EndChar

StartChar: ellipsis
Encoding: 8230 8230 107
Width: 893
Flags: MW
HStem: -13 188<184.5 232 474.5 522 750.5 798>
VStem: 106 194<52 106.5 51.5 114> 396 194<52 106.5 51.5 114> 672 194<52 106.5 51.5 114>
LayerCount: 2
Fore
SplineSet
771 175 m 0
 830 175 866 127 866 86 c 0
 866 17 818 -13 778 -13 c 0
 723 -13 672 18 672 86 c 0
 672 142 716 175 771 175 c 0
495 175 m 0
 554 175 590 127 590 86 c 0
 590 17 542 -13 502 -13 c 0
 447 -13 396 18 396 86 c 0
 396 142 440 175 495 175 c 0
205 175 m 0
 264 175 300 127 300 86 c 0
 300 17 252 -13 212 -13 c 0
 157 -13 106 18 106 86 c 0
 106 142 150 175 205 175 c 0
EndSplineSet
EndChar

StartChar: uni0091
Encoding: 145 145 108
Width: 650
Flags: MW
HStem: 0 38.126 479 50.2754 525 20G<496.4 530>
VStem: 169.937 98<547 549 479 601> 453 98<416 509>
LayerCount: 2
Fore
SplineSet
549 86 m 2xb8
 549 22 564 38 624 38 c 1
 624 0 l 1
 465.936523438 0 l 1
 302 0 l 1
 45.9365234375 0 l 1
 45.9365234375 38 l 1
 132.936523438 38 171.936523438 42 171.936523438 86 c 2
 170.936523438 481 l 1
 41.9365234375 482 l 1
 41.9365234375 529 l 1
 162.936523438 529 169.936523438 529 169.936523438 547 c 2
 169.936523438 601 l 2
 169.936523438 704 217.936523438 800 393.936523438 785 c 0
 445.936523438 781 492.936523438 766 517.936523438 720 c 0
 533.936523438 688 499.936523438 664 463.936523438 664 c 0
 401.936523438 664 385.936523438 729 324.936523438 737 c 0
 285.936523438 742 267.936523438 701 266.936523438 653 c 2
 267.936523438 549 l 2
 267.936523438 533.793945312 270.99609375 529.422851562 383.82421875 529.275390625 c 0xd8
 468.07421875 529.165039062 479.799804688 545 513 545 c 0
 547 545 551 528 551 490 c 2
 549 86 l 2xb8
425.58203125 479 m 1
 267.936523438 479 l 1
 269.936523438 86 l 2
 269.936523438 44.62109375 335.672851562 38.9130859375 432.940429688 38.1259765625 c 1
 447.8125 42.4892578125 451 54.8056640625 451 86 c 2
 453 416 l 2
 453 460.631835938 448.28515625 474.6171875 425.58203125 479 c 1
EndSplineSet
Ligature2: "<1,2> Ligatures Usuelles lookup 0 subtable" f i
EndChar

StartChar: uni0092
Encoding: 146 146 109
Width: 757
Flags: MW
HStem: 0 38<38.9365 82.4365 388.437 428.937 38.9365 82.4365 710 740> 465 53<356.937 454.937> 760 20G<601.5 630>
VStem: 162.937 108 557 98<86 651 651 698>
LayerCount: 2
Fore
SplineSet
433 740 m 1
 472 742 585 780 618 780 c 0
 642 780 655 775 655 716 c 2
 655 86 l 2
 655 38 680 38 740 38 c 1
 740 0 l 1
 461 0 l 1
 461 38 l 1
 548 37 557 42 557 86 c 2
 557 651 l 2
 557 745 438 676 438 676 c 1
 433 740 l 1
272.936523438 86 m 2
 272.936523438 38 347.936523438 38 428.936523438 38 c 1
 428.936523438 0 l 1
 38.9365234375 0 l 1
 38.9365234375 38 l 1
 125.936523438 38 164.936523438 42 164.936523438 86 c 2
 163.936523438 467 l 1
 34.9365234375 468 l 1
 34.9365234375 518 l 1
 155.936523438 518 162.936523438 518 162.936523438 536 c 2
 162.936523438 601 l 2
 162.936523438 704 220.936523438 800 396.936523438 785 c 0
 448.936523438 781 495.936523438 766 520.936523438 720 c 0
 536.936523438 688 502.936523438 664 466.936523438 664 c 0
 404.936523438 664 388.936523438 729 327.936523438 737 c 0
 288.936523438 742 270.936523438 701 269.936523438 653 c 2
 270.936523438 538 l 2
 270.936523438 518 258.936523438 518 454.936523438 518 c 1
 454.936523438 465 l 1
 270.936523438 465 l 1
 272.936523438 86 l 2
EndSplineSet
Ligature2: "<1,2> Ligatures Usuelles lookup 0 subtable" f l
EndChar

StartChar: uni0093
Encoding: 147 147 110
Width: 735
Flags: MW
HStem: 0 38<38.9365 82.4365 316.937 360.437 378.437 418.937 38.9365 82.4365 316.937 360.437 378.437 418.937 656.437 696.937> 465 53<312.937 373.437 373.437 444.937 624.937 722.937>
VStem: 162.937 98 440.937 98
LayerCount: 2
Fore
SplineSet
540.936523438 86 m 2
 540.936523438 38 615.936523438 38 696.936523438 38 c 1
 696.936523438 0 l 1
 316.936523438 0 l 1
 316.936523438 38 l 1
 403.936523438 38 442.936523438 42 442.936523438 86 c 2
 441.936523438 467 l 1
 312.936523438 468 l 1
 312.936523438 518 l 1
 433.936523438 518 440.936523438 518 440.936523438 536 c 2
 440.936523438 601 l 2
 440.936523438 704 488.936523438 800 664.936523438 785 c 0
 716.936523438 781 763.936523438 766 788.936523438 720 c 0
 804.936523438 688 770.936523438 664 734.936523438 664 c 0
 672.936523438 664 656.936523438 729 595.936523438 737 c 0
 556.936523438 742 538.936523438 701 537.936523438 653 c 2
 538.936523438 538 l 2
 538.936523438 518 526.936523438 518 722.936523438 518 c 1
 722.936523438 465 l 1
 538.936523438 465 l 1
 540.936523438 86 l 2
262.936523438 86 m 2
 262.936523438 38 337.936523438 38 418.936523438 38 c 1
 418.936523438 0 l 1
 38.9365234375 0 l 1
 38.9365234375 38 l 1
 125.936523438 38 164.936523438 42 164.936523438 86 c 2
 163.936523438 467 l 1
 34.9365234375 468 l 1
 34.9365234375 518 l 1
 155.936523438 518 162.936523438 518 162.936523438 536 c 2
 162.936523438 601 l 2
 162.936523438 704 210.936523438 800 386.936523438 785 c 0
 438.936523438 781 485.936523438 766 510.936523438 720 c 0
 526.936523438 688 492.936523438 664 456.936523438 664 c 0
 394.936523438 664 378.936523438 729 317.936523438 737 c 0
 278.936523438 742 260.936523438 701 259.936523438 653 c 2
 260.936523438 538 l 2
 260.936523438 518 248.936523438 518 444.936523438 518 c 1
 444.936523438 465 l 1
 260.936523438 465 l 1
 262.936523438 86 l 2
EndSplineSet
Ligature2: "<1,2> Ligatures Usuelles lookup 0 subtable" f f
EndChar

StartChar: uni0094
Encoding: 148 148 111
Width: 1045
Flags: MW
HStem: 0 38<38.9365 82.4365 298.937 342.437 378.437 418.937 38.9365 82.4365 298.937 342.437 378.437 418.937 638.437 678.937 960 990> 465 53<294.937 355.437 355.437 444.937 606.937 704.937> 760 20G<851.5 880>
VStem: 162.937 98 422.937 98 807 98<86 651 651 698>
LayerCount: 2
Fore
SplineSet
262.936523438 86 m 2
 262.936523438 38 337.936523438 38 418.936523438 38 c 1
 418.936523438 0 l 1
 38.9365234375 0 l 1
 38.9365234375 38 l 1
 125.936523438 38 164.936523438 42 164.936523438 86 c 2
 163.936523438 467 l 1
 34.9365234375 468 l 1
 34.9365234375 518 l 1
 155.936523438 518 162.936523438 518 162.936523438 536 c 2
 162.936523438 601 l 2
 162.936523438 704 210.936523438 800 386.936523438 785 c 0
 438.936523438 781 485.936523438 766 510.936523438 720 c 0
 526.936523438 688 492.936523438 664 456.936523438 664 c 0
 394.936523438 664 378.936523438 729 317.936523438 737 c 0
 278.936523438 742 260.936523438 701 259.936523438 653 c 2
 260.936523438 538 l 2
 260.936523438 518 248.936523438 518 444.936523438 518 c 1
 444.936523438 465 l 1
 260.936523438 465 l 1
 262.936523438 86 l 2
683 740 m 1
 722 742 835 780 868 780 c 0
 892 780 905 775 905 716 c 2
 905 86 l 2
 905 38 930 38 990 38 c 1
 990 0 l 1
 711 0 l 1
 711 38 l 1
 798 37 807 42 807 86 c 2
 807 651 l 2
 807 745 688 676 688 676 c 1
 683 740 l 1
522.936523438 86 m 2
 522.936523438 38 597.936523438 38 678.936523438 38 c 1
 678.936523438 0 l 1
 298.936523438 0 l 1
 298.936523438 38 l 1
 385.936523438 38 424.936523438 42 424.936523438 86 c 2
 423.936523438 467 l 1
 294.936523438 468 l 1
 294.936523438 518 l 1
 415.936523438 518 422.936523438 518 422.936523438 536 c 2
 422.936523438 601 l 2
 422.936523438 704 470.936523438 800 646.936523438 785 c 0
 698.936523438 781 745.936523438 766 770.936523438 720 c 0
 786.936523438 688 752.936523438 664 716.936523438 664 c 0
 654.936523438 664 638.936523438 729 577.936523438 737 c 0
 538.936523438 742 520.936523438 701 519.936523438 653 c 2
 520.936523438 538 l 2
 520.936523438 518 508.936523438 518 704.936523438 518 c 1
 704.936523438 465 l 1
 520.936523438 465 l 1
 522.936523438 86 l 2
EndSplineSet
Ligature2: "<1,2> Ligatures Usuelles lookup 0 subtable" f f l
EndChar

StartChar: uni0095
Encoding: 149 149 112
Width: 851
Flags: MW
HStem: 0 38<58.9365 102.437 295.937 339.437 398.437 438.937 58.9365 102.437 295.937 339.437 398.437 438.937 804 834> 479 50<291.937 352.437 366.937 464.937>
VStem: 182.937 98 419.937 98 663 98<416 509>
LayerCount: 2
Fore
SplineSet
282.936523438 86 m 2
 282.936523438 38 357.936523438 38 438.936523438 38 c 1
 438.936523438 0 l 1
 58.9365234375 0 l 1
 58.9365234375 38 l 1
 145.936523438 38 184.936523438 42 184.936523438 86 c 2
 183.936523438 481 l 1
 54.9365234375 482 l 1
 54.9365234375 529 l 1
 175.936523438 529 182.936523438 529 182.936523438 547 c 2
 182.936523438 601 l 2
 182.936523438 704 230.936523438 800 406.936523438 785 c 0
 458.936523438 781 505.936523438 766 530.936523438 720 c 0
 546.936523438 688 512.936523438 664 476.936523438 664 c 0
 414.936523438 664 398.936523438 729 337.936523438 737 c 0
 298.936523438 742 280.936523438 701 279.936523438 653 c 2
 280.936523438 549 l 2
 280.936523438 529 268.936523438 529 464.936523438 529 c 1
 464.936523438 479 l 1
 280.936523438 479 l 1
 282.936523438 86 l 2
759 86 m 2
 759 22 774 38 834 38 c 1
 834 0 l 1
 675.936523438 0 l 1
 552 0 l 1
 295.936523438 0 l 1
 295.936523438 38 l 1
 382.936523438 38 421.936523438 42 421.936523438 86 c 2
 420.936523438 481 l 1
 291.936523438 482 l 1
 291.936523438 529 l 1
 412.936523438 529 419.936523438 529 419.936523438 547 c 2
 419.936523438 601 l 2
 419.936523438 704 467.936523438 800 643.936523438 785 c 0
 695.936523438 781 742.936523438 766 767.936523438 720 c 0
 783.936523438 688 749.936523438 664 713.936523438 664 c 0
 651.936523438 664 635.936523438 729 574.936523438 737 c 0
 535.936523438 742 517.936523438 701 516.936523438 653 c 2
 517.936523438 549 l 2
 517.936523438 533.793945312 510.999023438 530.1484375 593.82421875 529.275390625 c 0
 607.916992188 531.392578125 689.799804688 545 723 545 c 0
 757 545 761 528 761 490 c 2
 759 86 l 2
635.58203125 479 m 1
 517.936523438 479 l 1
 519.936523438 86 l 2
 519.936523438 44.62109375 575.672851562 38.9130859375 642.940429688 38.1259765625 c 1
 657.8125 42.4892578125 661 54.8056640625 661 86 c 2
 663 416 l 2
 663 460.631835938 658.28515625 474.6171875 635.58203125 479 c 1
EndSplineSet
Ligature2: "<1,2> Ligatures Usuelles lookup 0 subtable" f f i
EndChar

StartChar: exclamdown
Encoding: 161 161 113
Width: 295
Flags: MW
HStem: 460 142<120 158 120 163>
VStem: 64 147<518 555 516 555.5> 80 107<-142.5 -97 -143 -96> 107 57<240 363>
LayerCount: 2
Fore
SplineSet
107 363 m 1x90
 107 117 80 -71 80 -121 c 0
 80 -164 100 -186 134 -186 c 0
 166 -186 187 -164 187 -122 c 0xa0
 187 -72 164 116 164 363 c 1
 107 363 l 1x90
136 460 m 0
 78 460 64 503 64 533 c 0
 64 578 99 602 141 602 c 0
 175 602 211 577 211 533 c 0xc0
 211 499 190 460 136 460 c 0
EndSplineSet
EndChar

StartChar: cent
Encoding: 162 162 114
Width: 618
Flags: MW
HStem: -12.6416 75.6416<333.739 333.739> 497 46.2178
VStem: 282 51<-162 -162>
LayerCount: 2
Fore
SplineSet
333.151367188 544.588867188 m 1
 428.079101562 541.075195312 527 515.010742188 527 464 c 0
 527 424 493 405 464 405 c 0
 426 405 416 448 380 472 c 0
 360 485 348 497 307 497 c 0
 138 497 124 351 144 251 c 0
 166 130 243 63 371 63 c 0
 441 63 480 85 532 120 c 1
 556 100 l 1
 503.94140625 32.7978515625 420.52734375 -8.4248046875 333.739257812 -12.6416015625 c 1
 333 -162 l 1
 282 -162 l 1
 282.75 -10.474609375 l 1
 144.181640625 9.16796875 60 139.811523438 60 256 c 0
 60 433.817382812 169.502929688 529.295898438 282.14453125 543.217773438 c 1
 283 716 l 1
 334 716 l 1
 333.151367188 544.588867188 l 1
EndSplineSet
EndChar

StartChar: sterling
Encoding: 163 163 115
Width: 501
Flags: MW
HStem: 0 68<138.937 138.937 138.937 273.937> 465 53<313.937 411.937>
VStem: 119.937 108 436.937 45
LayerCount: 2
Fore
SplineSet
138.936523438 68 m 1
 227.936523438 188 227.936523438 249 227.936523438 465 c 1
 411.936523438 465 l 1
 411.936523438 518 l 1
 215.936523438 518 227.936523438 518 227.936523438 538 c 2
 226.936523438 653 l 2
 227.936523438 701 245.936523438 742 284.936523438 737 c 0
 345.936523438 729 361.936523438 664 423.936523438 664 c 0
 459.936523438 664 493.936523438 688 477.936523438 720 c 0
 452.936523438 766 405.936523438 781 353.936523438 785 c 0
 177.936523438 800 119.936523438 704 119.936523438 601 c 2
 119.936523438 536 l 2
 119.936523438 518 112.936523438 518 -8.0634765625 518 c 1
 -8.0634765625 468 l 1
 120.936523438 467 l 1
 120.936523438 245 118.936523438 156 -10.0634765625 38 c 1
 -10.0634765625 0 l 1
 481.936523438 0 l 1
 481.936523438 145 l 1
 436.936523438 145 l 1
 436.936523438 76 420.936523438 68 273.936523438 68 c 2
 138.936523438 68 l 1
EndSplineSet
EndChar

StartChar: yen
Encoding: 165 165 116
Width: 617
Flags: MW
HStem: 0 38<178 197.5 403.5 423> 729 34<571.5 616>
VStem: 256 84<64 125.378 86 125.378 86 125.588 176.622 176.622 176.622 251.378 302.622 302.622 302.622 336.583>
LayerCount: 2
Fore
SplineSet
256 86 m 2
 256 42 217 38 178 38 c 1
 178 0 l 1
 423 0 l 1
 423 38 l 1
 384 38 340 38 340 86 c 2
 340 125.377929688 l 1
 517 125 l 1
 533 176 l 1
 340 176.412109375 l 1
 340 251.377929688 l 1
 517 251 l 1
 533 302 l 1
 340 302.412109375 l 1
 340 336.583007812 l 1
 494 652 l 1
 526 699 527 729 616 729 c 1
 616 763 l 1
 391 763 l 1
 391 727 l 1
 483 727 451 689 430 648 c 2
 313.251953125 416.171875 l 1
 139 763 l 1
 7 763 l 1
 7 726 l 1
 47 726 55 716 71 687 c 2
 256 338 l 1
 256 302.622070312 l 1
 79 303 l 1
 63 252 l 1
 256 251.587890625 l 1
 256 176.622070312 l 1
 79 177 l 1
 63 126 l 1
 256 125.587890625 l 1
 256 86 l 2
EndSplineSet
EndChar

StartChar: section
Encoding: 167 167 117
Width: 540
Flags: MW
HStem: -13 120 222 49<233.5 292.5> 657 120
VStem: 42 71<352 414.5 352 423.5> 86 79<606 672.5 587 693> 378 68<91.5 152> 419 71<344 409.5 344 415>
LayerCount: 2
Fore
SplineSet
287 271 m 0xf2
 355 271 419 307 419 373 c 0
 419 457 340 499 246 499 c 0
 137 499 113 437 113 392 c 0
 113 312 180 271 287 271 c 0xf2
42 385 m 0
 42 462 76 510 131 532 c 1
 104 552 86 582 86 630 c 0
 86 756 244 793 377 777 c 0
 447 769 490 741 490 714 c 0
 490 683 477 657 442 657 c 0
 370 657 408 727 272 727 c 0
 196 727 165 694 165 651 c 0
 165 523 274 565 356 537 c 0
 426 513 490 440 490 379 c 0
 490 309 469 270 419 229 c 1xea
 436 210 446 179 446 134 c 0
 446 -2 288 -24 155 -13 c 0
 85 -7 42 23 42 50 c 0
 42 81 55 107 90 107 c 0
 162 107 124 38 260 38 c 0
 336 38 378 70 378 113 c 0xf4
 378 191 322 222 263 222 c 0
 146 222 42 280 42 385 c 0
EndSplineSet
EndChar

StartChar: dieresis
Encoding: 168 168 118
Width: 513
Flags: MW
HStem: 634 132<115.5 147.5 362.5 394.5>
VStem: 68 130<685.5 718 681.5 721> 315 130<685.5 718 681.5 721>
LayerCount: 2
Fore
SplineSet
130 766 m 0
 177 766 198 734 198 702 c 0
 198 661 161 634 134 634 c 0
 97 634 68 667 68 704 c 0
 68 738 96 766 130 766 c 0
376 766 m 0
 423 766 445 734 445 702 c 0
 445 661 408 634 381 634 c 0
 344 634 315 667 315 704 c 0
 315 738 342 766 376 766 c 0
EndSplineSet
EndChar

StartChar: copyright
Encoding: 169 169 119
Width: 746
Flags: MW
HStem: 67 27<289.5 454.5 289.5 464> 197 53<364 404.5> 554 33<324.5 378.5> 691 31<289.5 454.5>
VStem: 40 34<310.5 475.5 310.5 485.5> 670 36<310.5 475.5>
LayerCount: 2
Fore
SplineSet
367 587 m 0
 438 587 518 569 518 531 c 0
 518 503 495 490 474 490 c 0
 447 490 440 519 415 536 c 0
 401 545 393 554 364 554 c 0
 246 554 236 452 250 382 c 0
 265 297 319 250 409 250 c 0
 458 250 484 266 521 290 c 1
 538 276 l 1
 499 226 437 197 372 197 c 0
 260 197 191 297 191 385 c 0
 191 520 282 587 367 587 c 0
74 393 m 0
 74 228 207 94 372 94 c 0
 537 94 670 228 670 393 c 0
 670 558 537 691 372 691 c 0
 207 691 74 558 74 393 c 0
40 395 m 0
 40 576 176 722 368 722 c 0
 560 722 706 576 706 395 c 0
 706 214 560 67 368 67 c 0
 176 67 40 214 40 395 c 0
EndSplineSet
EndChar

StartChar: guillemotleft
Encoding: 171 171 120
Width: 686
Flags: W
LayerCount: 2
Fore
SplineSet
535 112 m 1
 502 188 425 254 319 292 c 1
 319 326 l 1
 396 379 491 426 534 511 c 1
 584 475 l 1
 537 419 476 356 387 313 c 1
 475 287 540 207 588 151 c 1
 535 112 l 1
315 112 m 1
 282 188 205 254 99 292 c 1
 99 326 l 1
 176 379 271 426 314 511 c 1
 363 475 l 1
 316 419 256 356 167 313 c 1
 255 287 319 207 367 151 c 1
 315 112 l 1
EndSplineSet
EndChar

StartChar: uni00AD
Encoding: 173 173 121
Width: 583
Flags: W
LayerCount: 2
Fore
SplineSet
546 341 m 1
 546 393 l 1
 36 394 l 1
 36 342 l 1
 546 341 l 1
EndSplineSet
EndChar

StartChar: registered
Encoding: 174 174 122
Width: 687
Flags: MW
HStem: 67 27<266.5 431.5 266.5 441> 221 19<227 236.5 325.5 335 227 236.5> 229 17<520 523> 386.054 23.1973 585 17<330.5 366 366 370.5> 691 31<266.5 431.5>
VStem: 17 34<310.5 475.5 310.5 485.5> 255 49<264 386.054 409.251 559> 429 42<462.512 512> 647 36<310.5 475.5>
LayerCount: 2
Fore
SplineSet
51 393 m 0x9fc0
 51 228 184 94 349 94 c 0
 514 94 647 228 647 393 c 0
 647 558 514 691 349 691 c 0
 184 691 51 558 51 393 c 0x9fc0
17 395 m 0
 17 576 153 722 345 722 c 0
 537 722 683 576 683 395 c 0
 683 214 537 67 345 67 c 0
 153 67 17 214 17 395 c 0
304 386.053710938 m 1
 304 264 l 2
 304 240 316 240 335 240 c 1
 335 221 l 1
 227 221 l 1
 227 240 l 1xdfc0
 246 240 255 242 255 264 c 2
 255 559 l 2
 255 583 251 584 226 584 c 1
 226 602 l 1
 366 602 l 2
 454 602 471 532 471 493 c 0
 471 432.024414062 436.254882812 405.793945312 391.6015625 394.51171875 c 1
 483 256 l 1
 483 256 494 239 520 246 c 1
 523 229 l 1xbfc0
 499 219 498 218 484 218 c 0
 470 218 450 224 439 242 c 2
 347.470703125 387.69921875 l 1
 332.948242188 386.54296875 318.235351562 386.171875 304 386.053710938 c 1
304 409.250976562 m 1
 385.772460938 411.282226562 429 426.712890625 429 493 c 0
 429 531 402 585 339 585 c 0
 322 585 304 581 304 559 c 2
 304 409.250976562 l 1
EndSplineSet
EndChar

StartChar: degree
Encoding: 176 176 123
Width: 298
Flags: MW
HStem: 499 266
VStem: 25.7949 246
LayerCount: 2
Fore
SplineSet
149.794921875 765 m 0
 220.794921875 764 275.794921875 700 271.794921875 629 c 0
 267.794921875 556 221.794921875 499 134.794921875 499 c 0
 73.794921875 499 21.794921875 567 25.794921875 634 c 0
 29.794921875 704 79.794921875 766 149.794921875 765 c 0
128.794921875 732 m 0
 90.794921875 725 58.794921875 680 73.794921875 613 c 0
 84.794921875 561 131.794921875 520 178.794921875 535 c 0
 226.794921875 551 230.794921875 609 224.794921875 645 c 0
 215.794921875 699 184.794921875 742 128.794921875 732 c 0
EndSplineSet
EndChar

StartChar: plusminus
Encoding: 177 177 124
Width: 648
Flags: W
LayerCount: 2
Fore
SplineSet
529.5 -1 m 1
 529.5 38 l 1
 117.5 39 l 1
 117.5 0 l 1
 529.5 -1 l 1
305.450195312 183.049804688 m 1
 341.150390625 183.049804688 l 1
 341.46484375 349.267578125 l 1
 508.450195312 348.950195312 l 1
 508.450195312 385.349609375 l 1
 341.534179688 385.666015625 l 1
 341.849609375 551.950195312 l 1
 306.150390625 551.950195312 l 1
 305.834960938 385.734375 l 1
 139.549804688 386.049804688 l 1
 139.549804688 349.650390625 l 1
 305.765625 349.334960938 l 1
 305.450195312 183.049804688 l 1
EndSplineSet
EndChar

StartChar: acute
Encoding: 180 180 125
Width: 666
Flags: MW
HStem: 548 21G<205 205>
LayerCount: 2
Fore
SplineSet
205 548 m 1
 185 584 l 1
 457 738 l 1
 457 738 496 763 525 763 c 0
 551 763 587 755 587 715 c 0
 587 683 554 659 493 639 c 0
 351 593 205 548 205 548 c 1
EndSplineSet
EndChar

StartChar: periodcentered
Encoding: 183 183 126
Width: 724
Flags: MW
HStem: 217 188<343.5 391>
VStem: 265 194<282 336.5 281.5 344>
LayerCount: 2
Fore
SplineSet
364 405 m 0
 423 405 459 357 459 316 c 0
 459 247 411 217 371 217 c 0
 316 217 265 248 265 316 c 0
 265 372 309 405 364 405 c 0
EndSplineSet
EndChar

StartChar: cedilla
Encoding: 184 184 127
Width: 724
Flags: MW
HStem: -238 34<330.5 372.5 330.5 408.5> -20 20G<335 379 379 379>
VStem: 335 44<0 0>
LayerCount: 2
Fore
SplineSet
335 0 m 1
 379 0 l 1
 368 -60 l 1
 368 -60 517 -45 497 -165 c 0
 490.095703125 -206.428710938 466 -238 351 -238 c 0
 283 -238 228 -205 228 -205 c 1
 245 -183 l 1
 245 -183 309 -204 352 -204 c 0
 393 -204 446 -194 446 -148 c 0
 446 -74 326 -109 326 -109 c 1
 335 0 l 1
EndSplineSet
EndChar

StartChar: guillemotright
Encoding: 187 187 128
Width: 685
Flags: W
LayerCount: 2
Fore
SplineSet
150 112 m 1
 183 188 260 254 366 292 c 1
 366 326 l 1
 289 379 194 426 151 511 c 1
 102 475 l 1
 149 419 209 356 298 313 c 1
 210 287 146 207 98 151 c 1
 150 112 l 1
371 112 m 1
 404 188 481 254 587 292 c 1
 587 326 l 1
 510 379 415 426 372 511 c 1
 322 475 l 1
 369 419 430 356 519 313 c 1
 431 287 366 207 318 151 c 1
 371 112 l 1
EndSplineSet
EndChar

StartChar: questiondown
Encoding: 191 191 129
Width: 560
Flags: MW
HStem: -186 64<239 293 239 317.5> 460 142<266 304 266 310>
VStem: 42 111<4.29497e+09 4.29497e+09> 210 147<518 555 516 555.5> 254 57<226 245 245 352> 369 112
LayerCount: 2
Fore
SplineSet
481 -30 m 0xec
 481 -122 383 -186 252 -186 c 0
 150 -186 41 -132 42 -30 c 0
 43 145 254 126 254 226 c 2
 254 352 l 1
 311 352 l 1
 311 245 l 2
 311 70 153 162 153 -30 c 0
 153 -84 211 -122 267 -122 c 0
 319 -122 391 -119 369 -45 c 0
 347 29 401 49 424 49 c 0
 454 49 481 9 481 -30 c 0xec
283 460 m 0
 225 460 210 503 210 533 c 0
 210 578 245 602 287 602 c 0
 321 602 357 577 357 533 c 0xf4
 357 499 337 460 283 460 c 0
EndSplineSet
EndChar

StartChar: Agrave
Encoding: 192 192 130
Width: 751
Flags: MW
HStem: 0 38<71 90.5 218.5 238 71 90.5> 17 33<688 695> 229 40<239.332 466.54 239.332 479.126 227.617 466.54> 743 20G<331 400 400 400> 922 81
LayerCount: 2
Fore
SplineSet
527.896484375 824 m 1x08
 508.896484375 794 l 1
 508.896484375 794 277.896484375 884 177.896484375 922 c 0
 156.896484375 930 150.896484375 949 151.896484375 962 c 0
 154.896484375 993 172.896484375 1003 205.896484375 1003 c 0
 261.896484375 1003 527.896484375 824 527.896484375 824 c 1x08
185 86 m 2x70
 170 38 199 38 238 38 c 1
 238 0 l 1
 71 0 l 1
 71 38 l 1xb0
 110 38 114 42 131 86 c 2
 331 763 l 1
 400 763 l 1
 620 71 l 2
 628 50 632 35 688 50 c 1
 695 17 l 1
 634 -3 614 -6 586 -6 c 0
 558 -6 548 13 537 42 c 2
 479.125976562 229 l 1
 227.6171875 229 l 1
 185 86 l 2x70
239.33203125 269 m 1
 466.540039062 269 l 1
 350.79296875 643 l 1
 239.33203125 269 l 1
EndSplineSet
EndChar

StartChar: Aacute
Encoding: 193 193 131
Width: 751
Flags: MW
HStem: 0 38<65 84.5 212.5 232 65 84.5> 17 33<682 689> 229 40<233.332 460.54 233.332 473.126 221.617 460.54> 743 20G<325 394 394 394> 795 21G<190.793 190.793>
LayerCount: 2
Fore
SplineSet
190.79296875 795 m 1x08
 170.79296875 831 l 1
 442.79296875 985 l 1
 442.79296875 985 481.79296875 1010 510.79296875 1010 c 0
 536.79296875 1010 572.79296875 1002 572.79296875 962 c 0
 572.79296875 930 539.79296875 906 478.79296875 886 c 0
 336.79296875 840 190.79296875 795 190.79296875 795 c 1x08
179 86 m 2x70
 164 38 193 38 232 38 c 1
 232 0 l 1
 65 0 l 1
 65 38 l 1xb0
 104 38 108 42 125 86 c 2
 325 763 l 1
 394 763 l 1
 614 71 l 2
 622 50 626 35 682 50 c 1
 689 17 l 1
 628 -3 608 -6 580 -6 c 0
 552 -6 542 13 531 42 c 2
 473.125976562 229 l 1
 221.6171875 229 l 1
 179 86 l 2x70
233.33203125 269 m 1
 460.540039062 269 l 1
 344.79296875 643 l 1
 233.33203125 269 l 1
EndSplineSet
EndChar

StartChar: Acircumflex
Encoding: 194 194 132
Width: 751
Flags: MW
HStem: 0 38<65 84.5 212.5 232 65 84.5> 17 33<682 689> 229 40<233.332 460.54 233.332 473.126 221.617 460.54> 743 20G<325 394 394 394> 936 107<326.793 338.793 338.793 349.793>
LayerCount: 2
Fore
SplineSet
122.79296875 869 m 1x08
 310.79296875 1064 301.79296875 1043 322.79296875 1043 c 2
 356.79296875 1043 l 2
 373.79296875 1043 363.79296875 1054 563.79296875 870 c 1
 505.79296875 835 l 1
 366.79296875 925 367.79296875 936 349.79296875 936 c 2
 338.79296875 936 l 2
 314.79296875 936 303.79296875 926 171.79296875 827 c 1
 122.79296875 869 l 1x08
179 86 m 2x70
 164 38 193 38 232 38 c 1
 232 0 l 1
 65 0 l 1
 65 38 l 1xb0
 104 38 108 42 125 86 c 2
 325 763 l 1
 394 763 l 1
 614 71 l 2
 622 50 626 35 682 50 c 1
 689 17 l 1
 628 -3 608 -6 580 -6 c 0
 552 -6 542 13 531 42 c 2
 473.125976562 229 l 1
 221.6171875 229 l 1
 179 86 l 2x70
233.33203125 269 m 1
 460.540039062 269 l 1
 344.79296875 643 l 1
 233.33203125 269 l 1
EndSplineSet
EndChar

StartChar: Atilde
Encoding: 195 195 133
Width: 751
Flags: MW
HStem: 0 38<88 107.5 235.5 255 88 107.5> 17 33<705 712> 229 40<256.332 483.54 256.332 496.126 244.617 483.54> 743 20G<348 417 417 417> 829 69<432.293 485.293 422.793 517.793> 869 70<242.793 299.793 232.293 306.793>
LayerCount: 2
Fore
SplineSet
149.79296875 827 m 1x04
 128.79296875 869 l 1
 128.79296875 869 203.79296875 939 260.79296875 939 c 0x04
 338.79296875 939 382.79296875 898 462.79296875 898 c 0
 507.79296875 898 573.79296875 932 573.79296875 932 c 1
 595.79296875 888 l 1
 595.79296875 888 562.79296875 829 472.79296875 829 c 0x08
 391.79296875 829 346.79296875 869 266.79296875 869 c 0
 218.79296875 869 149.79296875 827 149.79296875 827 c 1x04
202 86 m 2x70
 187 38 216 38 255 38 c 1
 255 0 l 1
 88 0 l 1
 88 38 l 1xb0
 127 38 131 42 148 86 c 2
 348 763 l 1
 417 763 l 1
 637 71 l 2
 645 50 649 35 705 50 c 1
 712 17 l 1
 651 -3 631 -6 603 -6 c 0
 575 -6 565 13 554 42 c 2
 496.125976562 229 l 1
 244.6171875 229 l 1
 202 86 l 2x70
256.33203125 269 m 1
 483.540039062 269 l 1
 367.79296875 643 l 1
 256.33203125 269 l 1
EndSplineSet
EndChar

StartChar: Adieresis
Encoding: 196 196 134
Width: 751
Flags: MW
HStem: 0 38<65 84.5 212.5 232 65 84.5> 17 33<682 689> 229 40<233.332 460.54 233.332 473.126 221.617 460.54> 743 20G<325 394 394 394> 826 132<201.293 233.293 448.293 480.293>
VStem: 153.793 130 400.793 130
LayerCount: 2
Fore
SplineSet
215.79296875 958 m 0x0e
 262.79296875 958 283.79296875 926 283.79296875 894 c 0
 283.79296875 853 246.79296875 826 219.79296875 826 c 0
 182.79296875 826 153.79296875 859 153.79296875 896 c 0
 153.79296875 930 181.79296875 958 215.79296875 958 c 0x0e
461.79296875 958 m 0
 508.79296875 958 530.79296875 926 530.79296875 894 c 0
 530.79296875 853 493.79296875 826 466.79296875 826 c 0
 429.79296875 826 400.79296875 859 400.79296875 896 c 0
 400.79296875 930 427.79296875 958 461.79296875 958 c 0
179 86 m 2x70
 164 38 193 38 232 38 c 1
 232 0 l 1
 65 0 l 1
 65 38 l 1xb0
 104 38 108 42 125 86 c 2
 325 763 l 1
 394 763 l 1
 614 71 l 2
 622 50 626 35 682 50 c 1
 689 17 l 1
 628 -3 608 -6 580 -6 c 0
 552 -6 542 13 531 42 c 2
 473.125976562 229 l 1
 221.6171875 229 l 1
 179 86 l 2x70
233.33203125 269 m 1
 460.540039062 269 l 1
 344.79296875 643 l 1
 233.33203125 269 l 1
EndSplineSet
EndChar

StartChar: Aring
Encoding: 197 197 135
Width: 751
Flags: MW
HStem: 0 38<65 84.5 212.5 232 65 84.5> 17 33<682 689> 229 40<233.332 460.54 233.332 473.126 221.617 460.54> 743 20G<325 394 394 394> 763.133 266
VStem: 215.799 246
LayerCount: 2
Fore
SplineSet
339.798828125 1029.1328125 m 0x0c
 410.798828125 1028.1328125 465.798828125 964.1328125 461.798828125 893.1328125 c 0
 457.798828125 820.1328125 411.798828125 763.1328125 324.798828125 763.1328125 c 0
 263.798828125 763.1328125 211.798828125 831.1328125 215.798828125 898.1328125 c 0
 219.798828125 968.1328125 269.798828125 1030.1328125 339.798828125 1029.1328125 c 0x0c
318.798828125 996.1328125 m 0
 280.798828125 989.1328125 248.798828125 944.1328125 263.798828125 877.1328125 c 0
 274.798828125 825.1328125 321.798828125 784.1328125 368.798828125 799.1328125 c 0
 416.798828125 815.1328125 420.798828125 873.1328125 414.798828125 909.1328125 c 0
 405.798828125 963.1328125 374.798828125 1006.1328125 318.798828125 996.1328125 c 0
179 86 m 2x70
 164 38 193 38 232 38 c 1
 232 0 l 1
 65 0 l 1
 65 38 l 1xb0
 104 38 108 42 125 86 c 2
 325 763 l 1
 394 763 l 1
 614 71 l 2
 622 50 626 35 682 50 c 1
 689 17 l 1
 628 -3 608 -6 580 -6 c 0
 552 -6 542 13 531 42 c 2
 473.125976562 229 l 1
 221.6171875 229 l 1
 179 86 l 2x70
233.33203125 269 m 1
 460.540039062 269 l 1
 344.79296875 643 l 1
 233.33203125 269 l 1
EndSplineSet
EndChar

StartChar: AE
Encoding: 198 198 136
Width: 837
Flags: MW
HStem: 0 38<-1 18.5 142.5 162 -1 18.5 310 334.5> 229 40<178.539 360 178.539 360 166.617 360> 380 50<461 635 469 635 635 637> 726 37<487 660 487 487>
VStem: 360 84<86 229 229 229 269 357 470.5 479 479 619.469 619.469 619.469> 709 36<304 321> 776 35<110.4 183>
LayerCount: 2
Fore
SplineSet
806 763 m 1
 807 620 l 1
 771 620 l 1
 771 657 767 726 660 726 c 2
 487 726 l 1
 487 726 444 716 444 677 c 2
 444 479 l 2
 444 462 447 430 469 430 c 2
 635 430 l 2
 706 430 713 476 713 499 c 1
 745 499 l 1
 745 304 l 1
 709 304 l 1
 709 338 699 380 637 380 c 2
 467 380 l 2
 455 380 444 378 444 357 c 2
 444 86 l 2
 444 48 450 37.7998046875 479 38 c 0
 729.994140625 39.732421875 776 37.7998046875 776 183 c 1
 811 183 l 1
 811 0 l 1
 310 0 l 1
 310 38 l 1
 359 38 360 38 360 86 c 2
 360 229 l 1
 166.6171875 229 l 1
 113 86 l 2
 98 38 123 38 162 38 c 1
 162 0 l 1
 -1 0 l 1
 -1 38 l 1
 38 38 42 42 59 86 c 2
 339 763 l 1
 360 763 l 1
 427 763 l 1
 806 763 l 1
360 269 m 1
 360 619.46875 l 1
 359 713 l 1
 178.5390625 269 l 1
 360 269 l 1
EndSplineSet
EndChar

StartChar: Ccedilla
Encoding: 199 199 137
Width: 605
Flags: MW
HStem: -244 34<287.587 329.587 287.587 365.587> -26 20G<292.087 336.087 336.087 336.087> -14 52<267.207 397.707> 714 49<246.207 410.707>
VStem: 28.707 105<249 395 249 436.5> 292.087 44 504.707 34<597 634.5>
LayerCount: 2
Fore
SplineSet
292.086914062 -6 m 1xc4
 336.086914062 -6 l 1
 325.086914062 -66 l 1
 325.086914062 -66 474.086914062 -51 454.086914062 -171 c 0
 447.181640625 -212.428710938 423.086914062 -244 308.086914062 -244 c 0
 240.086914062 -244 185.086914062 -211 185.086914062 -211 c 1
 202.086914062 -189 l 1
 202.086914062 -189 266.086914062 -210 309.086914062 -210 c 0
 350.086914062 -210 403.086914062 -200 403.086914062 -154 c 0
 403.086914062 -80 283.086914062 -115 283.086914062 -115 c 1
 292.086914062 -6 l 1xc4
357.70703125 763 m 0x3a
 478.70703125 763 538.70703125 721 538.70703125 721 c 1
 538.70703125 597 l 1
 504.70703125 597 l 1
 504.70703125 672 469.70703125 714 351.70703125 714 c 0
 140.70703125 714 133.70703125 479 133.70703125 311 c 0
 133.70703125 187 204.70703125 38 329.70703125 38 c 0
 539.70703125 38 515.70703125 186 515.70703125 186 c 1
 561.70703125 186 l 1
 561.70703125 59 l 1
 561.70703125 59 481.70703125 -14 313.70703125 -14 c 0
 120.70703125 -14 28.70703125 159 28.70703125 328 c 0
 28.70703125 545 79.70703125 763 357.70703125 763 c 0x3a
EndSplineSet
EndChar

StartChar: Egrave
Encoding: 200 200 138
Width: 647
Flags: MW
HStem: 0 38<55.1885 79.6885 232.688 244.188 244.188 465.188> 380 50<232.188 234.188 234.188 400.188> 726 37<56.1885 75.6885 252.188 425.188 425.188 478.688> 922 81
VStem: 125.188 84 474.188 36 541.188 35
LayerCount: 2
Fore
SplineSet
486.1875 824 m 1
 467.1875 794 l 1
 467.1875 794 236.1875 884 136.1875 922 c 0
 115.1875 930 109.1875 949 110.1875 962 c 0
 113.1875 993 131.1875 1003 164.1875 1003 c 0
 220.1875 1003 486.1875 824 486.1875 824 c 1
474.188476562 304 m 1
 510.188476562 304 l 1
 510.188476562 499 l 1
 478.188476562 499 l 1
 478.188476562 476 471.188476562 430 400.188476562 430 c 2
 234.188476562 430 l 2
 212.188476562 430 209.188476562 462 209.188476562 479 c 2
 209.188476562 677 l 2
 209.188476562 716 252.188476562 726 252.188476562 726 c 1
 425.188476562 726 l 2
 532.188476562 726 536.188476562 657 536.188476562 620 c 1
 572.188476562 620 l 1
 571.188476562 763 l 1
 56.1884765625 763 l 1
 56.1884765625 726 l 1
 95.1884765625 726 125.188476562 721 125.188476562 677 c 2
 125.188476562 86 l 2
 125.188476562 38 104.188476562 38 55.1884765625 38 c 1
 55.1884765625 0 l 1
 576.188476562 0 l 1
 576.188476562 183 l 1
 541.188476562 183 l 1
 541.188476562 86 530.188476562 38 465.188476562 38 c 2
 244.188476562 38 l 2
 221.188476562 38 209.188476562 48 209.188476562 86 c 2
 209.188476562 357 l 2
 209.188476562 378 220.188476562 380 232.188476562 380 c 2
 402.188476562 380 l 2
 464.188476562 380 474.188476562 338 474.188476562 304 c 1
EndSplineSet
EndChar

StartChar: Eacute
Encoding: 201 201 139
Width: 647
Flags: MW
HStem: 0 38<54.1885 78.6885 231.688 243.188 243.188 464.188> 380 50<231.188 233.188 233.188 399.188> 726 37<55.1885 74.6885 251.188 424.188 424.188 477.688> 795 21G<156.188 156.188>
VStem: 124.188 84<62 357 86 357 357 367.5 479 677> 473.188 36<304 321> 540.188 35<134.5 183>
LayerCount: 2
Fore
SplineSet
156.188476562 795 m 1
 136.188476562 831 l 1
 408.188476562 985 l 1
 408.188476562 985 447.188476562 1010 476.188476562 1010 c 0
 502.188476562 1010 538.188476562 1002 538.188476562 962 c 0
 538.188476562 930 505.188476562 906 444.188476562 886 c 0
 302.188476562 840 156.188476562 795 156.188476562 795 c 1
473.188476562 304 m 1
 509.188476562 304 l 1
 509.188476562 499 l 1
 477.188476562 499 l 1
 477.188476562 476 470.188476562 430 399.188476562 430 c 2
 233.188476562 430 l 2
 211.188476562 430 208.188476562 462 208.188476562 479 c 2
 208.188476562 677 l 2
 208.188476562 716 251.188476562 726 251.188476562 726 c 1
 424.188476562 726 l 2
 531.188476562 726 535.188476562 657 535.188476562 620 c 1
 571.188476562 620 l 1
 570.188476562 763 l 1
 55.1884765625 763 l 1
 55.1884765625 726 l 1
 94.1884765625 726 124.188476562 721 124.188476562 677 c 2
 124.188476562 86 l 2
 124.188476562 38 103.188476562 38 54.1884765625 38 c 1
 54.1884765625 0 l 1
 575.188476562 0 l 1
 575.188476562 183 l 1
 540.188476562 183 l 1
 540.188476562 86 529.188476562 38 464.188476562 38 c 2
 243.188476562 38 l 2
 220.188476562 38 208.188476562 48 208.188476562 86 c 2
 208.188476562 357 l 2
 208.188476562 378 219.188476562 380 231.188476562 380 c 2
 401.188476562 380 l 2
 463.188476562 380 473.188476562 338 473.188476562 304 c 1
EndSplineSet
EndChar

StartChar: Ecircumflex
Encoding: 202 202 140
Width: 647
Flags: MW
HStem: 0 38<52.1885 76.6885 229.688 241.188 241.188 462.188> 380 50<229.188 231.188 231.188 397.188> 726 37<53.1885 72.6885 249.188 422.188 422.188 475.688> 936 107<314.188 326.188 326.188 337.188>
VStem: 122.188 84<62 357 86 357 357 367.5 479 677> 471.188 36<304 321> 538.188 35<134.5 183>
LayerCount: 2
Fore
SplineSet
110.188476562 869 m 1
 298.188476562 1064 289.188476562 1043 310.188476562 1043 c 2
 344.188476562 1043 l 2
 361.188476562 1043 351.188476562 1054 551.188476562 870 c 1
 493.188476562 835 l 1
 354.188476562 925 355.188476562 936 337.188476562 936 c 2
 326.188476562 936 l 2
 302.188476562 936 291.188476562 926 159.188476562 827 c 1
 110.188476562 869 l 1
471.188476562 304 m 1
 507.188476562 304 l 1
 507.188476562 499 l 1
 475.188476562 499 l 1
 475.188476562 476 468.188476562 430 397.188476562 430 c 2
 231.188476562 430 l 2
 209.188476562 430 206.188476562 462 206.188476562 479 c 2
 206.188476562 677 l 2
 206.188476562 716 249.188476562 726 249.188476562 726 c 1
 422.188476562 726 l 2
 529.188476562 726 533.188476562 657 533.188476562 620 c 1
 569.188476562 620 l 1
 568.188476562 763 l 1
 53.1884765625 763 l 1
 53.1884765625 726 l 1
 92.1884765625 726 122.188476562 721 122.188476562 677 c 2
 122.188476562 86 l 2
 122.188476562 38 101.188476562 38 52.1884765625 38 c 1
 52.1884765625 0 l 1
 573.188476562 0 l 1
 573.188476562 183 l 1
 538.188476562 183 l 1
 538.188476562 86 527.188476562 38 462.188476562 38 c 2
 241.188476562 38 l 2
 218.188476562 38 206.188476562 48 206.188476562 86 c 2
 206.188476562 357 l 2
 206.188476562 378 217.188476562 380 229.188476562 380 c 2
 399.188476562 380 l 2
 461.188476562 380 471.188476562 338 471.188476562 304 c 1
EndSplineSet
EndChar

StartChar: Edieresis
Encoding: 203 203 141
Width: 647
Flags: MW
HStem: 0 38<54.1885 78.6885 231.688 243.188 243.188 464.188> 380 50<231.188 233.188 233.188 399.188> 726 37<55.1885 74.6885 251.188 424.188 424.188 477.688> 826 132<203.688 235.688 450.688 482.688>
VStem: 124.188 84<62 357 86 357 357 367.5 479 677> 156.188 130 403.188 130 473.188 36<304 321> 540.188 35<134.5 183>
LayerCount: 2
Fore
SplineSet
218.188476562 958 m 0x16
 265.188476562 958 286.188476562 926 286.188476562 894 c 0
 286.188476562 853 249.188476562 826 222.188476562 826 c 0
 185.188476562 826 156.188476562 859 156.188476562 896 c 0
 156.188476562 930 184.188476562 958 218.188476562 958 c 0x16
464.188476562 958 m 0
 511.188476562 958 533.188476562 926 533.188476562 894 c 0
 533.188476562 853 496.188476562 826 469.188476562 826 c 0
 432.188476562 826 403.188476562 859 403.188476562 896 c 0
 403.188476562 930 430.188476562 958 464.188476562 958 c 0
473.188476562 304 m 1xe980
 509.188476562 304 l 1
 509.188476562 499 l 1
 477.188476562 499 l 1
 477.188476562 476 470.188476562 430 399.188476562 430 c 2
 233.188476562 430 l 2
 211.188476562 430 208.188476562 462 208.188476562 479 c 2
 208.188476562 677 l 2
 208.188476562 716 251.188476562 726 251.188476562 726 c 1
 424.188476562 726 l 2
 531.188476562 726 535.188476562 657 535.188476562 620 c 1
 571.188476562 620 l 1
 570.188476562 763 l 1
 55.1884765625 763 l 1
 55.1884765625 726 l 1
 94.1884765625 726 124.188476562 721 124.188476562 677 c 2
 124.188476562 86 l 2
 124.188476562 38 103.188476562 38 54.1884765625 38 c 1
 54.1884765625 0 l 1
 575.188476562 0 l 1
 575.188476562 183 l 1
 540.188476562 183 l 1
 540.188476562 86 529.188476562 38 464.188476562 38 c 2
 243.188476562 38 l 2
 220.188476562 38 208.188476562 48 208.188476562 86 c 2
 208.188476562 357 l 2
 208.188476562 378 219.188476562 380 231.188476562 380 c 2
 401.188476562 380 l 2
 463.188476562 380 473.188476562 338 473.188476562 304 c 1xe980
EndSplineSet
EndChar

StartChar: Igrave
Encoding: 204 204 142
Width: 445
Flags: MW
HStem: 0 38<335 365 30 30> 726 37<34 64 34 363> 922 81
VStem: 156 84<86 677>
LayerCount: 2
Fore
SplineSet
390 824 m 1
 371 794 l 1
 371 794 140 884 40 922 c 0
 19 930 13 949 14 962 c 0
 17 993 35 1003 68 1003 c 0
 124 1003 390 824 390 824 c 1
156 677 m 2
 156 725 94 726 34 726 c 1
 34 763 l 1
 363 763 l 1
 363 726 l 1
 276 727 240 721 240 677 c 2
 240 86 l 2
 240 38 305 38 365 38 c 1
 365 0 l 1
 30 0 l 1
 30 38 l 1
 117 37 156 42 156 86 c 2
 156 677 l 2
EndSplineSet
EndChar

StartChar: Iacute
Encoding: 205 205 143
Width: 445
Flags: MW
HStem: 0 38<343 373 38 38> 726 37<42 72 42 371> 795 21G<49 49>
VStem: 164 84<86 677>
LayerCount: 2
Fore
SplineSet
49 795 m 1
 29 831 l 1
 301 985 l 1
 301 985 340 1010 369 1010 c 0
 395 1010 431 1002 431 962 c 0
 431 930 398 906 337 886 c 0
 195 840 49 795 49 795 c 1
164 677 m 2
 164 725 102 726 42 726 c 1
 42 763 l 1
 371 763 l 1
 371 726 l 1
 284 727 248 721 248 677 c 2
 248 86 l 2
 248 38 313 38 373 38 c 1
 373 0 l 1
 38 0 l 1
 38 38 l 1
 125 37 164 42 164 86 c 2
 164 677 l 2
EndSplineSet
EndChar

StartChar: Icircumflex
Encoding: 206 206 144
Width: 445
Flags: MW
HStem: 0 38<336 366 31 31> 726 37<35 65 35 364> 936 107<185 197 197 208>
VStem: 157 84<86 677>
LayerCount: 2
Fore
SplineSet
-19 869 m 1
 169 1064 160 1043 181 1043 c 2
 215 1043 l 2
 232 1043 222 1054 422 870 c 1
 364 835 l 1
 225 925 226 936 208 936 c 2
 197 936 l 2
 173 936 162 926 30 827 c 1
 -19 869 l 1
157 677 m 2
 157 725 95 726 35 726 c 1
 35 763 l 1
 364 763 l 1
 364 726 l 1
 277 727 241 721 241 677 c 2
 241 86 l 2
 241 38 306 38 366 38 c 1
 366 0 l 1
 31 0 l 1
 31 38 l 1
 118 37 157 42 157 86 c 2
 157 677 l 2
EndSplineSet
EndChar

StartChar: Idieresis
Encoding: 207 207 145
Width: 445
Flags: MW
HStem: 0 38<341 371 36 36> 726 37<40 70 40 369> 826 132<62.5 94.5 309.5 341.5>
VStem: 15 130<877.5 910 873.5 913> 162 84<86 677> 262 130<877.5 910 873.5 913>
LayerCount: 2
Fore
SplineSet
77 958 m 0
 124 958 145 926 145 894 c 0
 145 853 108 826 81 826 c 0
 44 826 15 859 15 896 c 0
 15 930 43 958 77 958 c 0
323 958 m 0
 370 958 392 926 392 894 c 0
 392 853 355 826 328 826 c 0
 291 826 262 859 262 896 c 0
 262 930 289 958 323 958 c 0
162 677 m 2
 162 725 100 726 40 726 c 1
 40 763 l 1
 369 763 l 1
 369 726 l 1
 282 727 246 721 246 677 c 2
 246 86 l 2
 246 38 311 38 371 38 c 1
 371 0 l 1
 36 0 l 1
 36 38 l 1
 123 37 162 42 162 86 c 2
 162 677 l 2
EndSplineSet
EndChar

StartChar: Eth
Encoding: 208 208 146
Width: 724
Flags: MW
HStem: 0 35<316 327 316 393> 341.523 52 716 47<289 307 307 371> 726 37<94 118.5>
VStem: 153 84<86 341.522 393.822 677> 549 95<309 481.5 241.5 518>
LayerCount: 2
Fore
SplineSet
393 0 m 2xec
 95 0 l 1
 95 38 l 1
 134 38 153 42 153 86 c 2
 153 341.822265625 l 1
 95 342 l 1
 95 394 l 1
 153 393.822265625 l 1
 153 677 l 2
 153 725 143 726 94 726 c 1
 94 763 l 1xdc
 307 763 l 2
 563 763 644 618 644 345 c 0
 644 138 574 0 393 0 c 2xec
237 393.522460938 m 1
 408 393 l 1
 408 341 l 1
 237 341.522460938 l 1
 237 86 l 2
 237 38 305 35 327 35 c 0
 546 38 549 208 549 410 c 0
 549 626 437 716 305 716 c 0xec
 273 716 237 721 237 677 c 2
 237 393.522460938 l 1
EndSplineSet
EndChar

StartChar: Ntilde
Encoding: 209 209 147
Width: 777
Flags: MW
HStem: 0 38<85.1885 104.688 230.688 250.188> 726 37<70.1885 89.6885 602.188 626.688> 829 69<492.688 545.688 483.188 578.188> 869 70<303.188 360.188 292.688 367.188>
VStem: 143.188 45<64 628 86 628 86 677> 661.188 45<158.44 677 158.44 158.44>
LayerCount: 2
Fore
SplineSet
210.188476562 827 m 1x10
 189.188476562 869 l 1
 189.188476562 869 264.188476562 939 321.188476562 939 c 0x10
 399.188476562 939 443.188476562 898 523.188476562 898 c 0
 568.188476562 898 634.188476562 932 634.188476562 932 c 1
 656.188476562 888 l 1
 656.188476562 888 623.188476562 829 533.188476562 829 c 0x20
 452.188476562 829 407.188476562 869 327.188476562 869 c 0
 279.188476562 869 210.188476562 827 210.188476562 827 c 1x10
706.188476562 86 m 2xcc
 706.188476562 677 l 2
 706.188476562 721 722.188476562 727 777.188476562 726 c 1
 777.188476562 763 l 1
 602.188476562 763 l 1
 602.188476562 726 l 1
 651.188476562 726 661.188476562 725 661.188476562 677 c 2
 661.188476562 158.440429688 l 1
 201.188476562 763 l 1
 70.1884765625 763 l 1
 70.1884765625 726 l 1
 109.188476562 726 143.188476562 725 143.188476562 677 c 2
 143.188476562 86 l 2
 143.188476562 42 124.188476562 38 85.1884765625 38 c 1
 85.1884765625 0 l 1
 250.188476562 0 l 1
 250.188476562 38 l 1
 211.188476562 38 188.188476562 38 188.188476562 86 c 2
 188.188476562 628 l 1
 662.188476562 0 l 1
 705.188476562 0 l 1
 706.188476562 76 l 1
 705.610351562 77.05859375 l 2
 705.987304688 79.80859375 706.188476562 82.7880859375 706.188476562 86 c 2xcc
EndSplineSet
EndChar

StartChar: Ograve
Encoding: 210 210 148
Width: 764
Flags: MW
HStem: -14 53<324.5 443.5 324.5 445.5> 724 48<261 394> 909 81
VStem: 560 90<252.5 442 252.5 443>
LayerCount: 2
Fore
SplineSet
538 811 m 1
 519 781 l 1
 519 781 288 871 188 909 c 0
 167 917 161 936 162 949 c 0
 165 980 183 990 216 990 c 0
 272 990 538 811 538 811 c 1
373 772 m 0
 94 772 21.9892578125 542.735351562 53 314 c 0
 75.3525390625 149.123046875 187 -14 350 -14 c 0
 541 -14 650 153 650 352 c 0
 650 532 592 772 373 772 c 0
316 724 m 0
 472 724 560 541 560 345 c 0
 560 160 496 39 391 39 c 0
 258 39 168.3359375 203.009765625 151 318 c 0
 107.998046875 603.236328125 206 724 316 724 c 0
EndSplineSet
EndChar

StartChar: Oacute
Encoding: 211 211 149
Width: 764
Flags: MW
HStem: -14 53<323.5 442.5 323.5 444.5> 724 48<260 393> 781 21<213 213>
VStem: 559 90<252.5 442 252.5 443>
LayerCount: 2
Fore
SplineSet
213 781 m 1
 193 817 l 1
 465 971 l 1
 465 971 504 996 533 996 c 0
 559 996 595 988 595 948 c 0
 595 916 562 892 501 872 c 0
 359 826 213 781 213 781 c 1
372 772 m 0
 93 772 20.9892578125 542.735351562 52 314 c 0
 74.3525390625 149.123046875 186 -14 349 -14 c 0
 540 -14 649 153 649 352 c 0
 649 532 591 772 372 772 c 0
315 724 m 0
 471 724 559 541 559 345 c 0
 559 160 495 39 390 39 c 0
 257 39 167.3359375 203.009765625 150 318 c 0
 106.998046875 603.236328125 205 724 315 724 c 0
EndSplineSet
EndChar

StartChar: Ocircumflex
Encoding: 212 212 150
Width: 764
Flags: MW
HStem: -14 53<327.5 446.5 327.5 448.5> 724 48<264 397> 922 107<354 366 366 377>
VStem: 563 90<252.5 442 252.5 443>
LayerCount: 2
Fore
SplineSet
150 855 m 1
 338 1050 329 1029 350 1029 c 2
 384 1029 l 2
 401 1029 391 1040 591 856 c 1
 533 821 l 1
 394 911 395 922 377 922 c 2
 366 922 l 2
 342 922 331 912 199 813 c 1
 150 855 l 1
376 772 m 0
 97 772 24.9892578125 542.735351562 56 314 c 0
 78.3525390625 149.123046875 190 -14 353 -14 c 0
 544 -14 653 153 653 352 c 0
 653 532 595 772 376 772 c 0
319 724 m 0
 475 724 563 541 563 345 c 0
 563 160 499 39 394 39 c 0
 261 39 171.3359375 203.009765625 154 318 c 0
 110.998046875 603.236328125 209 724 319 724 c 0
EndSplineSet
EndChar

StartChar: Otilde
Encoding: 213 213 151
Width: 764
Flags: MW
HStem: -14 53<324.5 443.5 324.5 445.5> 724 48<261 394> 815 69<432.5 485.5 423 518> 855 70<243 300 232.5 307>
VStem: 560 90<252.5 442 252.5 443>
LayerCount: 2
Fore
SplineSet
150 813 m 1x10
 129 855 l 1
 129 855 204 925 261 925 c 0x10
 339 925 383 884 463 884 c 0
 508 884 574 918 574 918 c 1
 596 874 l 1
 596 874 563 815 473 815 c 0x20
 392 815 347 855 267 855 c 0
 219 855 150 813 150 813 c 1x10
373 772 m 0xc8
 94 772 21.9892578125 542.735351562 53 314 c 0
 75.3525390625 149.123046875 187 -14 350 -14 c 0
 541 -14 650 153 650 352 c 0
 650 532 592 772 373 772 c 0xc8
316 724 m 0
 472 724 560 541 560 345 c 0
 560 160 496 39 391 39 c 0
 258 39 168.3359375 203.009765625 151 318 c 0
 107.998046875 603.236328125 206 724 316 724 c 0
EndSplineSet
EndChar

StartChar: Odieresis
Encoding: 214 214 152
Width: 764
Flags: MW
HStem: 0.150391 53<324.5 443.5 324.5 445.5> 738.15 48 812 132<217.5 249.5 464.5 496.5>
VStem: 170 130<863.5 896 859.5 899> 417 130<863.5 896 859.5 899> 560 90<266.65 456.15 266.65 457.15>
LayerCount: 2
Fore
SplineSet
232 944 m 0
 279 944 300 912 300 880 c 0
 300 839 263 812 236 812 c 0
 199 812 170 845 170 882 c 0
 170 916 198 944 232 944 c 0
478 944 m 0
 525 944 547 912 547 880 c 0
 547 839 510 812 483 812 c 0
 446 812 417 845 417 882 c 0
 417 916 444 944 478 944 c 0
373 786.150390625 m 0
 94 786.150390625 21.9892578125 556.885742188 53 328.150390625 c 0
 75.3525390625 163.2734375 187 0.150390625 350 0.150390625 c 0
 541 0.150390625 650 167.150390625 650 366.150390625 c 0
 650 546.150390625 592 786.150390625 373 786.150390625 c 0
316 738.150390625 m 0
 472 738.150390625 560 555.150390625 560 359.150390625 c 0
 560 174.150390625 496 53.150390625 391 53.150390625 c 0
 258 53.150390625 168.3359375 217.16015625 151 332.150390625 c 0
 107.998046875 617.38671875 206 738.150390625 316 738.150390625 c 0
EndSplineSet
EndChar

StartChar: multiply
Encoding: 215 215 153
Width: 724
Flags: W
LayerCount: 2
Fore
SplineSet
157 200 m 1
 194 163 l 1
 362.451171875 330.999023438 l 1
 530 163 l 1
 566 199 l 1
 398.499023438 366.951171875 l 1
 567 535 l 1
 531 572 l 1
 361.822265625 403.7265625 l 1
 194 572 l 1
 158 536 l 1
 325.725585938 367.823242188 l 1
 157 200 l 1
EndSplineSet
EndChar

StartChar: Oslash
Encoding: 216 216 154
Width: 724
Flags: MW
HStem: -14 49 691 59
VStem: 68 92 571 86
LayerCount: 2
Fore
SplineSet
380 750 m 0
 111 750 58.001953125 533 68.001953125 314 c 0
 73.318359375 203.678710938 118.385742188 95.1240234375 201.736328125 34.7138671875 c 1
 151.000976562 -99 l 1
 203.000976562 -111 l 1
 248.2109375 8.017578125 l 1
 280.2890625 -6.0927734375 316.5703125 -14 357 -14 c 0
 588 -14 657 183 657 352 c 0
 657 485.591796875 620.094726562 640.115234375 515.21484375 710.9140625 c 1
 535 763 l 1
 483 776 l 1
 467.545898438 735.270507812 l 1
 441.604492188 744.7734375 412.516601562 750 380 750 c 0
442.311523438 668.7578125 m 1
 228.330078125 104.796875 l 1
 175.147460938 174.025390625 160.002929688 275.702148438 160.002929688 317.999023438 c 0
 160.002929688 556.999023438 233.002929688 690.999023438 363.002929688 690.999023438 c 0
 392.263671875 690.999023438 418.772460938 683.087890625 442.311523438 668.7578125 c 1
485.274414062 632.0859375 m 1
 540.752929688 568.87890625 571.00390625 461.713867188 571.00390625 344.998046875 c 0
 571.00390625 159.998046875 496.00390625 34.998046875 365.00390625 34.998046875 c 0
 326.850585938 34.998046875 295.430664062 46.2724609375 269.658203125 64.46875 c 1
 485.274414062 632.0859375 l 1
EndSplineSet
EndChar

StartChar: Ugrave
Encoding: 217 217 155
Width: 719
Flags: MW
HStem: -13 65<279.5 414.5 279.5 451> 726 37<43.5 68 43.5 256.5 426.5 451> 922 81
VStem: 102.5 84<216 677 275 677> 485.5 84<232 677 275 677>
LayerCount: 2
Fore
SplineSet
531 824 m 1
 512 794 l 1
 512 794 281 884 181 922 c 0
 160 930 154 949 155 962 c 0
 158 993 176 1003 209 1003 c 0
 265 1003 531 824 531 824 c 1
186.5 275 m 2
 186.5 677 l 2
 186.5 721 201.5 727 256.5 726 c 1
 256.5 763 l 1
 43.5 763 l 1
 43.5 726 l 1
 92.5 726 102.5 725 102.5 677 c 2
 102.5 275 l 2
 102.5 157 122.5 -13 348.5 -13 c 0
 553.5 -13 569.5 153 569.5 275 c 2
 569.5 677 l 2
 569.5 721 584.5 727 639.5 726 c 1
 639.5 763 l 1
 426.5 763 l 1
 426.5 726 l 1
 475.5 726 485.5 725 485.5 677 c 2
 485.5 275 l 2
 485.5 189 480.5 52 348.5 52 c 0
 210.5 52 186.5 174 186.5 275 c 2
EndSplineSet
EndChar

StartChar: Uacute
Encoding: 218 218 156
Width: 719
Flags: MW
HStem: -13 65<235.5 370.5 235.5 407> 726 37<-0.5 24 -0.5 212.5 382.5 407> 795 21G<112 112>
VStem: 58.5 84<216 677 275 677> 441.5 84<232 677 275 677>
LayerCount: 2
Fore
SplineSet
112 795 m 1
 92 831 l 1
 364 985 l 1
 364 985 403 1010 432 1010 c 0
 458 1010 494 1002 494 962 c 0
 494 930 461 906 400 886 c 0
 258 840 112 795 112 795 c 1
142.5 275 m 2
 142.5 677 l 2
 142.5 721 157.5 727 212.5 726 c 1
 212.5 763 l 1
 -0.5 763 l 1
 -0.5 726 l 1
 48.5 726 58.5 725 58.5 677 c 2
 58.5 275 l 2
 58.5 157 78.5 -13 304.5 -13 c 0
 509.5 -13 525.5 153 525.5 275 c 2
 525.5 677 l 2
 525.5 721 540.5 727 595.5 726 c 1
 595.5 763 l 1
 382.5 763 l 1
 382.5 726 l 1
 431.5 726 441.5 725 441.5 677 c 2
 441.5 275 l 2
 441.5 189 436.5 52 304.5 52 c 0
 166.5 52 142.5 174 142.5 275 c 2
EndSplineSet
EndChar

StartChar: Ucircumflex
Encoding: 219 219 157
Width: 719
Flags: MW
HStem: -13 65<274.5 409.5 274.5 446> 726 37<38.5 63 38.5 251.5 421.5 446> 936 107<357 369 369 380>
VStem: 97.5 84<216 677 275 677> 480.5 84<232 677 275 677>
LayerCount: 2
Fore
SplineSet
153 869 m 1
 341 1064 332 1043 353 1043 c 2
 387 1043 l 2
 404 1043 394 1054 594 870 c 1
 536 835 l 1
 397 925 398 936 380 936 c 2
 369 936 l 2
 345 936 334 926 202 827 c 1
 153 869 l 1
181.5 275 m 2
 181.5 677 l 2
 181.5 721 196.5 727 251.5 726 c 1
 251.5 763 l 1
 38.5 763 l 1
 38.5 726 l 1
 87.5 726 97.5 725 97.5 677 c 2
 97.5 275 l 2
 97.5 157 117.5 -13 343.5 -13 c 0
 548.5 -13 564.5 153 564.5 275 c 2
 564.5 677 l 2
 564.5 721 579.5 727 634.5 726 c 1
 634.5 763 l 1
 421.5 763 l 1
 421.5 726 l 1
 470.5 726 480.5 725 480.5 677 c 2
 480.5 275 l 2
 480.5 189 475.5 52 343.5 52 c 0
 205.5 52 181.5 174 181.5 275 c 2
EndSplineSet
EndChar

StartChar: Udieresis
Encoding: 220 220 158
Width: 719
Flags: MW
HStem: -13 65<312.5 447.5 312.5 484> 726 37<76.5 101 76.5 289.5 459.5 484> 826 132<240.5 272.5 487.5 519.5>
VStem: 135.5 84<216 677 275 677> 193 130<877.5 910 873.5 913> 440 130<877.5 910 873.5 913> 518.5 84<232 677 275 677>
LayerCount: 2
Fore
SplineSet
255 958 m 0x2c
 302 958 323 926 323 894 c 0
 323 853 286 826 259 826 c 0
 222 826 193 859 193 896 c 0
 193 930 221 958 255 958 c 0x2c
501 958 m 0
 548 958 570 926 570 894 c 0
 570 853 533 826 506 826 c 0
 469 826 440 859 440 896 c 0
 440 930 467 958 501 958 c 0
219.5 275 m 2xd2
 219.5 677 l 2
 219.5 721 234.5 727 289.5 726 c 1
 289.5 763 l 1
 76.5 763 l 1
 76.5 726 l 1
 125.5 726 135.5 725 135.5 677 c 2
 135.5 275 l 2
 135.5 157 155.5 -13 381.5 -13 c 0
 586.5 -13 602.5 153 602.5 275 c 2
 602.5 677 l 2
 602.5 721 617.5 727 672.5 726 c 1
 672.5 763 l 1
 459.5 763 l 1
 459.5 726 l 1
 508.5 726 518.5 725 518.5 677 c 2
 518.5 275 l 2
 518.5 189 513.5 52 381.5 52 c 0
 243.5 52 219.5 174 219.5 275 c 2xd2
EndSplineSet
EndChar

StartChar: Yacute
Encoding: 221 221 159
Width: 734
Flags: MW
HStem: 0 38<184.188 203.688 409.688 429.188> 729 34<577.688 622.188> 795 21G<24.9121 24.9121>
VStem: 262.188 84<64 331.583 86 331.583 86 333>
LayerCount: 2
Fore
SplineSet
24.912109375 795 m 1
 4.912109375 831 l 1
 276.912109375 985 l 1
 276.912109375 985 315.912109375 1010 344.912109375 1010 c 0
 370.912109375 1010 406.912109375 1002 406.912109375 962 c 0
 406.912109375 930 373.912109375 906 312.912109375 886 c 0
 170.912109375 840 24.912109375 795 24.912109375 795 c 1
262.188476562 86 m 2
 262.188476562 42 223.188476562 38 184.188476562 38 c 1
 184.188476562 0 l 1
 429.188476562 0 l 1
 429.188476562 38 l 1
 390.188476562 38 346.188476562 38 346.188476562 86 c 2
 346.188476562 331.583007812 l 1
 500.188476562 652 l 1
 532.188476562 699 533.188476562 729 622.188476562 729 c 1
 622.188476562 763 l 1
 397.188476562 763 l 1
 397.188476562 727 l 1
 489.188476562 727 457.188476562 689 436.188476562 648 c 2
 319.440429688 411.171875 l 1
 145.188476562 763 l 1
 13.1884765625 763 l 1
 13.1884765625 726 l 1
 53.1884765625 726 61.1884765625 716 77.1884765625 687 c 2
 262.188476562 333 l 1
 262.188476562 86 l 2
EndSplineSet
EndChar

StartChar: germandbls
Encoding: 223 223 160
Width: 724
Flags: MW
HStem: -13 51<449 539.5> 0 38<58 101.5 58 283> 468 50<54 114.5> 749 36
VStem: 182 98<527 538 538 538 538 601>
LayerCount: 2
Fore
SplineSet
282 86 m 2x78
 280 538 l 1
 279 653 l 2
 278.583007812 700.99609375 290.680664062 749 400 749 c 0
 480 749 529 684 509 584 c 0
 485.26953125 465.349609375 350 456 350 456 c 1
 351 416 l 1
 463 416 570.267578125 359.327148438 597 227 c 0
 617 128 578 38 501 38 c 0
 397 38 461 147 363 147 c 0
 321 147 308 117 308 86 c 0
 308 48 334 -13 491 -13 c 0xb8
 642 -13 704.043945312 89.9267578125 680 239 c 0
 660 363 555 445 438 445 c 1
 503 454 588.033203125 504.8671875 600 587 c 0
 622 738 512.044921875 782.838867188 406 785 c 0
 231.010742188 788.565429688 182 704 182 601 c 2
 182 536 l 2
 182 518 175 518 54 518 c 1
 54 468 l 1
 183 467 l 1
 184 86 l 2
 184 42 145 38 58 38 c 1
 58 0 l 1
 283 0 l 1
 283 0 282 38 282 86 c 2x78
EndSplineSet
EndChar

StartChar: agrave
Encoding: 224 224 161
Width: 632
Flags: MW
HStem: -12 53<232.585 270.526> 247.994 42.0039<405.585 405.585> 506 40<323.585 356.085 273.585 367.585> 736 81
VStem: 80.585 101<106.5 171.583 106.5 176.264> 114.585 96 405.585 98<156.928 247.994 247.994 247.994 289.998 395 395 406>
LayerCount: 2
Fore
SplineSet
498.583984375 638 m 1x10
 479.583984375 608 l 1
 479.583984375 608 248.583984375 698 148.583984375 736 c 0
 127.583984375 744 121.583984375 763 122.583984375 776 c 0
 125.583984375 807 143.583984375 817 176.583984375 817 c 0
 232.583984375 817 498.583984375 638 498.583984375 638 c 1x10
114.584960938 417 m 0xe6
 135.584960938 485 224.584960938 546 322.584960938 546 c 0
 389.584960938 546 503.584960938 535 503.584960938 406 c 2
 503.584960938 121 l 2
 503.584960938 88 504.584960938 74 533.584960938 76 c 0
 554.584960938 78 600.584960938 97 600.584960938 97 c 1
 605.546875 66.2333984375 l 2
 603.603515625 71.408203125 553.584960938 -13 471.584960938 -13 c 0
 425.9765625 -13 411.326171875 34.4375 407.033203125 64.98046875 c 1
 373.396484375 13.955078125 311.467773438 -12 229.584960938 -12 c 0
 126.584960938 -11 80.5849609375 43 80.5849609375 110 c 0xea
 80.5849609375 242.528320312 218.599609375 289.665039062 405.584960938 289.998046875 c 1
 405.584960938 395 l 2
 405.584960938 454 411.584960938 506 323.584960938 506 c 0
 230.584960938 505 221.584960938 443 210.584960938 404 c 0
 199.584960938 358 183.584960938 345 151.584960938 354 c 0
 130.584960938 362 106.584960938 378 114.584960938 417 c 0xe6
605.546875 66.2333984375 m 2
 605.546875 66.2333984375 605.584960938 66 605.584960938 66 c 2
 605.584960938 66.0888671875 605.572265625 66.1669921875 605.546875 66.2333984375 c 2
405.584960938 156.927734375 m 1
 405.584960938 247.994140625 l 1
 286.807617188 247.561523438 181.584960938 221.166015625 181.584960938 122 c 0
 181.584960938 91 203.584960938 41 261.584960938 41 c 0
 345.36328125 41 392.130859375 93.705078125 405.584960938 156.927734375 c 1
EndSplineSet
EndChar

StartChar: aacute
Encoding: 225 225 162
Width: 632
Flags: MW
HStem: -12 53<243.585 281.526> 247.994 42.0039<416.585 416.585> 506 40<334.585 367.085 284.585 378.585> 609 21G<176.584 176.584>
VStem: 91.585 101<106.5 171.583 106.5 176.264> 125.585 96 416.585 98<156.928 247.994 247.994 247.994 289.998 395 395 406>
LayerCount: 2
Fore
SplineSet
176.583984375 609 m 1x10
 156.583984375 645 l 1
 428.583984375 799 l 1
 428.583984375 799 467.583984375 824 496.583984375 824 c 0
 522.583984375 824 558.583984375 816 558.583984375 776 c 0
 558.583984375 744 525.583984375 720 464.583984375 700 c 0
 322.583984375 654 176.583984375 609 176.583984375 609 c 1x10
125.584960938 417 m 0xe6
 146.584960938 485 235.584960938 546 333.584960938 546 c 0
 400.584960938 546 514.584960938 535 514.584960938 406 c 2
 514.584960938 121 l 2
 514.584960938 88 515.584960938 74 544.584960938 76 c 0
 565.584960938 78 611.584960938 97 611.584960938 97 c 1
 616.546875 66.2333984375 l 2
 614.603515625 71.408203125 564.584960938 -13 482.584960938 -13 c 0
 436.9765625 -13 422.326171875 34.4375 418.033203125 64.98046875 c 1
 384.396484375 13.955078125 322.467773438 -12 240.584960938 -12 c 0
 137.584960938 -11 91.5849609375 43 91.5849609375 110 c 0xea
 91.5849609375 242.528320312 229.599609375 289.665039062 416.584960938 289.998046875 c 1
 416.584960938 395 l 2
 416.584960938 454 422.584960938 506 334.584960938 506 c 0
 241.584960938 505 232.584960938 443 221.584960938 404 c 0
 210.584960938 358 194.584960938 345 162.584960938 354 c 0
 141.584960938 362 117.584960938 378 125.584960938 417 c 0xe6
616.546875 66.2333984375 m 2
 616.546875 66.2333984375 616.584960938 66 616.584960938 66 c 2
 616.584960938 66.0888671875 616.572265625 66.1669921875 616.546875 66.2333984375 c 2
416.584960938 156.927734375 m 1
 416.584960938 247.994140625 l 1
 297.807617188 247.561523438 192.584960938 221.166015625 192.584960938 122 c 0
 192.584960938 91 214.584960938 41 272.584960938 41 c 0
 356.36328125 41 403.130859375 93.705078125 416.584960938 156.927734375 c 1
EndSplineSet
EndChar

StartChar: acircumflex
Encoding: 226 226 163
Width: 632
Flags: MW
HStem: -12 53<232.585 270.526> 247.994 42.0039<405.585 405.585> 506 40<323.585 356.085 273.585 367.585> 690 107<321.584 333.584 333.584 344.584>
VStem: 80.585 101<106.5 171.583 106.5 176.264> 114.585 96 405.585 98<156.928 247.994 247.994 247.994 289.998 395 395 406>
LayerCount: 2
Fore
SplineSet
117.583984375 623 m 1x10
 305.583984375 818 296.583984375 797 317.583984375 797 c 2
 351.583984375 797 l 2
 368.583984375 797 358.583984375 808 558.583984375 624 c 1
 500.583984375 589 l 1
 361.583984375 679 362.583984375 690 344.583984375 690 c 2
 333.583984375 690 l 2
 309.583984375 690 298.583984375 680 166.583984375 581 c 1
 117.583984375 623 l 1x10
114.584960938 417 m 0xe6
 135.584960938 485 224.584960938 546 322.584960938 546 c 0
 389.584960938 546 503.584960938 535 503.584960938 406 c 2
 503.584960938 121 l 2
 503.584960938 88 504.584960938 74 533.584960938 76 c 0
 554.584960938 78 600.584960938 97 600.584960938 97 c 1
 605.546875 66.2333984375 l 2
 603.603515625 71.408203125 553.584960938 -13 471.584960938 -13 c 0
 425.9765625 -13 411.326171875 34.4375 407.033203125 64.98046875 c 1
 373.396484375 13.955078125 311.467773438 -12 229.584960938 -12 c 0
 126.584960938 -11 80.5849609375 43 80.5849609375 110 c 0xea
 80.5849609375 242.528320312 218.599609375 289.665039062 405.584960938 289.998046875 c 1
 405.584960938 395 l 2
 405.584960938 454 411.584960938 506 323.584960938 506 c 0
 230.584960938 505 221.584960938 443 210.584960938 404 c 0
 199.584960938 358 183.584960938 345 151.584960938 354 c 0
 130.584960938 362 106.584960938 378 114.584960938 417 c 0xe6
605.546875 66.2333984375 m 2
 605.546875 66.2333984375 605.584960938 66 605.584960938 66 c 2
 605.584960938 66.0888671875 605.572265625 66.1669921875 605.546875 66.2333984375 c 2
405.584960938 156.927734375 m 1
 405.584960938 247.994140625 l 1
 286.807617188 247.561523438 181.584960938 221.166015625 181.584960938 122 c 0
 181.584960938 91 203.584960938 41 261.584960938 41 c 0
 345.36328125 41 392.130859375 93.705078125 405.584960938 156.927734375 c 1
EndSplineSet
EndChar

StartChar: atilde
Encoding: 227 227 164
Width: 632
Flags: MW
HStem: -12 53<241.585 279.526> 247.994 42.0039<414.585 414.585> 506 40<332.585 365.085 282.585 376.585> 643 69<409.084 462.084 399.584 494.584> 683 70<219.584 276.584 209.084 283.584>
VStem: 89.585 101<106.5 171.583 106.5 176.264> 123.585 96 414.585 98<156.928 247.994 247.994 247.994 289.998 395 395 406>
LayerCount: 2
Fore
SplineSet
126.583984375 641 m 1x08
 105.583984375 683 l 1
 105.583984375 683 180.583984375 753 237.583984375 753 c 0x08
 315.583984375 753 359.583984375 712 439.583984375 712 c 0
 484.583984375 712 550.583984375 746 550.583984375 746 c 1
 572.583984375 702 l 1
 572.583984375 702 539.583984375 643 449.583984375 643 c 0x10
 368.583984375 643 323.583984375 683 243.583984375 683 c 0
 195.583984375 683 126.583984375 641 126.583984375 641 c 1x08
123.584960938 417 m 0xe3
 144.584960938 485 233.584960938 546 331.584960938 546 c 0
 398.584960938 546 512.584960938 535 512.584960938 406 c 2
 512.584960938 121 l 2
 512.584960938 88 513.584960938 74 542.584960938 76 c 0
 563.584960938 78 609.584960938 97 609.584960938 97 c 1
 614.546875 66.2333984375 l 2
 612.603515625 71.408203125 562.584960938 -13 480.584960938 -13 c 0
 434.9765625 -13 420.326171875 34.4375 416.033203125 64.98046875 c 1
 382.396484375 13.955078125 320.467773438 -12 238.584960938 -12 c 0
 135.584960938 -11 89.5849609375 43 89.5849609375 110 c 0xe5
 89.5849609375 242.528320312 227.599609375 289.665039062 414.584960938 289.998046875 c 1
 414.584960938 395 l 2
 414.584960938 454 420.584960938 506 332.584960938 506 c 0
 239.584960938 505 230.584960938 443 219.584960938 404 c 0
 208.584960938 358 192.584960938 345 160.584960938 354 c 0
 139.584960938 362 115.584960938 378 123.584960938 417 c 0xe3
614.546875 66.2333984375 m 2
 614.546875 66.2333984375 614.584960938 66 614.584960938 66 c 2
 614.584960938 66.0888671875 614.572265625 66.1669921875 614.546875 66.2333984375 c 2
414.584960938 156.927734375 m 1
 414.584960938 247.994140625 l 1
 295.807617188 247.561523438 190.584960938 221.166015625 190.584960938 122 c 0
 190.584960938 91 212.584960938 41 270.584960938 41 c 0
 354.36328125 41 401.130859375 93.705078125 414.584960938 156.927734375 c 1
EndSplineSet
EndChar

StartChar: adieresis
Encoding: 228 228 165
Width: 632
Flags: MW
HStem: -12 53<209.585 247.526> 247.994 42.0039<382.585 382.585> 506 40<300.585 333.085 250.585 344.585> 640 132<170.084 202.084 417.084 449.084>
VStem: 57.585 101<106.5 171.583 106.5 176.264> 91.585 96 122.584 130 369.584 130 382.585 98<156.928 247.994 247.994 247.994 289.998 395 395 406>
LayerCount: 2
Fore
SplineSet
184.583984375 772 m 0x13
 231.583984375 772 252.583984375 740 252.583984375 708 c 0
 252.583984375 667 215.583984375 640 188.583984375 640 c 0
 151.583984375 640 122.583984375 673 122.583984375 710 c 0
 122.583984375 744 150.583984375 772 184.583984375 772 c 0x13
430.583984375 772 m 0
 477.583984375 772 499.583984375 740 499.583984375 708 c 0
 499.583984375 667 462.583984375 640 435.583984375 640 c 0
 398.583984375 640 369.583984375 673 369.583984375 710 c 0
 369.583984375 744 396.583984375 772 430.583984375 772 c 0
91.5849609375 417 m 0xe480
 112.584960938 485 201.584960938 546 299.584960938 546 c 0
 366.584960938 546 480.584960938 535 480.584960938 406 c 2
 480.584960938 121 l 2
 480.584960938 88 481.584960938 74 510.584960938 76 c 0
 531.584960938 78 577.584960938 97 577.584960938 97 c 1
 582.546875 66.2333984375 l 2
 580.603515625 71.408203125 530.584960938 -13 448.584960938 -13 c 0
 402.9765625 -13 388.326171875 34.4375 384.033203125 64.98046875 c 1
 350.396484375 13.955078125 288.467773438 -12 206.584960938 -12 c 0
 103.584960938 -11 57.5849609375 43 57.5849609375 110 c 0xe880
 57.5849609375 242.528320312 195.599609375 289.665039062 382.584960938 289.998046875 c 1
 382.584960938 395 l 2
 382.584960938 454 388.584960938 506 300.584960938 506 c 0
 207.584960938 505 198.584960938 443 187.584960938 404 c 0
 176.584960938 358 160.584960938 345 128.584960938 354 c 0
 107.584960938 362 83.5849609375 378 91.5849609375 417 c 0xe480
582.546875 66.2333984375 m 2
 582.546875 66.2333984375 582.584960938 66 582.584960938 66 c 2
 582.584960938 66.0888671875 582.572265625 66.1669921875 582.546875 66.2333984375 c 2
382.584960938 156.927734375 m 1
 382.584960938 247.994140625 l 1
 263.807617188 247.561523438 158.584960938 221.166015625 158.584960938 122 c 0
 158.584960938 91 180.584960938 41 238.584960938 41 c 0
 322.36328125 41 369.130859375 93.705078125 382.584960938 156.927734375 c 1
EndSplineSet
EndChar

StartChar: aring
Encoding: 229 229 166
Width: 632
Flags: MW
HStem: -12 53<232.585 270.526> 247.994 42.0039<405.585 405.585> 506 40<323.585 356.085 273.585 367.585> 609 266
VStem: 80.585 101<106.5 171.583 106.5 176.264> 114.585 96 199.59 246 405.585 98<156.928 247.994 247.994 247.994 289.998 395 395 406>
LayerCount: 2
Fore
SplineSet
323.58984375 875 m 0x12
 394.58984375 874 449.58984375 810 445.58984375 739 c 0
 441.58984375 666 395.58984375 609 308.58984375 609 c 0
 247.58984375 609 195.58984375 677 199.58984375 744 c 0
 203.58984375 814 253.58984375 876 323.58984375 875 c 0x12
302.58984375 842 m 0
 264.58984375 835 232.58984375 790 247.58984375 723 c 0
 258.58984375 671 305.58984375 630 352.58984375 645 c 0
 400.58984375 661 404.58984375 719 398.58984375 755 c 0
 389.58984375 809 358.58984375 852 302.58984375 842 c 0
114.584960938 417 m 0xe5
 135.584960938 485 224.584960938 546 322.584960938 546 c 0
 389.584960938 546 503.584960938 535 503.584960938 406 c 2
 503.584960938 121 l 2
 503.584960938 88 504.584960938 74 533.584960938 76 c 0
 554.584960938 78 600.584960938 97 600.584960938 97 c 1
 605.546875 66.2333984375 l 2
 603.603515625 71.408203125 553.584960938 -13 471.584960938 -13 c 0
 425.9765625 -13 411.326171875 34.4375 407.033203125 64.98046875 c 1
 373.396484375 13.955078125 311.467773438 -12 229.584960938 -12 c 0
 126.584960938 -11 80.5849609375 43 80.5849609375 110 c 0xe9
 80.5849609375 242.528320312 218.599609375 289.665039062 405.584960938 289.998046875 c 1
 405.584960938 395 l 2
 405.584960938 454 411.584960938 506 323.584960938 506 c 0
 230.584960938 505 221.584960938 443 210.584960938 404 c 0
 199.584960938 358 183.584960938 345 151.584960938 354 c 0
 130.584960938 362 106.584960938 378 114.584960938 417 c 0xe5
605.546875 66.2333984375 m 2
 605.546875 66.2333984375 605.584960938 66 605.584960938 66 c 2
 605.584960938 66.0888671875 605.572265625 66.1669921875 605.546875 66.2333984375 c 2
405.584960938 156.927734375 m 1
 405.584960938 247.994140625 l 1
 286.807617188 247.561523438 181.584960938 221.166015625 181.584960938 122 c 0
 181.584960938 91 203.584960938 41 261.584960938 41 c 0
 345.36328125 41 392.130859375 93.705078125 405.584960938 156.927734375 c 1
EndSplineSet
EndChar

StartChar: ae
Encoding: 230 230 167
Width: 918
Flags: MW
HStem: -13 62 280.972 44.9062 496 40 504 41
VStem: 38 101 72 96 379 93<266.998 278.994 278.994 278.994> 794 92
LayerCount: 2
Fore
SplineSet
379 156.927734375 m 1xcb
 379 278.994140625 l 1
 260.22265625 278.561523438 139 221.166015625 139 122 c 0
 139 91 161 51 219 51 c 0
 302.778320312 51 365.545898438 93.705078125 379 156.927734375 c 1xcb
854 156 m 1
 879.000976562 143.000976562 l 1
 853.000976562 79.0009765625 793.000976562 -12.9990234375 641.000976562 -12.9990234375 c 0
 565.146484375 -12.9990234375 479.374023438 22.1259765625 427.78125 103.001953125 c 1
 362.010742188 22.06640625 249.924804688 -6.6103515625 187.000976562 -5.9990234375 c 0
 84.0009765625 -4.9990234375 38.0009765625 43.0009765625 38.0009765625 110.000976562 c 0xdb
 38.0009765625 242.529296875 192.015625 320.666015625 379.000976562 320.999023438 c 1
 379.000976562 395.000976562 l 2
 379.000976562 454.000976562 369.000976562 496.000976562 281.000976562 496.000976562 c 0
 188.000976562 495.000976562 179.000976562 443.000976562 168.000976562 404.000976562 c 0
 157.000976562 358.000976562 141.000976562 345.000976562 109.000976562 354.000976562 c 0
 88.0009765625 362.000976562 64.0009765625 378.000976562 72.0009765625 417.000976562 c 0
 93.0009765625 485.000976562 182.000976562 536.000976562 280.000976562 536.000976562 c 0xe7
 332.411132812 536.000976562 420.311523438 535.388671875 456.108398438 473.375976562 c 1
 499.83984375 516.369140625 564.178710938 545.000976562 653 545.000976562 c 0xd7
 794 545.000976562 886 450.000976562 886 322.000976562 c 0
 885 277.000976562 891 280.000976562 846 280.000976562 c 2
 472 280.97265625 l 1
 472 266.998046875 l 2
 473.885742188 248.466796875 477.486328125 229.102539062 483 209 c 0
 515 121 562 49 683 49 c 0
 769 49 837 129 854 156 c 1
472.000976562 325.87890625 m 1
 794.000976562 324.001953125 l 1
 794.000976562 400.001953125 730.000976562 504.001953125 643.000976562 504.001953125 c 0
 559.42578125 503.249023438 483.787109375 435.6015625 472.000976562 327.522460938 c 1
 472.000976562 325.87890625 l 1
EndSplineSet
EndChar

StartChar: ccedilla
Encoding: 231 231 168
Width: 552
Flags: MW
HStem: -243 34<270.5 312.5 270.5 348.5> -25 20G<275 319 319 319> -13 76<279 337> 497 48<222 299.5>
VStem: 275 44<-5 -5>
LayerCount: 2
Fore
SplineSet
275 -5 m 1xc8
 319 -5 l 1
 308 -65 l 1
 308 -65 457 -50 437 -170 c 0
 430.095703125 -211.428710938 406 -243 291 -243 c 0
 223 -243 168 -210 168 -210 c 1
 185 -188 l 1
 185 -188 249 -209 292 -209 c 0
 333 -209 386 -199 386 -153 c 0
 386 -79 266 -114 266 -114 c 1
 275 -5 l 1xc8
283 545 m 0x30
 384 545 499 519 499 464 c 0
 499 424 465 405 436 405 c 0
 398 405 388 448 352 472 c 0
 332 485 320 497 279 497 c 0
 110 497 96 351 116 251 c 0
 138 130 215 63 343 63 c 0
 413 63 452 85 504 120 c 1
 528 100 l 1
 473 29 383 -13 291 -13 c 0
 131 -13 32 130 32 256 c 0
 32 449 161 545 283 545 c 0x30
EndSplineSet
EndChar

StartChar: egrave
Encoding: 232 232 169
Width: 634
Flags: MW
HStem: -13 62<299.688 394.188> 280 44 504 41<320.188 363.688> 721 81
VStem: 58.1883 89.8906 471.188 92
LayerCount: 2
Fore
SplineSet
503.1875 623 m 1
 484.1875 593 l 1
 484.1875 593 253.1875 683 153.1875 721 c 0
 132.1875 729 126.1875 748 127.1875 761 c 0
 130.1875 792 148.1875 802 181.1875 802 c 0
 237.1875 802 503.1875 623 503.1875 623 c 1
531.188476562 156 m 1
 556.188476562 143 l 1
 530.188476562 79 470.188476562 -13 318.188476562 -13 c 0
 200.188476562 -13 58.1884765625 71 58.1884765625 281 c 0
 58.1884765625 406 135.188476562 545 330.188476562 545 c 0
 471.188476562 545 563.188476562 450 563.188476562 322 c 0
 562.188476562 277 568.188476562 280 523.188476562 280 c 2
 148.079101562 280.974609375 l 1
 149.366210938 258.26953125 153.272460938 234.215820312 160.188476562 209 c 0
 192.188476562 121 239.188476562 49 360.188476562 49 c 0
 446.188476562 49 514.188476562 129 531.188476562 156 c 1
149.014648438 325.87890625 m 1
 471.188476562 324 l 1
 471.188476562 400 407.188476562 504 320.188476562 504 c 0
 236.190429688 503.243164062 160.209960938 434.9140625 149.014648438 325.87890625 c 1
EndSplineSet
EndChar

StartChar: eacute
Encoding: 233 233 170
Width: 634
Flags: MW
HStem: -13 62<275.19 369.69> 280 44 504 41<295.69 339.19> 603.1 21G
VStem: 33.6901 89.8906 446.69 92
LayerCount: 2
Fore
SplineSet
106.689453125 603.099609375 m 1
 86.689453125 639.099609375 l 1
 358.689453125 793.099609375 l 1
 358.689453125 793.099609375 397.689453125 818.099609375 426.689453125 818.099609375 c 0
 452.689453125 818.099609375 488.689453125 810.099609375 488.689453125 770.099609375 c 0
 488.689453125 738.099609375 455.689453125 714.099609375 394.689453125 694.099609375 c 0
 252.689453125 648.099609375 106.689453125 603.099609375 106.689453125 603.099609375 c 1
506.690429688 156 m 1
 531.690429688 143 l 1
 505.690429688 79 445.690429688 -13 293.690429688 -13 c 0
 175.690429688 -13 33.6904296875 71 33.6904296875 281 c 0
 33.6904296875 406 110.690429688 545 305.690429688 545 c 0
 446.690429688 545 538.690429688 450 538.690429688 322 c 0
 537.690429688 277 543.690429688 280 498.690429688 280 c 2
 123.581054688 280.974609375 l 1
 124.868164062 258.26953125 128.774414062 234.215820312 135.690429688 209 c 0
 167.690429688 121 214.690429688 49 335.690429688 49 c 0
 421.690429688 49 489.690429688 129 506.690429688 156 c 1
124.516601562 325.87890625 m 1
 446.690429688 324 l 1
 446.690429688 400 382.690429688 504 295.690429688 504 c 0
 211.692382812 503.243164062 135.711914062 434.9140625 124.516601562 325.87890625 c 1
EndSplineSet
EndChar

StartChar: ecircumflex
Encoding: 234 234 171
Width: 634
Flags: MW
HStem: -13 62<299.688 394.188> 280 44 504 41<320.188 363.688> 690.001 107<302.188 314.188 314.188 325.188>
VStem: 58.1885 89.8906<280.975 280.975 280.975 343.5> 471.188 92<324 362>
LayerCount: 2
Fore
SplineSet
98.1884765625 623.000976562 m 1
 286.188476562 818.000976562 277.188476562 797.000976562 298.188476562 797.000976562 c 2
 332.188476562 797.000976562 l 2
 349.188476562 797.000976562 339.188476562 808.000976562 539.188476562 624.000976562 c 1
 481.188476562 589.000976562 l 1
 342.188476562 679.000976562 343.188476562 690.000976562 325.188476562 690.000976562 c 2
 314.188476562 690.000976562 l 2
 290.188476562 690.000976562 279.188476562 680.000976562 147.188476562 581.000976562 c 1
 98.1884765625 623.000976562 l 1
531.188476562 156 m 1
 556.188476562 143 l 1
 530.188476562 79 470.188476562 -13 318.188476562 -13 c 0
 200.188476562 -13 58.1884765625 71 58.1884765625 281 c 0
 58.1884765625 406 135.188476562 545 330.188476562 545 c 0
 471.188476562 545 563.188476562 450 563.188476562 322 c 0
 562.188476562 277 568.188476562 280 523.188476562 280 c 2
 148.079101562 280.974609375 l 1
 149.366210938 258.26953125 153.272460938 234.215820312 160.188476562 209 c 0
 192.188476562 121 239.188476562 49 360.188476562 49 c 0
 446.188476562 49 514.188476562 129 531.188476562 156 c 1
149.014648438 325.87890625 m 1
 471.188476562 324 l 1
 471.188476562 400 407.188476562 504 320.188476562 504 c 0
 236.190429688 503.243164062 160.209960938 434.9140625 149.014648438 325.87890625 c 1
EndSplineSet
EndChar

StartChar: edieresis
Encoding: 235 235 172
Width: 634
Flags: MW
HStem: -13.7998 62<299.688 394.188> 279.2 44 503.2 41<320.188 363.688> 640 132<166.688 198.688 413.688 445.688>
VStem: 58.1885 89.8906<280.175 280.175 280.175 342.7> 119.188 130 366.188 130 471.188 92<323.2 361.2>
LayerCount: 2
Fore
SplineSet
181.188476562 772 m 0x16
 228.188476562 772 249.188476562 740 249.188476562 708 c 0
 249.188476562 667 212.188476562 640 185.188476562 640 c 0
 148.188476562 640 119.188476562 673 119.188476562 710 c 0
 119.188476562 744 147.188476562 772 181.188476562 772 c 0x16
427.188476562 772 m 0
 474.188476562 772 496.188476562 740 496.188476562 708 c 0
 496.188476562 667 459.188476562 640 432.188476562 640 c 0
 395.188476562 640 366.188476562 673 366.188476562 710 c 0
 366.188476562 744 393.188476562 772 427.188476562 772 c 0
531.188476562 155.200195312 m 1xe9
 556.188476562 142.200195312 l 1
 530.188476562 78.2001953125 470.188476562 -13.7998046875 318.188476562 -13.7998046875 c 0
 200.188476562 -13.7998046875 58.1884765625 70.2001953125 58.1884765625 280.200195312 c 0
 58.1884765625 405.200195312 135.188476562 544.200195312 330.188476562 544.200195312 c 0
 471.188476562 544.200195312 563.188476562 449.200195312 563.188476562 321.200195312 c 0
 562.188476562 276.200195312 568.188476562 279.200195312 523.188476562 279.200195312 c 2
 148.079101562 280.174804688 l 1
 149.366210938 257.469726562 153.272460938 233.416015625 160.188476562 208.200195312 c 0
 192.188476562 120.200195312 239.188476562 48.2001953125 360.188476562 48.2001953125 c 0
 446.188476562 48.2001953125 514.188476562 128.200195312 531.188476562 155.200195312 c 1xe9
149.014648438 325.079101562 m 1
 471.188476562 323.200195312 l 1
 471.188476562 399.200195312 407.188476562 503.200195312 320.188476562 503.200195312 c 0
 236.190429688 502.443359375 160.209960938 434.114257812 149.014648438 325.079101562 c 1
EndSplineSet
EndChar

StartChar: igrave
Encoding: 236 236 173
Width: 531
Flags: MW
HStem: 0 38<476 506 106 106> 481 43<106 160.5 106 186.5> 525 20G<308 343> 789 81
VStem: 266 98<416 509>
LayerCount: 2
Fore
SplineSet
397 691 m 1
 378 662 l 1
 378 662 147 751 47 789 c 0
 26 797 20 817 21 830 c 0
 24 861 42 870 75 870 c 0
 131 870 397 691 397 691 c 1
361 86 m 2
 361 22 446 38 506 38 c 1
 506 0 l 1
 106 0 l 1
 106 38 l 1
 202 37 264 23 264 86 c 2
 266 416 l 2
 266 481 267 481 106 481 c 1
 106 524 l 1
 215 524 290 545 326 545 c 0
 360 545 364 528 364 490 c 2
 361 86 l 2
EndSplineSet
EndChar

StartChar: iacute
Encoding: 237 237 174
Width: 510
Flags: MW
HStem: 0 38<398 428 26 26> 481 43<26 80.5 26 106.5> 525 20G<229 264>
VStem: 187 98<416 509>
LayerCount: 2
Fore
SplineSet
114 651 m 1
 94 687 l 1
 366 841 l 1
 366 841 405 866 434 866 c 0
 460 866 496 858 496 818 c 0
 496 786 463 762 402 742 c 0
 260 696 114 651 114 651 c 1
283 86 m 2
 283 22 368 38 428 38 c 1
 428 0 l 1
 26 0 l 1
 26 38 l 1
 122 37 185 23 185 86 c 2
 187 416 l 2
 187 481 187 481 26 481 c 1
 26 524 l 1
 135 524 211 545 247 545 c 0
 281 545 285 528 285 490 c 2
 283 86 l 2
EndSplineSet
EndChar

StartChar: icircumflex
Encoding: 238 238 175
Width: 498
Flags: MW
HStem: 0 38<444 474 72 72> 481 43<72 126.5 72 152.5> 525 20G<275 310> 781 107<230 242 242 253>
VStem: 233 98<416 509>
LayerCount: 2
Fore
SplineSet
26 714 m 1
 214 909 205 888 226 888 c 2
 260 888 l 2
 277 888 267 899 467 715 c 1
 409 680 l 1
 270 770 271 781 253 781 c 2
 242 781 l 2
 218 781 207 771 75 672 c 1
 26 714 l 1
329 86 m 2
 329 22 414 38 474 38 c 1
 474 0 l 1
 72 0 l 1
 72 38 l 1
 168 37 230 23 230 86 c 2
 233 416 l 2
 233 481 233 481 72 481 c 1
 72 524 l 1
 181 524 257 545 293 545 c 0
 327 545 331 528 331 490 c 2
 329 86 l 2
EndSplineSet
EndChar

StartChar: idieresis
Encoding: 239 239 176
Width: 418
Flags: MW
HStem: 0 38<385 415 13 13> 481 43<13 67.5 13 93.5> 525 20G<216 251> 693 132<47.5 79.5 294.5 326.5>
VStem: 0 130<743.5 777 740.5 779> 174 98<416 509> 246 131<743.5 777 740.5 779>
LayerCount: 2
Fore
SplineSet
62 825 m 0xf8
 109 825 130 793 130 761 c 0
 130 720 93 693 66 693 c 0
 29 693 0 725 0 762 c 0
 0 796 28 825 62 825 c 0xf8
308 825 m 0
 355 825 377 793 377 761 c 0
 377 720 340 693 313 693 c 0
 276 693 246 725 246 762 c 0xfa
 246 796 274 825 308 825 c 0
270 86 m 2
 270 22 355 38 415 38 c 1
 415 0 l 1
 13 0 l 1
 13 38 l 1
 109 37 172 23 172 86 c 2
 174 416 l 2
 174 481 174 481 13 481 c 1
 13 524 l 1
 122 524 198 545 234 545 c 0
 268 545 272 528 272 490 c 2xfc
 270 86 l 2
EndSplineSet
EndChar

StartChar: ntilde
Encoding: 241 241 178
Width: 625
Flags: MW
HStem: -0.200195 38<52 82 248 267 52 82 389 412 584 603> 478.8 33 488.8 56 659.1 69 699.1 70
VStem: 116 97 452 98<85.7998 392.8 392.8 400.8>
LayerCount: 2
Fore
SplineSet
98 657.099609375 m 1x00
 77 699.099609375 l 1
 77 699.099609375 152 769.099609375 209 769.099609375 c 0
 287 769.099609375 331 728.099609375 411 728.099609375 c 0
 456 728.099609375 522 762.099609375 522 762.099609375 c 1
 544 718.099609375 l 1
 544 718.099609375 511 659.099609375 421 659.099609375 c 0
 340 659.099609375 295 699.099609375 215 699.099609375 c 0
 167 699.099609375 98 657.099609375 98 657.099609375 c 1x00
452 392.799804688 m 2x86
 452 478.799804688 396 488.799804688 358 488.799804688 c 0
 271.953125 488.799804688 218.8125 400.1328125 214.310546875 340.782226562 c 1
 213 85.7998046875 l 2
 213 41.7998046875 229 37.7998046875 267 37.7998046875 c 1
 267 -0.2001953125 l 1
 52 -0.2001953125 l 1
 52 37.7998046875 l 1
 112 37.7998046875 115 61.7998046875 115 85.7998046875 c 2
 116 434.799804688 l 2
 116 478.799804688 92 493.799804688 39 478.799804688 c 1
 26 511.799804688 l 1
 72 532.799804688 110 544.799804688 164 544.799804688 c 1
 164 544.799804688 215 544.799804688 215 474.799804688 c 2
 214.916015625 458.450195312 l 1
 264.9375 519.614257812 334.799804688 544.799804688 404 544.799804688 c 0
 452 544.799804688 550 511.799804688 550 400.799804688 c 2
 550 85.7998046875 l 2
 550 41.7998046875 565 37.7998046875 603 37.7998046875 c 1
 603 -0.2001953125 l 1
 389 -0.2001953125 l 1
 389 37.7998046875 l 1
 435 37.7998046875 452 61.7998046875 452 85.7998046875 c 2
 452 392.799804688 l 2x86
EndSplineSet
EndChar

StartChar: ograve
Encoding: 242 242 179
Width: 628
Flags: MW
HStem: -13 57 720.7 81
VStem: 63.1832 514
LayerCount: 2
Fore
SplineSet
469.18359375 622.700195312 m 1
 450.18359375 592.700195312 l 1
 450.18359375 592.700195312 219.18359375 682.700195312 119.18359375 720.700195312 c 0
 98.18359375 728.700195312 92.18359375 747.700195312 93.18359375 760.700195312 c 0
 96.18359375 791.700195312 114.18359375 801.700195312 147.18359375 801.700195312 c 0
 203.18359375 801.700195312 469.18359375 622.700195312 469.18359375 622.700195312 c 1
327.18359375 544 m 0
 486.18359375 541 576.609375 404.002929688 577.18359375 284 c 0
 578.18359375 75 445.18359375 -13 304.18359375 -13 c 0
 188.18359375 -13 63.18359375 86.099609375 63.18359375 252 c 0
 63.18359375 408.818359375 171.18359375 547 327.18359375 544 c 0
315.18359375 487 m 0
 223.477539062 493.28125 151.18359375 398 163.18359375 246 c 0
 175.040039062 95.8232421875 232.706054688 43.90234375 334.18359375 44 c 0
 440.147460938 44.1025390625 487.154296875 155.258789062 479.18359375 278 c 0
 469.18359375 432 388.18359375 482 315.18359375 487 c 0
EndSplineSet
EndChar

StartChar: oacute
Encoding: 243 243 180
Width: 628
Flags: MW
HStem: -13 57 609 21G<162.188 162.188>
VStem: 63.1873 514
LayerCount: 2
Fore
SplineSet
162.1875 609 m 1
 142.1875 645 l 1
 414.1875 799 l 1
 414.1875 799 453.1875 824 482.1875 824 c 0
 508.1875 824 544.1875 816 544.1875 776 c 0
 544.1875 744 511.1875 720 450.1875 700 c 0
 308.1875 654 162.1875 609 162.1875 609 c 1
327.1875 544 m 0
 486.1875 541 576.61328125 404.002929688 577.1875 284 c 0
 578.1875 75 445.1875 -13 304.1875 -13 c 0
 188.1875 -13 63.1875 86.099609375 63.1875 252 c 0
 63.1875 408.818359375 171.1875 547 327.1875 544 c 0
315.1875 487 m 0
 223.481445312 493.28125 151.1875 398 163.1875 246 c 0
 175.043945312 95.8232421875 232.709960938 43.90234375 334.1875 44 c 0
 440.151367188 44.1025390625 487.158203125 155.258789062 479.1875 278 c 0
 469.1875 432 388.1875 482 315.1875 487 c 0
EndSplineSet
EndChar

StartChar: ocircumflex
Encoding: 244 244 181
Width: 628
Flags: MW
HStem: -13 57 690 107<307.184 319.184 319.184 330.184>
VStem: 63.1834 514
LayerCount: 2
Fore
SplineSet
103.18359375 623 m 1
 291.18359375 818 282.18359375 797 303.18359375 797 c 2
 337.18359375 797 l 2
 354.18359375 797 344.18359375 808 544.18359375 624 c 1
 486.18359375 589 l 1
 347.18359375 679 348.18359375 690 330.18359375 690 c 2
 319.18359375 690 l 2
 295.18359375 690 284.18359375 680 152.18359375 581 c 1
 103.18359375 623 l 1
327.18359375 544 m 0
 486.18359375 541 576.609375 404.002929688 577.18359375 284 c 0
 578.18359375 75 445.18359375 -13 304.18359375 -13 c 0
 188.18359375 -13 63.18359375 86.099609375 63.18359375 252 c 0
 63.18359375 408.818359375 171.18359375 547 327.18359375 544 c 0
315.18359375 487 m 0
 223.477539062 493.28125 151.18359375 398 163.18359375 246 c 0
 175.040039062 95.8232421875 232.706054688 43.90234375 334.18359375 44 c 0
 440.147460938 44.1025390625 487.154296875 155.258789062 479.18359375 278 c 0
 469.18359375 432 388.18359375 482 315.18359375 487 c 0
EndSplineSet
EndChar

StartChar: otilde
Encoding: 245 245 182
Width: 628
Flags: MW
HStem: -13 57 643 69<381.683 434.683 372.183 467.183> 683 70<192.183 249.183 181.683 256.183>
VStem: 63.1826 514
LayerCount: 2
Fore
SplineSet
99.1826171875 641 m 1x20
 78.1826171875 683 l 1
 78.1826171875 683 153.182617188 753 210.182617188 753 c 0x20
 288.182617188 753 332.182617188 712 412.182617188 712 c 0
 457.182617188 712 523.182617188 746 523.182617188 746 c 1
 545.182617188 702 l 1
 545.182617188 702 512.182617188 643 422.182617188 643 c 0x40
 341.182617188 643 296.182617188 683 216.182617188 683 c 0
 168.182617188 683 99.1826171875 641 99.1826171875 641 c 1x20
327.182617188 544 m 0x90
 486.182617188 541 576.608398438 404.002929688 577.182617188 284 c 0
 578.182617188 75 445.182617188 -13 304.182617188 -13 c 0
 188.182617188 -13 63.1826171875 86.099609375 63.1826171875 252 c 0
 63.1826171875 408.818359375 171.182617188 547 327.182617188 544 c 0x90
315.182617188 487 m 0
 223.4765625 493.28125 151.182617188 398 163.182617188 246 c 0
 175.0390625 95.8232421875 232.705078125 43.90234375 334.182617188 44 c 0
 440.146484375 44.1025390625 487.153320312 155.258789062 479.182617188 278 c 0
 469.182617188 432 388.182617188 482 315.182617188 487 c 0
EndSplineSet
EndChar

StartChar: odieresis
Encoding: 246 246 183
Width: 628
Flags: MW
HStem: -13 57 640 132<214.683 246.683 461.683 493.683>
VStem: 63.1826 514 167.183 130 414.183 130
LayerCount: 2
Fore
SplineSet
229.182617188 772 m 0x58
 276.182617188 772 297.182617188 740 297.182617188 708 c 0
 297.182617188 667 260.182617188 640 233.182617188 640 c 0
 196.182617188 640 167.182617188 673 167.182617188 710 c 0
 167.182617188 744 195.182617188 772 229.182617188 772 c 0x58
475.182617188 772 m 0
 522.182617188 772 544.182617188 740 544.182617188 708 c 0
 544.182617188 667 507.182617188 640 480.182617188 640 c 0
 443.182617188 640 414.182617188 673 414.182617188 710 c 0
 414.182617188 744 441.182617188 772 475.182617188 772 c 0
327.182617188 544 m 0xa0
 486.182617188 541 576.608398438 404.002929688 577.182617188 284 c 0
 578.182617188 75 445.182617188 -13 304.182617188 -13 c 0
 188.182617188 -13 63.1826171875 86.099609375 63.1826171875 252 c 0
 63.1826171875 408.818359375 171.182617188 547 327.182617188 544 c 0xa0
315.182617188 487 m 0
 223.4765625 493.28125 151.182617188 398 163.182617188 246 c 0
 175.0390625 95.8232421875 232.705078125 43.90234375 334.182617188 44 c 0
 440.146484375 44.1025390625 487.153320312 155.258789062 479.182617188 278 c 0
 469.182617188 432 388.182617188 482 315.182617188 487 c 0
EndSplineSet
EndChar

StartChar: divide
Encoding: 247 247 184
Width: 724
Flags: MW
HStem: 71 159<346 392 346 392.5> 460 158<346 392 346 392.5>
VStem: 285 155<137 176.5 137 180 526 565.5>
LayerCount: 2
Fore
SplineSet
368 230 m 0
 416 230 440 197 440 156 c 0
 440 118 423 71 362 71 c 0
 318 71 285 105 285 152 c 0
 285 208 324 230 368 230 c 0
368 618 m 0
 416 618 440 586 440 545 c 0
 440 507 423 460 362 460 c 0
 318 460 285 494 285 541 c 0
 285 597 324 618 368 618 c 0
563 328 m 1
 563 379 l 1
 162 380 l 1
 162 329 l 1
 563 328 l 1
EndSplineSet
EndChar

StartChar: oslash
Encoding: 248 248 185
Width: 724
Flags: MW
HStem: -13 21G
LayerCount: 2
Fore
SplineSet
308 490 m 0
 241 470 157.000976562 380 206.000976562 206 c 0
 213.137695312 180.8125 222.78515625 158.180664062 234.42578125 138.399414062 c 1
 446.33203125 459.123046875 l 1
 403.860351562 500.290039062 353.135742188 503.373046875 308 490 c 0
268.140625 94.2919921875 m 1
 310.84765625 51.4130859375 366.73828125 34.8759765625 423.001953125 52 c 0
 503.001953125 77 547.001953125 153 525.001953125 278 c 0
 514.421875 337.189453125 498.772460938 381.825195312 479.924804688 414.830078125 c 1
 268.140625 94.2919921875 l 1
524.444335938 482.209960938 m 1
 582.217773438 430.598632812 613.415039062 354.376953125 614.001953125 284.000976562 c 0
 615.001953125 58.0009765625 472.001953125 -12.9990234375 331.001953125 -12.9990234375 c 0
 291.493164062 -12.9990234375 253.956054688 -0.123046875 220.999023438 22.943359375 c 1
 151.000976562 -82.9990234375 l 1
 104.000976562 -58.9990234375 l 1
 181.326171875 58.033203125 l 1
 138.298828125 105.2265625 108.21484375 172.948242188 100.001953125 252.000976562 c 0
 84.001953125 408.000976562 208.001953125 547.000976562 364.001953125 544.000976562 c 0
 408.919921875 543.153320312 448.331054688 531.611328125 481.784179688 512.779296875 c 1
 548.001953125 613 l 1
 595.001953125 589 l 1
 524.444335938 482.209960938 l 1
EndSplineSet
EndChar

StartChar: ugrave
Encoding: 249 249 186
Width: 686
Flags: MW
HStem: -13 55<271.5 322.248> -1 21G<492.947 504> 503 26<391 391> 525 20G<170 181.5 506 514.5> 736 81
VStem: 103 98<149 192 192 435 435 456.5> 449 98<267.167 435 435 457>
LayerCount: 2
Fore
SplineSet
504 638 m 1x08
 485 608 l 1
 485 608 254 698 154 736 c 0
 133 744 127 763 128 776 c 0
 131 807 149 817 182 817 c 0
 238 817 504 638 504 638 c 1x08
391 529 m 1xa6
 475 545 506 545 506 545 c 2
 523 545 547 530 547 475 c 2
 547 118 l 2
 547 85 548 81 577 83 c 0
 598 85 637 94 637 94 c 1
 649 63 l 1
 649 63 581 0 504 -1 c 0x56
 481.89453125 -1 450.712890625 44.2626953125 449.098632812 78.8564453125 c 1
 416.756835938 33.076171875 365.495117188 -13 279 -13 c 0
 208 -13 103 15 103 149 c 2
 103 435 l 2
 103 478 104 497 78 497 c 0
 61 497 47 498 32 490 c 1
 24 523 l 1
 78 545 170 545 170 545 c 2x96
 193 545 201 524 201 475 c 2
 201 192 l 2
 201 63 248 42 295 42 c 0
 367.810546875 42 439.75 106.481445312 449 267.166992188 c 1
 449 435 l 2
 449 479 434 509 391 503 c 1
 391 529 l 1xa6
EndSplineSet
EndChar

StartChar: uacute
Encoding: 250 250 187
Width: 686
Flags: MW
HStem: -13 55<237.5 288.248> -1 21G<458.947 470> 503 26<357 357> 525 20G<136 147.5 472 480.5> 609 21G<148 148>
VStem: 69 98<149 192 192 435 435 456.5> 415 98<267.167 435 435 457>
LayerCount: 2
Fore
SplineSet
148 609 m 1x08
 128 645 l 1
 400 799 l 1
 400 799 439 824 468 824 c 0
 494 824 530 816 530 776 c 0
 530 744 497 720 436 700 c 0
 294 654 148 609 148 609 c 1x08
357 529 m 1xa6
 441 545 472 545 472 545 c 2
 489 545 513 530 513 475 c 2
 513 118 l 2
 513 85 514 81 543 83 c 0
 564 85 603 94 603 94 c 1
 615 63 l 1
 615 63 547 0 470 -1 c 0x56
 447.89453125 -1 416.712890625 44.2626953125 415.098632812 78.8564453125 c 1
 382.756835938 33.076171875 331.495117188 -13 245 -13 c 0
 174 -13 69 15 69 149 c 2
 69 435 l 2
 69 478 70 497 44 497 c 0
 27 497 13 498 -2 490 c 1
 -10 523 l 1
 44 545 136 545 136 545 c 2x96
 159 545 167 524 167 475 c 2
 167 192 l 2
 167 63 214 42 261 42 c 0
 333.810546875 42 405.75 106.481445312 415 267.166992188 c 1
 415 435 l 2
 415 479 400 509 357 503 c 1
 357 529 l 1xa6
EndSplineSet
EndChar

StartChar: ucircumflex
Encoding: 251 251 188
Width: 686
Flags: MW
HStem: -13 55<271.5 322.248> -1 21G<492.947 504> 503 26<391 391> 525 20G<170 181.5 506 514.5> 750 107<279 291 291 302>
VStem: 103 98<149 192 192 435 435 456.5> 449 98<267.167 435 435 457>
LayerCount: 2
Fore
SplineSet
75 683 m 1x08
 263 878 254 857 275 857 c 2
 309 857 l 2
 326 857 316 868 516 684 c 1
 458 649 l 1
 319 739 320 750 302 750 c 2
 291 750 l 2
 267 750 256 740 124 641 c 1
 75 683 l 1x08
391 529 m 1xa6
 475 545 506 545 506 545 c 2
 523 545 547 530 547 475 c 2
 547 118 l 2
 547 85 548 81 577 83 c 0
 598 85 637 94 637 94 c 1
 649 63 l 1
 649 63 581 0 504 -1 c 0x56
 481.89453125 -1 450.712890625 44.2626953125 449.098632812 78.8564453125 c 1
 416.756835938 33.076171875 365.495117188 -13 279 -13 c 0
 208 -13 103 15 103 149 c 2
 103 435 l 2
 103 478 104 497 78 497 c 0
 61 497 47 498 32 490 c 1
 24 523 l 1
 78 545 170 545 170 545 c 2x96
 193 545 201 524 201 475 c 2
 201 192 l 2
 201 63 248 42 295 42 c 0
 367.810546875 42 439.75 106.481445312 449 267.166992188 c 1
 449 435 l 2
 449 479 434 509 391 503 c 1
 391 529 l 1xa6
EndSplineSet
EndChar

StartChar: udieresis
Encoding: 252 252 189
Width: 686
Flags: MW
HStem: -13 55<274.5 325.248> -1 21G<495.947 507> 503 26<394 394> 525 20G<173 184.5 509 517.5> 640 132<134.5 166.5 381.5 413.5>
VStem: 87 130<691.5 724 687.5 727> 106 98<149 192 192 435 435 456.5> 334 130<691.5 724 687.5 727> 452 98<267.167 435 435 457>
LayerCount: 2
Fore
SplineSet
149 772 m 0x0d
 196 772 217 740 217 708 c 0
 217 667 180 640 153 640 c 0
 116 640 87 673 87 710 c 0
 87 744 115 772 149 772 c 0x0d
395 772 m 0
 442 772 464 740 464 708 c 0
 464 667 427 640 400 640 c 0
 363 640 334 673 334 710 c 0
 334 744 361 772 395 772 c 0
394 529 m 1xa280
 478 545 509 545 509 545 c 2
 526 545 550 530 550 475 c 2
 550 118 l 2
 550 85 551 81 580 83 c 0
 601 85 640 94 640 94 c 1
 652 63 l 1
 652 63 584 0 507 -1 c 0x5280
 484.89453125 -1 453.712890625 44.2626953125 452.098632812 78.8564453125 c 1
 419.756835938 33.076171875 368.495117188 -13 282 -13 c 0
 211 -13 106 15 106 149 c 2
 106 435 l 2
 106 478 107 497 81 497 c 0
 64 497 50 498 35 490 c 1
 27 523 l 1
 81 545 173 545 173 545 c 2x9280
 196 545 204 524 204 475 c 2
 204 192 l 2
 204 63 251 42 298 42 c 0
 370.810546875 42 442.75 106.481445312 452 267.166992188 c 1
 452 435 l 2
 452 479 437 509 394 503 c 1
 394 529 l 1xa280
EndSplineSet
EndChar

StartChar: yacute
Encoding: 253 253 190
Width: 596
Flags: MW
HStem: 491 46<58.5 76.5> 498 31<379 392.5 379 582> 644 21G<161.518 161.518>
LayerCount: 2
Fore
SplineSet
161.517578125 644 m 1x20
 141.517578125 680 l 1
 413.517578125 834 l 1
 413.517578125 834 452.517578125 859 481.517578125 859 c 0
 507.517578125 859 543.517578125 851 543.517578125 811 c 0
 543.517578125 779 510.517578125 755 449.517578125 735 c 0
 307.517578125 689 161.517578125 644 161.517578125 644 c 1x20
198 -148 m 1x80
 504 466 l 2
 518 496 582 498 582 498 c 1
 582 529 l 1
 379 529 l 1
 379 498 l 1x40
 406 498 445 494 437 466 c 1
 300 178 l 1
 190 506 l 1
 177 525 141 537 86 537 c 0
 31 537 10 510 10 510 c 1
 23 482 l 1
 23 482 38 491 64 491 c 0
 89 491 102 492 117 437 c 2
 245 61 l 1
 184 -57 l 2
 145 -125 81 -99 55 -148 c 0
 40 -177 78 -210 111 -210 c 0
 170 -210 198 -148 198 -148 c 1x80
EndSplineSet
EndChar

StartChar: thorn
Encoding: 254 254 191
Width: 724
Flags: MW
HStem: -233 38<338 368 103 103> 0 46<368.735 444 368.735 477> 489 56<399.679 451.5> 760 20G<210.5 239>
VStem: 166 98<-147 32.6826 85.8076 357.665 457.46 684 684 706>
LayerCount: 2
Fore
SplineSet
64 750 m 1
 103 752 194 780 227 780 c 0
 251 780 264 775 264 716 c 2
 264 457.459960938 l 1
 323.954101562 525.9921875 364.357421875 545 435 545 c 0
 613 545 679 401 669 261 c 1
 648 76 550 0 404 0 c 0
 331.92578125 0 292.83203125 15.0439453125 264 32.6826171875 c 1
 264 -147 l 2
 264 -195 308 -195 368 -195 c 1
 368 -233 l 1
 103 -233 l 1
 103 -195 l 1
 158 -196 166 -180 166 -147 c 2
 166 684 l 2
 166 728 69 718 69 718 c 1
 64 750 l 1
264 357.665039062 m 1
 264 85.8076171875 l 1
 296.084960938 65.1484375 337.470703125 46 400 46 c 0
 488 46 560 119 573 255 c 1
 580 433 496 489 407 489 c 0
 374.76171875 489 275.094726562 455.735351562 264 357.665039062 c 1
EndSplineSet
EndChar

StartChar: ydieresis
Encoding: 255 255 192
Width: 596
Flags: MW
HStem: 491 46<58.5 76.5> 498 31<379 392.5 379 582> 642 132<177.018 209.018 424.018 456.018>
VStem: 129.517 130 376.517 130
LayerCount: 2
Fore
SplineSet
191.517578125 774 m 0x20
 238.517578125 774 259.517578125 742 259.517578125 710 c 0
 259.517578125 669 222.517578125 642 195.517578125 642 c 0
 158.517578125 642 129.517578125 675 129.517578125 712 c 0
 129.517578125 746 157.517578125 774 191.517578125 774 c 0x20
437.517578125 774 m 0
 484.517578125 774 506.517578125 742 506.517578125 710 c 0
 506.517578125 669 469.517578125 642 442.517578125 642 c 0
 405.517578125 642 376.517578125 675 376.517578125 712 c 0
 376.517578125 746 403.517578125 774 437.517578125 774 c 0
198 -148 m 1x80
 504 466 l 2
 518 496 582 498 582 498 c 1
 582 529 l 1
 379 529 l 1
 379 498 l 1x40
 406 498 445 494 437 466 c 1
 300 178 l 1
 190 506 l 1
 177 525 141 537 86 537 c 0
 31 537 10 510 10 510 c 1
 23 482 l 1
 23 482 38 491 64 491 c 0
 89 491 102 492 117 437 c 2
 245 61 l 1
 184 -57 l 2
 145 -125 81 -99 55 -148 c 0
 40 -177 78 -210 111 -210 c 0
 170 -210 198 -148 198 -148 c 1x80
EndSplineSet
EndChar

StartChar: glyph256
Encoding: 8804 8804 193
Width: 571
Flags: W
LayerCount: 2
Fore
SplineSet
497 -1 m 1
 497 50 l 1
 85 51 l 1
 85 0 l 1
 497 -1 l 1
486 131 m 1
 486 183 l 1
 135.376953125 357.874023438 l 1
 486 531 l 1
 486 583 l 1
 85 384 l 1
 85 383 l 1
 85 333 l 1
 85 332 l 1
 486 131 l 1
EndSplineSet
EndChar
